<?xml version="1.0" encoding="UTF-8" standalone="no"?>
<svg width="641px" height="384px" viewBox="0 0 641 384" version="1.1" xmlns="http://www.w3.org/2000/svg" xmlns:xlink="http://www.w3.org/1999/xlink">
    <!-- Generator: Sketch 39.1 (31720) - http://www.bohemiancoding.com/sketch -->
    <title>127 Labs Copy 2</title>
    <desc>Created with Sketch.</desc>
    <defs></defs>
    <g id="Page-1" stroke="none" stroke-width="1" fill="none" fill-rule="evenodd">
        <path d="M108.261139,299.310207 L108.261139,2.12276742 L0,2.12276742 L0,46.7008833 L58.1638274,46.7008833 L58.1638274,299.310207 L108.261139,299.310207 Z M281.054407,0 C242.844593,0 205.059333,16.1330324 172.793268,42.4553485 L192.747282,81.0897156 C217.795938,58.1638274 247.939235,43.7290089 273.836998,43.7290089 C304.829402,43.7290089 323.509755,58.1638274 323.509755,81.9388225 C323.509755,98.9209619 309.074937,123.120511 287.422709,145.197292 L177.88791,262.798607 L177.88791,299.310207 L389.315545,299.310207 L389.315545,254.307537 L244.118254,254.307537 L321.386988,172.368715 C352.803946,138.404436 375.729834,104.864711 375.729834,74.7214133 C375.729834,29.2941904 337.095467,0 281.054407,0 L281.054407,0 Z M640.226655,40.332581 L640.226655,2.12276742 L424.128931,2.12276742 L424.128931,88.7316783 L468.282493,88.7316783 L468.707047,47.1254368 L584.185595,47.1254368 L468.707047,299.310207 L521.776233,299.310207 L640.226655,40.332581 Z M438.664565,377.392628 L438.664565,325.202752 L431.973556,325.202752 L431.973556,383.749087 L464.341315,383.749087 L464.341315,377.392628 L438.664565,377.392628 Z M512.934773,368.945228 L519.458508,383.749087 L526.734981,383.749087 L500.556405,325.202752 L493.614483,325.202752 L467.35227,383.749087 L474.461468,383.749087 L480.985202,368.945228 L512.934773,368.945228 Z M510.091094,362.505131 L483.828881,362.505131 L496.87635,332.813776 L510.091094,362.505131 Z M535.935119,325.202752 L535.935119,383.749087 L561.026406,383.749087 C574.24115,383.749087 582.103086,377.810816 582.103086,367.857939 C582.103086,359.828727 577.168467,354.308644 568.721067,353.05408 C575.579352,351.63224 579.51032,346.697621 579.51032,339.839336 C579.51032,330.639197 572.401122,325.202752 560.608218,325.202752 L535.935119,325.202752 Z M542.626129,331.642849 L560.273667,331.642849 C568.135604,331.642849 572.735673,334.988354 572.735673,340.926625 C572.735673,347.032171 568.135604,350.461314 560.273667,350.461314 L542.626129,350.461314 L542.626129,331.642849 Z M542.626129,356.817773 L560.273667,356.817773 C569.808356,356.817773 575.328439,360.581466 575.328439,366.937925 C575.328439,373.628935 569.808356,377.392628 560.273667,377.392628 L542.626129,377.392628 L542.626129,356.817773 Z M613.216282,324.951839 C601.088827,324.951839 592.975977,330.89011 592.975977,340.090249 C592.975977,361.083292 625.9292,352.886805 625.845563,368.276127 C625.845563,373.879848 620.576392,377.30899 612.128993,377.30899 C605.52162,377.30899 598.077872,374.298036 592.641427,369.028866 L589.630472,375.050774 C595.150555,380.319945 603.514318,384 612.045355,384 C624.590998,384 633.205673,377.727178 633.205673,367.941577 C633.289311,346.697621 600.336088,354.559557 600.336088,339.504785 C600.336088,334.570166 605.270708,331.726487 612.798094,331.726487 C617.4818,331.726487 623.670984,333.148326 628.940155,336.661106 L631.783834,330.388285 C626.932852,327.126417 619.990929,324.951839 613.216282,324.951839 L613.216282,324.951839 Z" id="127-Labs-Copy-2" fill="#FFFFFF"></path>
    </g>
</svg>