<?xml version="1.0" encoding="UTF-8" standalone="no"?>
<svg width="102px" height="102px" viewBox="0 0 102 102" version="1.1" xmlns="http://www.w3.org/2000/svg" xmlns:xlink="http://www.w3.org/1999/xlink">
    <!-- Generator: Sketch 39.1 (31720) - http://www.bohemiancoding.com/sketch -->
    <title>graph-2</title>
    <desc>Created with Sketch.</desc>
    <defs></defs>
    <g id="Page-1" stroke="none" stroke-width="1" fill="none" fill-rule="evenodd">
        <g id="Desktop-HD" transform="translate(-816.000000, -1037.000000)" stroke-width="2" stroke="#92FFFF">
            <g id="Group-13" transform="translate(759.000000, 979.000000)">
                <g id="Group-3-Copy-2">
                    <g id="graph-2" transform="translate(58.000000, 58.000000)">
                        <path d="M9.61904762,19.2380952 L9.61904762,14.4285714 C9.61904762,13.100457 10.6956963,12.0238095 12.0238095,12.0238095 L64.9285714,12.0238095 C66.2566834,12.0238095 67.3333333,13.100457 67.3333333,14.4285714 L67.3333333,19.2380952 C67.3333333,20.5662096 66.2566834,21.6428571 64.9285714,21.6428571 L12.0238095,21.6428571 C10.6956963,21.6428571 9.61904762,20.5662096 9.61904762,19.2380952 L9.61904762,19.2380952 Z" id="Shape"></path>
                        <path d="M34.6190476,40.8809524 L34.6190476,36.0714286 C34.6190476,34.7433166 35.6956963,33.6666667 37.0238095,33.6666667 L63.4761905,33.6666667 C64.8043025,33.6666667 65.8809524,34.7433166 65.8809524,36.0714286 L65.8809524,40.8809524 C65.8809524,42.2090644 64.8043025,43.2857143 63.4761905,43.2857143 L37.0238095,43.2857143 C35.6956963,43.2857143 34.6190476,42.2090644 34.6190476,40.8809524 L34.6190476,40.8809524 Z" id="Shape"></path>
                        <path d="M9.61904762,62.5238095 L9.61904762,57.7142857 C9.61904762,56.3861737 10.6956963,55.3095238 12.0238095,55.3095238 L91.3809524,55.3095238 C92.7090644,55.3095238 93.7857143,56.3861737 93.7857143,57.7142857 L93.7857143,62.5238095 C93.7857143,63.8519215 92.7090644,64.9285714 91.3809524,64.9285714 L12.0238095,64.9285714 C10.6956963,64.9285714 9.61904762,63.8519215 9.61904762,62.5238095 L9.61904762,62.5238095 Z" id="Shape"></path>
                        <path d="M66.6190476,84.1666667 L66.6190476,79.3571429 C66.6190476,78.0290309 67.6956963,76.952381 69.0238095,76.952381 L85.8571429,76.952381 C87.1852573,76.952381 88.2619048,78.0290309 88.2619048,79.3571429 L88.2619048,84.1666667 C88.2619048,85.4947787 87.1852573,86.5714286 85.8571429,86.5714286 L69.0238095,86.5714286 C67.6956963,86.5714286 66.6190476,85.4947787 66.6190476,84.1666667 L66.6190476,84.1666667 Z" id="Shape"></path>
                        <path d="M0,0 L0,98.5952381 C0,99.9233501 1.0766487,101 2.4047619,101 L101,101" id="Shape"></path>
                    </g>
                </g>
            </g>
        </g>
    </g>
</svg>