<?xml version="1.0" encoding="UTF-8" standalone="no"?>
<svg width="2780px" height="1144px" viewBox="0 0 2780 1144" version="1.1" xmlns="http://www.w3.org/2000/svg" xmlns:xlink="http://www.w3.org/1999/xlink">
    <!-- Generator: Sketch 39.1 (31720) - http://www.bohemiancoding.com/sketch -->
    <title>Artboard</title>
    <desc>Created with Sketch.</desc>
    <defs></defs>
    <g id="Page-1" stroke="none" stroke-width="1" fill="none" fill-rule="evenodd" opacity="0.3">
        <g id="Artboard" stroke="#92FFFF">
            <g id="parallax-header-0" transform="translate(9.000000, 8.000000)">
                <g id="Group">
                    <path d="M746.4,246.3 C747,247 747.7,247.7 748.4,248.1 C744.3,256.6 745.1,267 751.3,274.9 C751.3,275 751.4,275 751.5,275.1 C752.3,276.1 753.2,277 754.2,277.9 C756.8,280.2 759.7,282 762.8,283.1 L762.9,283.1 C770.8,285.8 779.9,284.6 786.9,279 C788.2,278 789.3,276.9 790.3,275.7 L791,274.9 C798.1,265.9 798.4,252.9 791,243.6 C783.5,234.2 770.7,231.5 760.3,236.5 L758.7,234.5 C755.7,231.9 751.1,231.7 747.9,234.3 C744.1,237.2 743.5,242.6 746.4,246.3 L746.4,246.3 Z M166,742.1 L9.6,741.9 C4.5,740.9 0.6,736.4 0.6,731 C0.6,724.8 5.6,719.8 11.8,719.8 C13.1,719.8 14.4,720 15.6,720.5 C21.7,707.6 35.7,699.7 50.5,702.1 C55,702.8 59.1,704.4 62.7,706.7 C66.1,701.4 70.3,696.7 75.2,692.8 C75.2,692.8 90.5,679.2 113.1,680.5 C116.9,680.7 129.8,680.4 145.6,692.7 C152.3,698 164.1,713.4 166,727.1 L166,742.1 Z" id="Shape"></path>
                    <circle id="Oval" cx="110.3" cy="736.9" r="56.5"></circle>
                    <circle id="Oval" cx="1518" cy="942.7" r="7.1"></circle>
                    <circle id="Oval" cx="1500.7" cy="961.3" r="49.5"></circle>
                    <path d="M1452.6,971 L1549.3,971" id="Shape"></path>
                    <path d="M1081,492.6 C1085.1,491.8 1088.2,488.2 1088.1,483.9 C1088.1,479.1 1084.2,475.1 1079.4,475.1 C1078.3,475.1 1077.2,475.3 1076.2,475.6 C1072.9,468.6 1066.7,463.5 1059.4,461.5 C1057.1,460.9 1054.7,460.5 1052.2,460.5 C1037.7,460.5 1026,472.2 1026,486.7 L1026,487 C1026,490.1 1028.6,492.5 1031.6,492.6 L1081,492.6 L1081,492.6 Z M1091.7,484.2 C1095.8,483.4 1098.9,479.8 1098.8,475.5 C1098.8,470.7 1094.9,466.7 1090.1,466.7 C1089,466.7 1087.9,466.9 1086.9,467.2 C1083.6,460.2 1077.4,455.1 1070.1,453.1 C1067.8,452.5 1065.4,452.1 1062.9,452.1 C1048.4,452.1 1036.7,463.8 1036.7,478.3 L1036.7,478.6 C1036.7,481.7 1039.3,484.1 1042.3,484.2 L1091.7,484.2 L1091.7,484.2 Z" id="Shape"></path>
                    <path d="M1027.2,489.9 L1038,482" id="Shape"></path>
                    <path d="M1076.2,475.5 L1087,467.1" id="Shape"></path>
                    <path d="M1083.3,491.8 L1096.8,481.1" id="Shape"></path>
                    <circle id="Oval" cx="2524.3" cy="88.7" r="12.3"></circle>
                    <path d="M2598.9,201.7 L2643.2,212.2 C2651.8,214.2 2651.8,226.5 2643.1,228.5 L2594.2,239.6 L2584.2,220.5 C2579.1,210.5 2588,199.1 2598.9,201.7 L2598.9,201.7 Z" id="Shape"></path>
                    <path d="M2594.3,239.6 L2617.8,206.1" id="Shape"></path>
                    <circle id="Oval" cx="2655.9" cy="181.3" r="7.9"></circle>
                </g>
            </g>
        </g>
    </g>
</svg>