<?xml version="1.0" encoding="UTF-8" standalone="no"?>
<svg width="1084px" height="664px" viewBox="0 0 1084 664" version="1.1" xmlns="http://www.w3.org/2000/svg" xmlns:xlink="http://www.w3.org/1999/xlink">
    <!-- Generator: Sketch 39.1 (31720) - http://www.bohemiancoding.com/sketch -->
    <title>Parallax_Layer_Back</title>
    <desc>Created with Sketch.</desc>
    <defs></defs>
    <g id="Page-1" stroke="none" stroke-width="1" fill="none" fill-rule="evenodd" opacity="0.2">
        <g id="Desktop-HD" transform="translate(-172.000000, -76.000000)" fill="#92FFFF">
            <g id="HEADER_SECTION" transform="translate(0.026861, 0.000000)">
                <g id="Parallax_Layer_Back" transform="translate(172.417235, 75.603758)">
                    <g id="icon6_1_" transform="translate(283.363977, 136.985027)">
                        <g id="XMLID_1103_" transform="translate(0.000000, 29.942082)">
                            <path d="M37.4055442,54.4638992 L28.319156,56.100234 L26.9997893,48.7936173 C24.7688602,48.6596265 22.5889067,48.1528568 20.5011588,47.2815422 L16.1997237,53.4660793 L8.61636389,48.2075011 L13.0204998,41.8740021 C11.5991821,40.2384159 10.4664758,38.4007206 9.64112198,36.3968467 L1.91083274,37.7891535 L0.272119375,28.715954 L8.17107764,27.2937051 C8.32025603,25.1962623 8.79103005,23.1639434 9.57290473,21.2349248 L2.91010307,16.6141129 L8.17632512,9.04101176 L14.9103426,13.7104795 C16.463597,12.3361379 18.1922672,11.2237896 20.0648683,10.395891 L18.6105664,2.3452136 L27.6977043,0.708878799 L29.1407616,8.69967202 C31.2180144,8.79398958 33.2585349,9.21243018 35.2240914,9.94675975 L39.816387,3.34303349 L47.3997467,8.60236025 L42.9109015,15.0578732 C44.3891919,16.6350724 45.5901154,18.4241118 46.4904332,20.3928037 L54.1045282,19.0214563 L55.7432416,28.0946558 L48.2993149,29.4353126 C48.2265998,31.677226 47.7835625,33.8615009 46.9791986,35.9469669 L53.1052579,40.196497 L47.8390359,47.7688496 L41.7834427,43.5702211 C40.1072473,45.1017586 38.1994132,46.3248927 36.0951733,47.2156696 L37.4055442,54.4638992 L37.4055442,54.4638992 Z M29.6542651,54.1794494 L35.4827173,53.1299794 L34.22707,46.1759308 L34.8650138,45.9296572 C37.2263802,45.0216635 39.3313698,43.6720242 41.1237594,41.9166696 L41.6132744,41.4383448 L47.4244849,45.4678005 L50.8023634,40.6104462 L44.940927,36.5443115 L45.2025515,35.9252589 C46.1703369,33.6466665 46.6583526,31.2295919 46.6553541,28.7421534 L46.6546044,28.0497427 L53.8211643,26.759239 L52.7701688,20.9392467 L45.4866651,22.2507099 L45.2310378,21.6383943 C44.301484,19.4136976 42.9648756,17.4255434 41.2586946,15.7270787 L40.76843,15.2390228 L45.0968522,9.01481243 L40.2324373,5.64108831 L35.8312999,11.9693474 L35.2158454,11.7170854 C33.0411393,10.8225657 30.7592347,10.3569663 28.4360998,10.3322641 L27.752428,10.32403 L26.3625952,2.62741772 L20.534143,3.67688771 L21.9314723,11.4131732 L21.3062724,11.6639382 C19.1795433,12.5180361 17.2432227,13.7628781 15.5505353,15.3632824 L15.0625195,15.8251391 L8.59162577,11.338318 L5.21374725,16.1964209 L11.6321662,20.64806 L11.3540497,21.2731009 C10.4057549,23.3967431 9.87950755,25.6671015 9.78805145,28.0212977 L9.76256368,28.6845149 L2.19419672,30.0476282 L3.24519221,35.8676204 L10.6981146,34.5254666 L10.9394987,35.1737126 C11.780595,37.435837 13.0392408,39.4786355 14.6802031,41.2467155 L15.1322361,41.7347714 L10.9200081,47.7928032 L15.784423,51.1657788 L19.9239359,45.2125443 L20.5543833,45.4999883 C22.8377872,46.5442184 25.2478803,47.1056325 27.7186942,47.1692594 L28.3926207,47.1872246 L29.6542651,54.1794494 L29.6542651,54.1794494 Z M30.7824735,42.9444316 C22.9412375,44.3562007 15.4111022,39.1350501 13.9972809,31.3051956 C12.5834596,23.4753411 17.8121996,15.9561357 25.6534356,14.5443665 C33.4946716,13.1325973 41.0240573,18.3537479 42.4386282,26.1836024 C43.8524495,34.013457 38.6237095,41.5326624 30.7824735,42.9444316 L30.7824735,42.9444316 Z M25.9472945,16.1717187 C19.0048771,17.4218006 14.3743499,24.0794226 15.6269986,31.0117632 C16.8788976,37.9441038 23.5461971,42.5671613 30.4886146,41.3170794 C37.431032,40.0669975 42.0608096,33.4093754 40.8089105,26.4770348 C39.5570115,19.5446942 32.889712,14.9216367 25.9472945,16.1717187 L25.9472945,16.1717187 Z" id="XMLID_1104_"></path>
                        </g>
                        <g id="XMLID_1068_" transform="translate(44.978409, 0.000000)">
                            <path d="M32.3087409,46.0726306 L24.3820459,47.5001194 L23.2628332,41.3021083 C21.4352105,41.1815915 19.6465691,40.7661451 17.9313924,40.0625061 L14.2843931,45.3053648 L7.66881874,40.7182377 L11.4042756,35.3466282 C10.2475809,33.999983 9.31877671,32.4946448 8.63360562,30.8568129 L2.0817507,32.036531 L0.652186931,24.1213415 L7.35097132,22.9154241 C7.48290798,21.2004914 7.86822302,19.5372087 8.49792075,17.9555182 L2.85013185,14.0383453 L7.4439267,7.43162483 L13.1531861,11.3914652 C14.4298233,10.273877 15.8436446,9.3651348 17.3706616,8.67871256 L16.1382532,1.85416345 L24.0649481,0.426674673 L25.2883608,7.19957369 C26.9870454,7.28640573 28.656494,7.62924257 30.26897,8.2205987 L34.1633506,2.6199322 L40.7789249,7.20780777 L36.9737515,12.6797233 C38.1776736,13.9784611 39.1612015,15.4448746 39.9070934,17.0520159 L46.3652433,15.888766 L47.7948071,23.8039554 L41.4843363,24.9402575 C41.4131205,26.7787013 41.0502947,28.5707349 40.4011063,30.2841706 L45.5976118,33.8877002 L41.003817,40.4936721 L35.8680323,36.9335585 C34.4864455,38.1821434 32.9204472,39.1852031 31.2000231,39.9262697 L32.3087409,46.0726306 L32.3087409,46.0726306 Z M25.717155,45.5793348 L30.3851642,44.7387108 L29.3281716,38.888028 L29.9661154,38.6417543 C31.9429165,37.8812254 33.7060701,36.7509118 35.2068497,35.2815041 L35.6963647,34.8031794 L40.5862674,38.1926231 L43.2917187,34.3023981 L38.3598362,30.8837608 L38.6229598,30.2647083 C39.4333209,28.3581462 39.8426244,26.3340614 39.8396258,24.2493439 L39.8388762,23.5569333 L45.8697312,22.4707842 L45.0278853,17.8095506 L38.9033253,18.9121677 L38.6469483,18.2998522 C37.8688219,16.4367061 36.7488595,14.7726749 35.3200453,13.3511745 L34.829031,12.86237 L38.4730318,7.62250561 L34.577152,4.92023268 L30.8754289,10.2439349 L30.2599743,9.99167287 C28.4375991,9.24312081 26.527516,8.85162808 24.5821998,8.83141718 L23.8977784,8.82318311 L22.7283397,2.3467107 L18.0603305,3.18733466 L19.2357663,9.69674336 L18.6098167,9.94825685 C16.8309207,10.6623755 15.209449,11.7051085 13.7903802,13.0465138 L13.3016148,13.5083704 L7.8584777,9.73117675 L5.1530264,13.6221503 L10.5549333,17.369402 L10.2768168,17.9944429 C9.48294791,19.7722541 9.0421595,21.6728277 8.96644584,23.6445139 L8.94095808,24.307731 L2.57501392,25.4537642 L3.41685981,30.1149978 L9.68984859,28.9854328 L9.93123272,29.6344274 C10.6343952,31.5282641 11.6883892,33.2387056 13.0639789,34.7193415 L13.5160119,35.2073975 L9.97246293,40.3027913 L13.8683428,43.0043157 L17.3534198,37.9942568 L17.9831176,38.2817008 C19.8954496,39.1560096 21.9142305,39.6268488 23.9824877,39.6792475 L24.6556646,39.6964642 L25.717155,45.5793348 L25.717155,45.5793348 Z M25.8041133,32.0193143 C21.5139227,32.79182 17.3931508,29.9353453 16.6195221,25.6513819 C15.8458935,21.3674185 18.70727,17.2526278 22.9974605,16.4801221 C27.2876511,15.7076164 31.4076734,18.5648396 32.181302,22.848803 C32.9549307,27.133515 30.0943039,31.2468086 25.8041133,32.0193143 L25.8041133,32.0193143 Z M23.2913195,18.1074743 C19.8991978,18.7182928 17.6367838,21.9707515 18.2484902,25.3586981 C18.8601966,28.7451476 22.117383,31.0042777 25.5095047,30.3927107 C28.9008767,29.7818922 31.1632907,26.5294335 30.5515843,23.142984 C29.939878,19.7550374 26.6826915,17.4966558 23.2913195,18.1074743 L23.2913195,18.1074743 Z" id="XMLID_1076_"></path>
                        </g>
                    </g>
                    <g id="icon5_1_" transform="translate(0.000000, 133.990818)">
                        <g id="XMLID_1064_" transform="translate(0.000000, 8.982625)">
                            <path d="M4.44911429,37.2337279 L8.1365942,29.2444318 L5.41914865,28.9442624 C2.16795932,28.5849574 -0.183661837,25.6513819 0.176165435,22.4049116 L2.05101545,5.49512066 C2.41084272,2.24865038 5.34868248,-0.0995574237 8.59987181,0.259747564 L40.766181,3.81536984 C44.0173704,4.17467483 46.3689915,7.10825034 46.0091643,10.3547206 L44.1343142,27.2637631 C43.774487,30.5102333 40.8366472,32.8584411 37.5854579,32.4991361 L19.7665115,30.5296957 L4.44911429,37.2337279 L4.44911429,37.2337279 Z M8.41695961,1.90281933 C6.0735845,1.64382032 3.95585108,3.33704507 3.69647558,5.67701881 L1.82162557,22.5868098 C1.56225007,24.9275321 3.2579361,27.0421916 5.60131121,27.3011907 L10.6021607,27.8536221 L7.77751656,33.9707895 L19.5086353,28.837968 L37.7676204,30.8560644 C40.1109955,31.1150634 42.228729,29.4218386 42.4888541,27.0818649 L44.3629545,10.1720739 C44.62233,7.83210018 42.926644,5.71744062 40.5832688,5.45844161 L8.41695961,1.90281933 L8.41695961,1.90281933 Z" id="XMLID_1065_"></path>
                        </g>
                        <g id="XMLID_1060_" transform="translate(16.492083, 0.000000)">
                            <path d="M35.9429963,41.2429727 L26.1976743,34.0950491 L27.1782037,32.7626265 L33.4092126,37.3325368 L31.9923927,30.7460272 L36.9939918,31.2992072 C39.3373669,31.5582062 41.4551003,29.8649815 41.7144758,27.5250077 L43.5893258,10.6152167 C43.8487013,8.275243 42.1530153,6.15983488 39.8096402,5.90008732 L7.64258134,2.34446505 C5.29845659,2.08546603 3.18072316,3.77943934 2.92134767,6.11941307 L2.35312043,11.2454976 L0.707660302,11.0635994 L1.27588754,5.93751492 C1.63571481,2.6902961 4.57355456,0.34208829 7.82474389,0.701393278 L39.9918028,4.25701555 C43.2429921,4.61632054 45.5946132,7.54989606 45.234786,10.7971149 L43.359936,27.7069059 C43.0001087,30.9533761 40.0622689,33.301584 36.8110796,32.942279 L34.0928844,32.6421096 L35.9429963,41.2429727 L35.9429963,41.2429727 Z" id="XMLID_1063_"></path>
                        </g>
                    </g>
                    <g id="icon4_1_" transform="translate(1009.015643, -0.000000)">
                        <g id="XMLID_1034_" transform="translate(11.244602, 32.187738)">
                            <path d="M6.91318147,17.1628016 C4.85916746,17.5685168 2.85687861,16.2293572 2.45057365,14.1783245 L0.657434412,5.1275816 C0.251129451,3.07654896 1.59223568,1.07716641 3.64624969,0.671451196 C5.70026371,0.265735981 7.70255255,1.60489561 8.10885751,3.65592825 L9.90124711,12.7066712 C10.3083017,14.7577038 8.96719548,16.7570864 6.91318147,17.1628016 L6.91318147,17.1628016 Z M3.96784532,2.29281495 C2.80890164,2.52187188 2.05251473,3.64919128 2.28190462,4.80645276 L4.07429422,13.8571957 C4.30368411,15.0144572 5.43264217,15.7697462 6.59158585,15.5406893 C7.75052952,15.3116323 8.50616679,14.1843129 8.27752654,13.0270515 L6.4843873,3.97630853 C6.25574706,2.8197956 5.12678899,2.06375802 3.96784532,2.29281495 L3.96784532,2.29281495 Z" id="XMLID_1054_"></path>
                        </g>
                        <g id="XMLID_1030_" transform="translate(50.225890, 24.702218)">
                            <path d="M6.91018291,16.9494642 C4.8561689,17.3551795 2.85388005,16.0160198 2.44757509,13.9649872 L0.655185492,4.91424426 C0.24888053,2.86321162 1.58998676,0.863829075 3.64400077,0.458113859 C5.69801479,0.0523986441 7.70030363,1.39155828 8.10660859,3.44259091 L9.89974783,12.4933338 C10.3053032,14.545115 8.96419692,16.5444976 6.91018291,16.9494642 L6.91018291,16.9494642 Z M3.96484676,2.08022617 C2.80590308,2.3092831 2.04951617,3.4366025 2.27890606,4.59386398 L4.0720453,13.6446069 C4.30143519,14.8018684 5.43039325,15.5571574 6.58933693,15.3281005 C7.7482806,15.0990436 8.50466751,13.9717242 8.27527762,12.8144627 L6.48213838,3.76371975 C6.2527485,2.60645827 5.12379043,1.85116924 3.96484676,2.08022617 L3.96484676,2.08022617 Z" id="XMLID_1031_"></path>
                        </g>
                        <g id="XMLID_1026_" transform="translate(0.000000, 7.485521)">
                            <path d="M67.0298237,48.9942293 L16.698984,58.9342521 C12.2168855,59.8197892 7.84948202,56.8981905 6.96265772,52.4218492 L0.64843873,20.5440112 C-0.238385568,16.0684185 2.6867103,11.7066056 7.16880876,10.8210685 L57.4996485,0.881045772 C61.9817469,-0.00449131235 66.3506497,2.91710737 67.2367244,7.39270012 L73.5509434,39.2705381 C74.4377677,43.7468794 71.5119222,48.1094408 67.0298237,48.9942293 L67.0298237,48.9942293 Z M7.49040439,12.4439294 C3.90337627,13.1520597 1.56299971,16.6425579 2.27290894,20.2243795 L8.58712793,52.1022174 C9.29628751,55.684039 12.7911099,58.0217671 16.378138,57.3136369 L66.7089777,47.3736141 C70.2960059,46.6654838 72.637132,43.1749856 71.9272228,39.593164 L65.6130038,7.71532606 C64.9038443,4.13350446 61.4082722,1.79577639 57.8212441,2.50465519 L7.49040439,12.4439294 L7.49040439,12.4439294 Z" id="XMLID_1027_"></path>
                        </g>
                        <g id="XMLID_1020_" transform="translate(4.497841, 39.673259)">
                            <rect id="XMLID_1021_" transform="translate(4.401379, 1.641776) rotate(-11.186329) translate(-4.401379, -1.641776) " x="0.262621645" y="0.815001141" width="8.27751413" height="1.65354902"></rect>
                        </g>
                        <g id="XMLID_1018_" transform="translate(18.741004, 31.439186)">
                            <rect id="XMLID_1019_" transform="translate(16.983595, 4.719451) rotate(-11.186329) translate(-16.983595, -4.719451) " x="-0.123917592" y="3.89305057" width="34.2150244" height="1.65280046"></rect>
                        </g>
                        <g id="XMLID_1016_" transform="translate(57.722292, 27.696426)">
                            <rect id="XMLID_1017_" transform="translate(6.019790, 2.227239) rotate(-11.186329) translate(-6.019790, -2.227239) " x="0.500947813" y="1.40046467" width="11.037685" height="1.65354902"></rect>
                        </g>
                        <g id="XMLID_1014_" transform="translate(16.492083, -0.000000)">
                            <path d="M28.4548408,11.6901375 L26.8303706,12.0112663 L25.5919651,5.75935953 C25.1384328,3.46879024 22.9022562,1.97318322 20.6083574,2.42605722 L5.380917,5.43373939 C3.08701814,5.88661338 1.58923712,8.11954417 2.04276941,10.4101135 L3.28117494,16.6620203 L1.65670473,16.9831491 L0.418299204,10.7312423 C-0.212897803,7.5461533 1.86960254,4.44190791 5.05932138,3.81162708 L20.2867618,0.80394491 C23.4764806,0.173664077 26.5852383,2.25314169 27.2164353,5.4382307 L28.4548408,11.6901375 L28.4548408,11.6901375 Z" id="XMLID_1015_"></path>
                        </g>
                        <g id="XMLID_1012_" transform="translate(21.739564, 5.239864)">
                            <path d="M18.1420413,7.72954855 L16.5175711,8.05067738 L15.7042115,3.94337224 C15.4463353,2.64089166 14.174196,1.78978797 12.8690725,2.04803843 L4.29168986,3.74201174 C2.98656636,3.99951365 2.13422551,5.26980649 2.39285136,6.57228707 L3.20621092,10.6795922 L1.58174072,11.000721 L0.768381155,6.8934159 C0.332840227,4.69566706 1.7699004,2.55480817 3.97009424,2.12064798 L12.5474768,0.426674673 C14.7476707,-0.00823407264 16.8931408,1.42599167 17.3279321,3.62299196 L18.1420413,7.72954855 L18.1420413,7.72954855 Z" id="XMLID_1013_"></path>
                        </g>
                    </g>
                    <g id="icon3_1_" transform="translate(667.929374, 133.990818)">
                        <g id="XMLID_995_">
                            <path d="M47.6028992,41.23923 L30.4091527,34.6070587 L10.6209017,37.688099 C7.06760734,38.241279 3.72571155,35.8039935 3.17172748,32.2558567 L0.243633049,13.5016335 C-0.310351022,9.95349671 2.12972767,6.61645164 5.68302198,6.06327167 L41.3591464,0.509015399 C44.9124407,-0.0441645714 48.2543365,2.39237238 48.8083206,5.94050913 L51.736415,24.6947324 C52.2903991,28.2428691 49.85107,31.5806628 46.2970261,32.1338427 L43.151536,32.6233958 L47.6028992,41.23923 L47.6028992,41.23923 Z M5.93714999,7.69661226 C3.28642242,8.10906444 1.46479685,10.5994971 1.87859822,13.2463772 L4.80669265,32.0006005 C5.22049401,34.6482291 7.71379715,36.4672106 10.3652744,36.0540099 L30.5913153,32.9048514 L44.1320653,38.1274991 L40.6259983,31.3426232 L46.0413988,30.4997536 C48.6921264,30.0873014 50.5137519,27.5968687 50.0999506,24.9492401 L47.1718561,6.19501683 C46.7588044,3.54813675 44.2647516,1.72915525 41.614024,2.14235599 L5.93714999,7.69661226 L5.93714999,7.69661226 Z" id="XMLID_996_"></path>
                        </g>
                        <g id="XMLID_145_" transform="translate(10.494962, 13.473937)">
                            <g id="XMLID_171_" transform="translate(0.000000, 2.994208)">
                                <path d="M4.3876438,7.84183136 C2.35836791,8.15772033 0.44978409,6.76616205 0.133435947,4.73983163 C-0.182912197,2.71350121 1.21066884,0.80768767 3.23994473,0.491798702 C5.26997026,0.175909734 7.17780444,1.56746801 7.49415259,3.59379843 C7.81125037,5.62012885 6.41766933,7.52594239 4.3876438,7.84183136 L4.3876438,7.84183136 Z M3.49482238,2.12513929 C2.3673636,2.30104903 1.59298532,3.35875308 1.76915076,4.48532393 C1.94456655,5.61114623 3.00455772,6.3844005 4.13276615,6.20849077 C5.26097458,6.03258103 6.03460321,4.97487698 5.85843778,3.84830613 C5.68302198,2.72248383 4.62303081,1.94922956 3.49482238,2.12513929 L3.49482238,2.12513929 Z" id="XMLID_172_"></path>
                            </g>
                            <g id="XMLID_156_" transform="translate(10.494962, 1.497104)">
                                <path d="M4.6620121,7.66217886 C2.63273621,7.97806783 0.724152386,6.58650956 0.407804242,4.56017914 C0.0914560984,2.53384872 1.48503714,0.628035177 3.51431303,0.312146208 C5.54358891,-0.00374276029 7.45217274,1.38781552 7.76852088,3.41414594 C8.08561867,5.44047636 6.69203763,7.3462899 4.6620121,7.66217886 L4.6620121,7.66217886 Z M3.76919068,1.9454868 C2.64098225,2.12139653 1.86735362,3.17910059 2.04351905,4.30567144 C2.21968449,5.43149373 3.27967566,6.20474801 4.40713445,6.02883827 C5.53459323,5.85292854 6.30897151,4.79522448 6.13280607,3.66865364 C5.95739028,2.54283134 4.8973991,1.76957706 3.76919068,1.9454868 L3.76919068,1.9454868 Z" id="XMLID_157_"></path>
                            </g>
                            <g id="XMLID_146_" transform="translate(20.989924, 0.000000)">
                                <path d="M4.93638039,7.48252637 C2.90635486,7.79841534 0.998520681,6.40685706 0.682172537,4.38052664 C0.365824394,2.35419622 1.75940543,0.448382683 3.78868132,0.132493714 C5.81795721,-0.183395254 7.72654103,1.20816302 8.04288918,3.23449344 C8.35923732,5.26082386 6.96565628,7.1666374 4.93638039,7.48252637 L4.93638039,7.48252637 Z M4.04355897,1.7658343 C2.91535055,1.94174404 2.14172191,2.9994481 2.31788735,4.12601894 C2.49405278,5.25184124 3.55329431,6.02509551 4.68150274,5.84918578 C5.80896153,5.67327605 6.5833398,4.61557199 6.40717437,3.48900114 C6.23175857,2.36317885 5.1717674,1.58992457 4.04355897,1.7658343 L4.04355897,1.7658343 Z" id="XMLID_152_"></path>
                            </g>
                        </g>
                    </g>
                    <g id="icon2_1_" transform="translate(226.391326, 621.298208)">
                        <g id="XMLID_139_" transform="translate(0.000000, -0.000000)">
                            <path d="M55.3136978,32.8651781 L7.06086058,42.7258544 L0.338837348,9.9287945 L48.5916746,0.0681182373 L55.3136978,32.8651781 L55.3136978,32.8651781 Z M8.35099128,40.7751277 L53.3601356,31.57692 L47.3022935,2.01959345 L2.29314922,11.2178011 L8.35099128,40.7751277 L8.35099128,40.7751277 Z" id="XMLID_141_"></path>
                        </g>
                        <g id="XMLID_133_" transform="translate(0.749640, 0.748552)">
                            <polygon id="XMLID_138_" points="26.8371174 26.8662819 0.513503503 11.3046332 1.35684867 9.88163572 26.4697937 24.7284172 46.7288188 0.574139428 47.9979596 1.6363348"></polygon>
                        </g>
                    </g>
                    <g id="Icon1_1_" transform="translate(938.549469, 430.417433)">
                        <path d="M21.6458594,52.9069109 C21.5993817,52.9114022 21.5521543,52.9121508 21.5041774,52.9091566 L21.5034277,52.8904428 C21.3932306,52.8964312 21.2792853,52.8904428 21.1690882,52.8709804 L21.1675889,52.8777174 C19.0970828,52.6306952 0.916809904,49.4381207 0.293109299,13.9357937 C0.284113617,13.4365094 0.622201325,12.9948637 1.10796814,12.8721012 C1.21591632,12.8451533 11.9829978,10.0283519 15.6697281,1.44620258 C15.6862202,1.40952353 15.8443942,1.07716641 15.8848748,0.979106092 C16.076033,0.522489336 16.5617999,0.249267835 17.046817,0.319631729 C17.5378313,0.394486935 17.9171492,0.785979661 17.9628773,1.27927547 L17.980119,1.46940769 C23.2583353,9.04101176 34.133365,9.80004354 34.2435621,9.80678051 C34.7450713,9.83747114 35.1588727,10.2095015 35.2413331,10.7027973 C35.8627848,14.3744452 40.7421926,46.6153309 22.1301269,52.7339954 C21.9846967,52.8283129 21.8190262,52.8911913 21.6458594,52.9069109 L21.6458594,52.9069109 Z M2.4700643,14.7217733 C3.30216486,47.1265919 19.0783418,50.4209695 21.3310105,50.7241331 C23.4899741,50.0122601 38.391321,43.8801216 33.2465407,11.8742813 C30.5223484,11.5486611 22.1001413,10.051557 16.9703537,3.71506386 C13.1127055,10.8809527 5.0915559,13.9006117 2.4700643,14.7217733 L2.4700643,14.7217733 Z" id="XMLID_118_"></path>
                    </g>
                </g>
            </g>
        </g>
    </g>
</svg>