<?xml version="1.0" encoding="UTF-8" standalone="no"?>
<svg width="972px" height="705px" viewBox="0 0 972 705" version="1.1" xmlns="http://www.w3.org/2000/svg" xmlns:xlink="http://www.w3.org/1999/xlink">
    <!-- Generator: Sketch 39.1 (31720) - http://www.bohemiancoding.com/sketch -->
    <title>Parallax_Layer_Middle</title>
    <desc>Created with Sketch.</desc>
    <defs></defs>
    <g id="Page-1" stroke="none" stroke-width="1" fill="none" fill-rule="evenodd" opacity="0.298507463">
        <g id="Desktop-HD" transform="translate(-99.000000, -44.000000)" fill="#92FFFF">
            <g id="HEADER_SECTION" transform="translate(0.026861, 0.000000)">
                <g id="Parallax_Layer_Middle" transform="translate(99.702140, 44.164571)">
                    <g id="icon9m" transform="translate(886.824298, 619.801104)">
                        <g id="XMLID_2914_">
                            <path d="M6.34270532,45.9760674 C5.72050399,45.9760674 5.09830267,45.7395249 4.62378045,45.2656915 L1.41382132,42.0603916 C0.465526534,41.1134732 0.465526534,39.5737016 1.41382132,38.6267833 L13.719914,26.3370556 C12.1719071,23.7156263 11.3570483,20.7453717 11.3570483,17.6987649 C11.3570483,8.30144232 19.0138728,0.656480155 28.4241056,0.656480155 C37.835088,0.656480155 45.4911629,8.30144232 45.4911629,17.6987649 C45.4911629,27.0968359 37.8343384,34.7417981 28.4241056,34.7417981 C25.6871694,34.7417981 22.9772203,34.0733411 20.544638,32.8030483 L8.06312946,45.2656915 C7.58860725,45.7402735 6.96565628,45.9760674 6.34270532,45.9760674 L6.34270532,45.9760674 Z M28.423356,2.49118125 C20.0251373,2.49118125 13.192917,9.3134847 13.192917,17.6995134 C13.192917,20.6383288 14.0437586,23.5000433 15.6539856,25.9725108 L16.0595409,26.5953061 L2.71219807,39.9247726 C2.48055926,40.1568237 2.48055926,40.5325968 2.71219807,40.764648 L5.92215719,43.9699479 C6.153796,44.2012505 6.53236427,44.2012505 6.76325344,43.9699479 L20.2297891,30.5237073 L20.8407458,30.8747782 C23.1511368,32.2057037 25.773378,32.9085941 28.423356,32.9085941 C36.8215746,32.9085941 43.6537949,26.0855421 43.6537949,17.6995134 C43.6537949,9.3134847 36.8215746,2.49118125 28.423356,2.49118125 L28.423356,2.49118125 Z M28.4143603,29.8844438 C21.6810924,29.8844438 16.2027222,24.4140254 16.2027222,17.6912793 C16.2027222,10.9685333 21.6810924,5.49886342 28.4143603,5.49886342 C35.1483777,5.49886342 40.6259983,10.9677848 40.6259983,17.6912793 C40.6259983,24.4140254 35.1483777,29.8844438 28.4143603,29.8844438 L28.4143603,29.8844438 Z M28.4143603,7.33356451 C22.6931066,7.33356451 18.0393406,11.9798271 18.0393406,17.6912793 C18.0393406,23.4027315 22.6931066,28.0504913 28.4143603,28.0504913 C34.1356139,28.0504913 38.78938,23.4034801 38.78938,17.6912793 C38.78938,11.9790786 34.1356139,7.33356451 28.4143603,7.33356451 L28.4143603,7.33356451 Z" id="XMLID_2915_"></path>
                        </g>
                    </g>
                    <g id="icon8m" transform="translate(237.635928, 485.810286)">
                        <g id="XMLID_2909_" transform="translate(37.482008, -0.000000)">
                            <path d="M35.0171907,59.4312906 L28.4810782,62.5744607 L1.05474369,5.70546379 C0.186660398,3.90594464 0.94679551,1.73738933 2.74893043,0.870566043 C4.55106536,0.00374276029 6.72277287,0.762774547 7.59085617,2.56229369 L35.0171907,59.4312906 L35.0171907,59.4312906 Z M29.4840968,59.7127462 L32.1513164,58.4304765 L5.65678458,3.49349245 C5.30220479,2.75841433 4.41687977,2.44926233 3.68073314,2.80332746 C2.94533615,3.15739258 2.63498513,4.04143256 2.98956492,4.77651068 L29.4840968,59.7127462 L29.4840968,59.7127462 Z" id="XMLID_2910_"></path>
                        </g>
                        <g id="XMLID_2907_" transform="translate(0.000000, 7.485521)">
                            <polygon id="XMLID_2908_" points="51.7101776 22.0845314 10.0714154 42.1075504 15.8413957 25.6431478 0.204651761 20.1794664 40.8846242 0.618304 41.8164269 2.54956831 5.80596297 19.8658231 18.5760829 24.3279419 13.8091212 37.9306299 50.7783749 20.1532671"></polygon>
                        </g>
                    </g>
                    <g id="icon7m" transform="translate(885.325018, 46.410228)">
                        <g id="XMLID_2902_" transform="translate(0.000000, 5.239864)">
                            <path d="M38.1379427,42.3358587 L0.715906344,27.0811164 L11.778346,0.0209594576 L49.2003824,15.2757018 L38.1379427,42.3358587 L38.1379427,42.3358587 Z M2.53828155,26.3168447 L37.3725601,40.5161287 L47.3787568,16.0399735 L12.5444783,1.84068951 L2.53828155,26.3168447 L2.53828155,26.3168447 Z" id="XMLID_2903_"></path>
                        </g>
                        <g id="XMLID_2900_" transform="translate(11.244602, -0.000000)">
                            <polygon id="XMLID_2901_" points="14.5152822 12.0898643 11.8533101 5.52057143 3.35389003 2.0562725 1.56449899 6.43530204 0.270620094 5.90757284 2.58850744 0.23654245 12.9275444 4.45163909 15.8114101 11.5666264"></polygon>
                        </g>
                    </g>
                    <g id="icon6m" transform="translate(5.997121, 614.561240)">
                        <g id="XMLID_2766_" transform="translate(0.000000, 0.000000)">
                            <g id="XMLID_2895_">
                                <path d="M95.7942659,89.2303995 L0.89656962,41.7669592 C0.550985511,41.5940436 0.411552443,41.175603 0.584719318,40.8305206 L20.6128552,0.902753782 C20.7860221,0.557671283 21.2050709,0.4184406 21.5506551,0.591356126 L116.448351,48.0547965 C116.793935,48.227712 116.933369,48.6461526 116.760202,48.9912351 L96.7320658,88.9190019 C96.5588989,89.2640844 96.1398501,89.403315 95.7942659,89.2303995 L95.7942659,89.2303995 Z M2.14771903,40.8312691 L95.7957652,87.6696685 L115.197952,48.989738 L21.5499054,2.15059006 L2.14771903,40.8312691 L2.14771903,40.8312691 Z" id="XMLID_2896_"></path>
                            </g>
                            <g id="XMLID_2891_" transform="translate(19.490644, 5.988416)">
                                <path d="M8.54214952,11.3712543 L0.627448806,7.41291103 C0.281864697,7.2399955 0.142431629,6.8215549 0.315598503,6.4764724 L3.28867134,0.549437211 C3.46183822,0.204354712 3.88088706,0.065124029 4.22647117,0.238039554 L12.1411719,4.19638284 C12.486756,4.36929836 12.6261891,4.78773896 12.4530222,5.13282146 L9.47994935,11.0591081 C9.30678247,11.4049392 8.88773363,11.5441698 8.54214952,11.3712543 L8.54214952,11.3712543 Z M1.87859822,6.47796951 L8.5436488,9.81127182 L10.8907721,5.13207291 L4.22572153,1.7987706 L1.87859822,6.47796951 L1.87859822,6.47796951 Z" id="XMLID_2892_"></path>
                            </g>
                            <g id="XMLID_2887_" transform="translate(29.985606, 11.228281)">
                                <path d="M7.07360446,10.6466559 L0.859087613,7.53791922 C0.513503503,7.3650037 0.374070435,6.9465631 0.54723731,6.6014806 L3.52031015,0.674445404 C3.69347702,0.329362905 4.11252587,0.190132223 4.45810998,0.363047748 L10.6726268,3.47178444 C11.0182109,3.64469997 11.157644,4.06314057 10.9844771,4.40822307 L8.01140429,10.3352583 C7.83823742,10.6795922 7.41918857,10.8188229 7.07360446,10.6466559 L7.07360446,10.6466559 Z M2.10948738,6.6029777 L7.0743541,9.08667343 L9.42147741,4.40747452 L4.4566107,1.92377879 L2.10948738,6.6029777 L2.10948738,6.6029777 Z" id="XMLID_2888_"></path>
                            </g>
                            <g id="XMLID_2883_" transform="translate(38.981288, 15.719593)">
                                <path d="M6.8577081,10.5463499 L0.643191249,7.43761325 C0.29760714,7.26469772 0.158174072,6.84625712 0.331340947,6.50117462 L3.30441378,0.574139428 C3.47758066,0.22905693 3.8966295,0.0898262469 4.24221361,0.262741772 L10.4567305,3.37147847 C10.8023146,3.54439399 10.9417476,3.96283459 10.7685808,4.30791709 L7.79550793,10.2349523 C7.62234105,10.5800348 7.20329221,10.7192655 6.8577081,10.5463499 L6.8577081,10.5463499 Z M1.89359102,6.50267173 L6.85845774,8.98636746 L9.20558105,4.30716854 L4.24071433,1.82347281 L1.89359102,6.50267173 L1.89359102,6.50267173 Z" id="XMLID_2884_"></path>
                            </g>
                            <g id="XMLID_2879_" transform="translate(47.976970, 20.210906)">
                                <path d="M6.64181174,10.446044 L0.427294886,7.33730727 C0.0817107764,7.16439175 -0.0577222916,6.74595115 0.115444583,6.40086865 L3.08851742,0.473833453 C3.2616843,0.128750954 3.68073314,-0.0104797288 4.02631725,0.162435797 L10.2408341,3.27117249 C10.5864182,3.44408802 10.7258513,3.86252862 10.5526844,4.20761112 L7.57961156,10.1338978 C7.40644469,10.4797288 6.98739585,10.6189595 6.64181174,10.446044 L6.64181174,10.446044 Z M1.67769466,6.40236575 L6.64256138,8.88606148 L8.98968469,4.20686257 L4.02481797,1.72316684 L1.67769466,6.40236575 L1.67769466,6.40236575 Z" id="XMLID_2880_"></path>
                            </g>
                            <g id="XMLID_2875_" transform="translate(56.223011, 23.953666)">
                                <path d="M7.17555552,11.0950386 L0.961038673,7.98630191 C0.615454564,7.81338638 0.476021496,7.39494578 0.649188371,7.04986328 L3.62226121,1.12282809 C3.79542808,0.777745588 4.21447693,0.638514905 4.56006104,0.811430431 L10.7745779,3.92016713 C11.120162,4.09308265 11.2595951,4.51152325 11.0864282,4.85660575 L8.11335535,10.7836409 C7.94018848,11.1279749 7.52113963,11.2672056 7.17555552,11.0950386 L7.17555552,11.0950386 Z M2.21143844,7.05136039 L7.1770548,9.53505611 L9.52417812,4.8558572 L4.55856176,2.37216147 L2.21143844,7.05136039 L2.21143844,7.05136039 Z" id="XMLID_2876_"></path>
                            </g>
                            <g id="XMLID_2871_" transform="translate(65.218693, 28.444978)">
                                <path d="M6.95965916,10.9947326 L0.74514231,7.88599593 C0.3995582,7.7130804 0.260125132,7.2946398 0.433292007,6.94955731 L3.40636485,1.02252211 C3.57953172,0.677439612 3.99858056,0.53820893 4.34416467,0.711124455 L10.5586815,3.81986115 C10.9042656,3.99277668 11.0436987,4.41121728 10.8705318,4.75629978 L7.89745899,10.6825864 C7.72429211,11.0284175 7.30524327,11.1676482 6.95965916,10.9947326 L6.95965916,10.9947326 Z M1.99554208,6.95105441 L6.9604088,9.43475014 L9.30753211,4.75555122 L4.34266539,2.2718555 L1.99554208,6.95105441 L1.99554208,6.95105441 Z" id="XMLID_2872_"></path>
                            </g>
                            <g id="XMLID_2867_" transform="translate(74.214375, 32.936291)">
                                <path d="M6.7437628,10.8944267 L0.529245946,7.78568995 C0.183661837,7.61277443 0.0442287689,7.19433383 0.217395644,6.84925133 L3.19046848,0.922216135 C3.36363536,0.577133637 3.7826842,0.437902954 4.12826831,0.610818479 L10.3427852,3.71955518 C10.6883693,3.8924707 10.8278023,4.3109113 10.6546355,4.6559938 L7.68156262,10.583029 C7.50839575,10.9281115 7.08934691,11.0673422 6.7437628,10.8944267 L6.7437628,10.8944267 Z M1.77964572,6.85074843 L6.74526208,9.33444416 L9.09238539,4.65524525 L4.12676903,2.17154952 L1.77964572,6.85074843 L1.77964572,6.85074843 Z" id="XMLID_2868_"></path>
                            </g>
                            <g id="XMLID_2863_" transform="translate(82.460417, 37.427603)">
                                <path d="M7.27750658,10.7948692 L1.06298973,7.68613253 C0.717405624,7.51321701 0.577972556,7.0947764 0.751139431,6.74969391 L3.72421227,0.823407264 C3.89737914,0.478324765 4.31642799,0.339094082 4.6620121,0.512009608 L10.8765289,3.6207463 C11.2221131,3.79366183 11.3615461,4.21210243 11.1883793,4.55718493 L8.21530641,10.4842201 C8.04213954,10.8278055 7.62309069,10.9677848 7.27750658,10.7948692 L7.27750658,10.7948692 Z M2.31338951,6.75119101 L7.27825622,9.23488674 L9.62537954,4.55568782 L4.66051282,2.0719921 L2.31338951,6.75119101 L2.31338951,6.75119101 Z" id="XMLID_2864_"></path>
                            </g>
                            <g id="XMLID_2859_" transform="translate(23.238845, 19.462354)">
                                <path d="M7.31348931,10.6683639 L1.09897246,7.55962723 C0.753388352,7.38671171 0.613955283,6.96827111 0.787122158,6.62318861 L3.760195,0.696153414 C3.93336187,0.351070915 4.35241072,0.211840232 4.69799482,0.384755758 L10.9125117,3.49349245 C11.2580958,3.66640798 11.3975289,4.08484858 11.224362,4.42993108 L8.25128914,10.3562177 C8.0788719,10.7020488 7.65907342,10.8412795 7.31348931,10.6683639 L7.31348931,10.6683639 Z M2.34937223,6.62468571 L7.31423895,9.10838144 L9.66136226,4.42918253 L4.69649554,1.9454868 L2.34937223,6.62468571 L2.34937223,6.62468571 Z" id="XMLID_2860_"></path>
                            </g>
                            <g id="XMLID_2855_" transform="translate(14.992803, 14.971041)">
                                <path d="M7.12532963,10.9415854 L0.910812783,7.83284873 C0.565228674,7.65993321 0.425795606,7.24149261 0.59896248,6.89641011 L3.57203532,0.969374915 C3.74520219,0.624292416 4.16425104,0.485061734 4.50983515,0.657977259 L10.724352,3.76671396 C11.0699361,3.93962948 11.2093692,4.35807008 11.0362023,4.70315258 L8.06312946,10.6301878 C7.88996259,10.9745217 7.47091374,11.1137524 7.12532963,10.9415854 L7.12532963,10.9415854 Z M2.16121255,6.89790721 L7.12682891,9.38160294 L9.47395223,4.70240403 L4.50833587,2.2187083 L2.16121255,6.89790721 L2.16121255,6.89790721 Z" id="XMLID_2856_"></path>
                            </g>
                            <g id="XMLID_2851_" transform="translate(32.234526, 23.953666)">
                                <path d="M7.09759295,10.5688065 L0.883076098,7.46006981 C0.537491988,7.28715428 0.39805892,6.86871368 0.571225795,6.52363118 L3.54429863,0.59659599 C3.71746551,0.251513491 4.13651435,0.112282809 4.48209846,0.285198334 L10.6966153,3.39393503 C11.0421994,3.56685056 11.1816325,3.98529116 11.0084656,4.33037365 L8.03539278,10.2574088 C7.86297554,10.6017428 7.44317706,10.7409735 7.09759295,10.5688065 L7.09759295,10.5688065 Z M2.13347587,6.52512829 L7.09909223,9.00882402 L9.44621554,4.3296251 L4.48059918,1.84592937 L2.13347587,6.52512829 L2.13347587,6.52512829 Z" id="XMLID_2852_"></path>
                            </g>
                            <g id="XMLID_2847_" transform="translate(41.230208, 28.444978)">
                                <path d="M6.88169658,10.4685005 L0.667179734,7.35976383 C0.321595625,7.18684831 0.182162557,6.76840771 0.355329431,6.42332521 L3.32840227,0.496290014 C3.50156914,0.151207516 3.92061799,0.0119768329 4.2662021,0.184892358 L10.4807189,3.29362905 C10.8263031,3.46654458 10.9657361,3.88498518 10.7925693,4.23006768 L7.81949641,10.1571029 C7.64707918,10.5021854 7.22728069,10.6414161 6.88169658,10.4685005 L6.88169658,10.4685005 Z M1.91757951,6.42482231 L6.88244622,8.90851804 L9.22956954,4.22931913 L4.26470282,1.7456234 L1.91757951,6.42482231 L1.91757951,6.42482231 Z" id="XMLID_2848_"></path>
                            </g>
                            <g id="XMLID_2843_" transform="translate(50.225890, 32.936291)">
                                <path d="M6.66580022,10.3681946 L0.451283371,7.25945786 C0.105699261,7.08654233 -0.0337338068,6.66810173 0.139433068,6.32301923 L3.11250591,0.395984039 C3.28567278,0.0509015399 3.70472163,-0.0883291428 4.05030573,0.0845863825 L10.2648226,3.19332308 C10.6104067,3.3662386 10.7498398,3.7846792 10.5766729,4.1297617 L7.60360005,10.0567969 C7.43118281,10.4018794 7.01138433,10.5411101 6.66580022,10.3681946 L6.66580022,10.3681946 Z M1.70168314,6.32451634 L6.6672995,8.80821207 L9.01442281,4.12901315 L4.04880645,1.64531742 L1.70168314,6.32451634 L1.70168314,6.32451634 Z" id="XMLID_2844_"></path>
                            </g>
                            <g id="XMLID_2839_" transform="translate(58.471932, 36.679051)">
                                <path d="M7.19954401,11.0171892 L0.985027158,7.90845249 C0.639443049,7.73553697 0.500009981,7.31709637 0.673176855,6.97201387 L3.64624969,1.04572722 C3.81941657,0.700644726 4.23846541,0.561414043 4.58404952,0.734329569 L10.7985664,3.84306627 C11.1441505,4.01598179 11.2835835,4.43442239 11.1104167,4.77950489 L8.13734384,10.7065401 C7.9649266,11.0501255 7.54512812,11.1901047 7.19954401,11.0171892 L7.19954401,11.0171892 Z M2.23542693,6.97351097 L7.20029365,9.4572067 L9.54741696,4.77800779 L4.58255024,2.29431206 L2.23542693,6.97351097 L2.23542693,6.97351097 Z" id="XMLID_2840_"></path>
                            </g>
                            <g id="XMLID_2835_" transform="translate(67.467614, 41.170363)">
                                <path d="M6.98364764,10.9168832 L0.769130795,7.80814652 C0.423546685,7.63523099 0.284113617,7.21679039 0.457280492,6.87170789 L3.43035333,0.945421249 C3.6035202,0.60033875 4.02256905,0.461108068 4.36815316,0.634023593 L10.58267,3.74276029 C10.9282541,3.91567581 11.0676872,4.33411642 10.8945203,4.67919891 L7.92144747,10.6062341 C7.74903024,10.9505681 7.32923175,11.0897987 6.98364764,10.9168832 L6.98364764,10.9168832 Z M2.01953057,6.873205 L6.98439728,9.35690072 L9.3315206,4.67770181 L4.36665388,2.19400608 L2.01953057,6.873205 L2.01953057,6.873205 Z" id="XMLID_2836_"></path>
                            </g>
                            <g id="XMLID_2831_" transform="translate(76.463295, 45.661676)">
                                <path d="M6.76775128,10.8173258 L0.553234431,7.70858909 C0.207650322,7.53567357 0.0682172537,7.11723297 0.241384129,6.77215047 L3.21445697,0.845115273 C3.38762384,0.500032775 3.80667269,0.360802092 4.1522568,0.533717617 L10.3667736,3.64245431 C10.7123578,3.81536984 10.8517908,4.23381044 10.6786239,4.57889294 L7.70555111,10.5059281 C7.53313387,10.8502621 7.11333539,10.9894928 6.76775128,10.8173258 L6.76775128,10.8173258 Z M1.8036342,6.77364757 L6.76850092,9.2573433 L9.11562423,4.57814439 L4.15075751,2.09444866 L1.8036342,6.77364757 L1.8036342,6.77364757 Z" id="XMLID_2832_"></path>
                            </g>
                            <g id="XMLID_2827_" transform="translate(18.741004, 28.444978)">
                                <path d="M7.27375838,10.7319909 L1.05924153,7.62325416 C0.713657424,7.45033863 0.574224355,7.03189803 0.74739123,6.68681553 L3.72046407,0.759780339 C3.89363094,0.41469784 4.31267979,0.275467157 4.6582639,0.448382683 L10.8727807,3.55711938 C11.2183649,3.7300349 11.3577979,4.1484755 11.184631,4.493558 L8.21155821,10.4205932 C8.03914098,10.7656757 7.61934249,10.9049064 7.27375838,10.7319909 L7.27375838,10.7319909 Z M2.3096413,6.68831264 L7.27450802,9.17200837 L9.62163133,4.49280945 L4.65676462,2.00911372 L2.3096413,6.68831264 L2.3096413,6.68831264 Z" id="XMLID_2828_"></path>
                            </g>
                            <g id="XMLID_2823_" transform="translate(10.494962, 23.953666)">
                                <path d="M7.0855987,11.0044638 L0.871081855,7.89572711 C0.525497746,7.72281158 0.386064678,7.30437098 0.559231552,6.95928848 L3.53230439,1.03225329 C3.70547127,0.687170789 4.12452011,0.547940106 4.47010422,0.720855632 L10.6846211,3.82959233 C11.0302052,4.00250785 11.1696382,4.42094845 10.9964714,4.76603095 L8.02339853,10.6930661 C7.85023166,11.0381486 7.43118281,11.1773793 7.0855987,11.0044638 L7.0855987,11.0044638 Z M2.12148163,6.96078559 L7.08709799,9.44448131 L9.4342213,4.7652824 L4.46860494,2.28158667 L2.12148163,6.96078559 L2.12148163,6.96078559 Z" id="XMLID_2824_"></path>
                            </g>
                            <g id="XMLID_2819_" transform="translate(27.736686, 32.936291)">
                                <path d="M7.05786202,10.6316849 L0.84334517,7.52294818 C0.49776106,7.35003266 0.358327992,6.93159206 0.531494867,6.58650956 L3.5045677,0.659474363 C3.67773458,0.314391864 4.09678342,0.175161182 4.44236753,0.348076707 L10.6568844,3.4568134 C11.0024685,3.62972893 11.1419016,4.04816953 10.9687347,4.39325203 L7.99566185,10.3202872 C7.82324461,10.6653697 7.40344613,10.8046004 7.05786202,10.6316849 L7.05786202,10.6316849 Z M2.09374494,6.58800666 L7.0593613,9.07170239 L9.40648461,4.39250348 L4.44086825,1.90880775 L2.09374494,6.58800666 L2.09374494,6.58800666 Z" id="XMLID_2820_"></path>
                            </g>
                            <g id="XMLID_2815_" transform="translate(36.732367, 37.427603)">
                                <path d="M6.84196566,10.5321275 L0.627448806,7.42339076 C0.281864697,7.25047523 0.142431629,6.83203463 0.315598503,6.48695213 L3.28867134,0.559916939 C3.46183822,0.214834441 3.88088706,0.0756037578 4.22647117,0.248519283 L10.440988,3.35725598 C10.7865721,3.53017151 10.9260052,3.94861211 10.7528383,4.2936946 L7.77976548,10.2207298 C7.60734825,10.5650637 7.18754977,10.7042944 6.84196566,10.5321275 L6.84196566,10.5321275 Z M1.87784858,6.48844924 L6.8427153,8.97214497 L9.18983861,4.29294605 L4.22497189,1.80925032 L1.87784858,6.48844924 L1.87784858,6.48844924 Z" id="XMLID_2816_"></path>
                            </g>
                            <g id="XMLID_2811_" transform="translate(45.728049, 41.918915)">
                                <path d="M6.62606929,10.4318215 L0.411552443,7.32308478 C0.0659683333,7.15016926 -0.0734647348,6.73172866 0.0997021401,6.38664616 L3.07277498,0.459610964 C3.24594185,0.114528465 3.6649907,-0.0247022179 4.01057481,0.148213307 L10.2250917,3.25695 C10.5706758,3.42986553 10.7101088,3.84830613 10.536942,4.19338863 L7.56386912,10.1204238 C7.39145189,10.4655063 6.9716534,10.604737 6.62606929,10.4318215 L6.62606929,10.4318215 Z M1.66195221,6.38814326 L6.62756857,8.87183899 L8.97469188,4.19264008 L4.00907553,1.70894435 L1.66195221,6.38814326 L1.66195221,6.38814326 Z" id="XMLID_2812_"></path>
                            </g>
                            <g id="XMLID_2807_" transform="translate(53.974091, 45.661676)">
                                <path d="M7.15981308,11.0800676 L0.94529623,7.97133086 C0.599712121,7.79841534 0.460279053,7.37997474 0.633445927,7.03489224 L3.60651877,1.10785705 C3.77968564,0.762774547 4.19873448,0.623543864 4.54431859,0.79645939 L10.7588354,3.90519609 C11.1044196,4.07811161 11.2438526,4.49655221 11.0706857,4.84163471 L8.09761291,10.7686699 C7.92519567,11.1137524 7.50539719,11.2529831 7.15981308,11.0800676 L7.15981308,11.0800676 Z M2.195696,7.0371379 L7.16056272,9.52083362 L9.50768603,4.84163471 L4.54281931,2.35793898 L2.195696,7.0371379 L2.195696,7.0371379 Z" id="XMLID_2808_"></path>
                            </g>
                            <g id="XMLID_2803_" transform="translate(62.969773, 50.152988)">
                                <path d="M6.94391672,10.9805101 L0.729399867,7.87177344 C0.383815757,7.69885792 0.244382689,7.28041732 0.417549564,6.93533482 L3.3906224,1.00829962 C3.56378928,0.663217123 3.98283812,0.523986441 4.32842223,0.696901966 L10.5429391,3.80563866 C10.8885232,3.97855419 11.0279563,4.39699479 10.8547894,4.74207729 L7.88171655,10.6691125 C7.70929931,11.014195 7.28950083,11.1534257 6.94391672,10.9805101 L6.94391672,10.9805101 Z M1.97979964,6.93683192 L6.94466636,9.42052765 L9.29178967,4.74132873 L4.32692295,2.25763301 L1.97979964,6.93683192 L1.97979964,6.93683192 Z" id="XMLID_2804_"></path>
                            </g>
                            <g id="XMLID_2799_" transform="translate(71.965454, 54.644300)">
                                <path d="M12.976271,14.005409 L0.513503503,7.77221602 C0.167919394,7.59930049 0.0284863257,7.18085989 0.201653201,6.83577739 L3.17472604,0.908742198 C3.34789291,0.5636597 3.76694176,0.424429017 4.11252587,0.597344542 L16.5752934,6.83053753 C16.9208775,7.00345305 17.0603106,7.42189365 16.8871437,7.76697615 L13.9140708,13.6940113 C13.7416536,14.0390938 13.3218551,14.1783245 12.976271,14.005409 L12.976271,14.005409 Z M1.76390327,6.83652594 L12.9777703,12.4454265 L15.3248936,7.7662276 L4.11102659,2.15732703 L1.76390327,6.83652594 L1.76390327,6.83652594 Z" id="XMLID_2800_"></path>
                            </g>
                            <g id="XMLID_2795_" transform="translate(91.456098, 41.918915)">
                                <path d="M7.06161022,10.6945633 L0.84709337,7.58582655 C0.501509261,7.41291103 0.362076193,6.99447043 0.535243068,6.64938793 L3.50831591,0.723101288 C3.68148278,0.378018789 4.10053162,0.238788106 4.44611573,0.411703632 L10.6606326,3.52044033 C11.0062167,3.69335585 11.1456498,4.11179645 10.9724829,4.45687895 L7.99941005,10.3839141 C7.82624317,10.7282481 7.40719433,10.8674788 7.06161022,10.6945633 L7.06161022,10.6945633 Z M2.09749314,6.65088503 L7.0631095,9.13458076 L9.41023281,4.45538185 L4.44536609,1.97168612 L2.09749314,6.65088503 L2.09749314,6.65088503 Z" id="XMLID_2796_"></path>
                            </g>
                            <g id="XMLID_2791_" transform="translate(100.451780, 46.410228)">
                                <path d="M6.84571386,10.5950058 L0.631197007,7.48626913 C0.285612897,7.31335361 0.146179829,6.89491301 0.319346704,6.54983051 L3.29241954,0.622795312 C3.46558642,0.277712813 3.88463526,0.138482131 4.23021937,0.311397656 L10.4447362,3.42013435 C10.7903203,3.59304988 10.9297534,4.01149048 10.7565865,4.35657298 L7.78351369,10.2836082 C7.61034681,10.6279421 7.19129797,10.7671728 6.84571386,10.5950058 L6.84571386,10.5950058 Z M1.88159678,6.55132761 L6.84721314,9.03502334 L9.19433645,4.35582442 L4.22946973,1.8721287 L1.88159678,6.55132761 L1.88159678,6.55132761 Z" id="XMLID_2792_"></path>
                            </g>
                            <g id="XMLID_2787_" transform="translate(5.997121, 32.187738)">
                                <path d="M8.68383151,11.7904435 L0.769130795,7.83210018 C0.423546685,7.65918466 0.284113617,7.24074406 0.457280492,6.89566156 L3.43035333,0.968626363 C3.6035202,0.623543864 4.02256905,0.484313181 4.36815316,0.657228707 L12.2828539,4.61557199 C12.628438,4.78848751 12.767871,5.20692811 12.5947042,5.55201061 L9.62163133,11.4790458 C9.44846446,11.8241283 9.02866598,11.963359 8.68383151,11.7904435 L8.68383151,11.7904435 Z M2.01953057,6.89715866 L8.68458115,10.230461 L11.0317045,5.55126206 L4.36665388,2.21795975 L2.01953057,6.89715866 L2.01953057,6.89715866 Z" id="XMLID_2788_"></path>
                            </g>
                            <g id="XMLID_2783_" transform="translate(69.716534, 64.375477)">
                                <path d="M6.66954842,10.4655063 L0.455031572,7.35676963 C0.109447462,7.1838541 -0.029985606,6.7654135 0.143181269,6.420331 L3.11625411,0.493295806 C3.28942098,0.148213307 3.70846983,0.00898262469 4.05405394,0.18189815 L10.2685708,3.29063485 C10.6141549,3.46355037 10.753588,3.88199097 10.5804211,4.22707347 L7.60734825,10.1541087 C7.43418138,10.4991912 7.01438289,10.6384218 6.66954842,10.4655063 L6.66954842,10.4655063 Z M1.70543134,6.4218281 L6.67029806,8.90552383 L9.01742137,4.22632492 L4.05255466,1.74262919 L1.70543134,6.4218281 L1.70543134,6.4218281 Z" id="XMLID_2784_"></path>
                            </g>
                            <g id="XMLID_2779_" transform="translate(77.962576, 68.866789)">
                                <path d="M7.20329221,10.3652003 L0.988775359,7.25646365 C0.643191249,7.08354812 0.503758181,6.66510752 0.676925056,6.32002502 L3.64999789,0.39298983 C3.82316477,0.0479073317 4.24221361,-0.0913233511 4.58779772,0.0815921743 L10.8023146,3.19032887 C11.1478987,3.3632444 11.2873317,3.781685 11.1141649,4.1267675 L8.14109204,10.0538027 C7.96792516,10.3988852 7.54812668,10.5381159 7.20329221,10.3652003 L7.20329221,10.3652003 Z M2.23917513,6.32152213 L7.20404185,8.80521786 L9.55116516,4.12601894 L4.5855488,1.64232322 L2.23917513,6.32152213 L2.23917513,6.32152213 Z" id="XMLID_2780_"></path>
                            </g>
                            <g id="XMLID_2775_" transform="translate(86.958257, 72.609550)">
                                <path d="M6.98739585,11.014195 L0.772878995,7.90545828 C0.427294886,7.73254276 0.287861818,7.31410216 0.461028693,6.96901966 L3.43410153,1.04198446 C3.60726841,0.696901966 4.02631725,0.557671283 4.37190136,0.730586809 L10.5864182,3.8393235 C10.9320023,4.01223903 11.0714354,4.43067963 10.8982685,4.77576213 L7.92519567,10.7027973 C7.7520288,11.0471313 7.33223031,11.186362 6.98739585,11.014195 L6.98739585,11.014195 Z M2.02327877,6.97051676 L6.98889513,9.45421249 L9.33601844,4.77501358 L4.37040208,2.29131785 L2.02327877,6.97051676 L2.02327877,6.97051676 Z" id="XMLID_2776_"></path>
                            </g>
                            <g id="XMLID_2771_" transform="translate(86.208617, 50.901540)">
                                <path d="M12.2528683,23.1444811 L2.5690168,18.3006007 C2.22343269,18.1276852 2.08399962,17.7092446 2.25716649,17.3641621 L5.54283927,10.813583 L1.06598829,8.57466382 C0.728650227,8.40623961 0.586218598,7.99902729 0.74439267,7.656939 L3.97834028,0.690164997 C4.05780214,0.518746576 4.20323233,0.387749966 4.38239632,0.324871593 C4.56081068,0.262741772 4.7572164,0.275467157 4.92588543,0.359304988 L19.9201877,7.85904806 C20.2657718,8.03196358 20.4052049,8.45040418 20.232038,8.79548668 L13.1906681,22.8323349 C13.0175012,23.1774174 12.5977027,23.3173966 12.2528683,23.1444811 L12.2528683,23.1444811 Z M3.81941657,17.3656592 L12.2536179,21.5844986 L18.6690383,8.79548668 L4.94387679,1.93051576 L2.29764706,7.63073968 L6.79398869,9.87939006 C7.1395728,10.0523056 7.27900586,10.4707462 7.10583899,10.8158287 L3.81941657,17.3656592 L3.81941657,17.3656592 Z" id="XMLID_2772_"></path>
                            </g>
                            <g id="XMLID_2767_" transform="translate(16.492083, 37.427603)">
                                <path d="M51.1142137,33.0216255 L1.0007696,7.95710838 C0.655185492,7.78419285 0.515752424,7.36575225 0.688919299,7.02066975 L3.66199214,1.09363456 C3.83515901,0.748552058 4.25420786,0.609321375 4.59979197,0.782236901 L54.713236,25.846754 C55.0588202,26.0196695 55.1982532,26.4381101 55.0250863,26.7831926 L52.0520135,32.7102278 C51.8788466,33.0553103 51.4590481,33.194541 51.1142137,33.0216255 L51.1142137,33.0216255 Z M2.25116937,7.02216686 L51.115713,31.461643 L53.4628363,26.7824441 L4.59904232,2.34296794 L2.25116937,7.02216686 L2.25116937,7.02216686 Z" id="XMLID_2768_"></path>
                            </g>
                        </g>
                        <g id="XMLID_2764_" transform="translate(97.453220, 12.725385)">
                            <path d="M1.96930468,27.464375 L0.719654545,26.839334 L13.0025084,2.35269912 C13.8218651,0.718609976 15.8204057,0.0553928523 17.4568702,0.873560252 C19.0933346,1.69172765 19.7575158,3.68736744 18.9381591,5.32145658 L11.740864,19.670451 C11.2663418,20.6166208 11.6509072,21.7716366 12.5984524,22.2454701 C13.5459975,22.7193035 14.7026923,22.3352963 15.1772145,21.3891265 L22.6878592,6.41658824 C23.5072158,4.7824991 25.5057565,4.11928197 27.1422209,4.93744937 L27.4548209,5.09389675 C29.0912853,5.91206415 29.7554665,7.90770394 28.9361098,9.54179308 L21.5821399,24.2029337 C21.1076177,25.1491035 21.4921831,26.3041193 22.4397283,26.7779528 C23.3872734,27.2517862 24.5439682,26.867779 25.0184904,25.9216092 L35.2675705,5.48988079 L36.5172207,6.11492176 L26.2681405,26.5466502 C25.4487838,28.1807393 23.4502432,28.8439564 21.8137787,28.025789 C20.1773143,27.2076216 19.5131331,25.2119819 20.3324898,23.5778927 L27.6864597,8.91675211 C28.1609819,7.97058231 27.7764165,6.81556649 26.8288714,6.34173303 L26.5162714,6.18528565 C25.5687263,5.7114522 24.4120315,6.09545941 23.9375093,7.04162921 L16.4268646,22.0141675 C15.6075079,23.6482566 13.6089673,24.3114737 11.9725028,23.4933063 C10.3360384,22.6751389 9.67185723,20.6794992 10.4912139,19.04541 L17.688509,4.69641561 C18.1630312,3.75024581 17.7784658,2.59522998 16.8309207,2.12139653 C15.8833755,1.64756308 14.7266808,2.03157029 14.2521585,2.97774009 L1.96930468,27.464375 L1.96930468,27.464375 Z" id="XMLID_2765_"></path>
                        </g>
                        <g id="XMLID_2760_" transform="translate(128.938106, 12.725385)">
                            <path d="M5.9671356,8.14274929 L0.969284715,5.64258541 C0.623700605,5.46966989 0.484267537,5.05122929 0.657434412,4.70614679 L2.69120814,0.65124029 C2.86437502,0.306157792 3.28342386,0.166927109 3.62900797,0.339842634 L8.62685885,2.84000651 C8.97244296,3.01292203 9.11187603,3.43136263 8.93870916,3.77644513 L6.90493543,7.83135163 C6.73176855,8.17643413 6.31197007,8.31566481 5.9671356,8.14274929 L5.9671356,8.14274929 Z M2.21893485,4.70764389 L5.96788524,6.5827668 L7.37645908,3.77569658 L3.62750869,1.90057368 L2.21893485,4.70764389 L2.21893485,4.70764389 Z" id="XMLID_2761_"></path>
                        </g>
                        <g id="XMLID_2752_" transform="translate(132.686307, 7.485521)">
                            <path d="M1.59748316,7.86952778 C0.736146628,7.4383618 0.386064678,6.38889181 0.817857404,5.5288055 L2.90410594,1.36985027 C3.33589867,0.509763951 4.38689416,0.16019014 5.2482307,0.591356126 C6.10956723,1.02252211 6.45964918,2.0719921 6.02785645,2.93207841 L3.94160791,7.09103364 C3.51056483,7.95186851 2.45881969,8.30069377 1.59748316,7.86952778 L1.59748316,7.86952778 Z M4.62303081,1.83919241 C4.45361214,1.75460602 4.23921505,1.82571847 4.15450572,1.99489123 L2.06825718,6.15384647 C1.89808886,6.49294055 2.52328875,6.80508676 2.69270742,6.46599268 L4.77895596,2.30703744 C4.8636653,2.13786468 4.79244948,1.92377879 4.62303081,1.83919241 L4.62303081,1.83919241 Z" id="XMLID_2757_"></path>
                        </g>
                    </g>
                    <g id="icon5m" transform="translate(221.143844, 113.779913)">
                        <g id="XMLID_2747_" transform="translate(0.749640, 11.976833)">
                            <path d="M8.30601287,85.3566426 L0.774378276,83.046611 C0.405555322,82.9335796 0.197905,82.543584 0.311850303,82.1745478 L25.2681206,1.02925908 C25.3813162,0.660971467 25.7718787,0.453622547 26.1414513,0.56740246 L33.6730859,2.87743411 C34.0419089,2.99046547 34.2495592,3.38046109 34.1356139,3.74949726 L9.17934365,84.894786 C9.06614798,85.2630736 8.67558546,85.469674 8.30601287,85.3566426 L8.30601287,85.3566426 Z M1.85311045,81.9177945 L8.0488863,83.8176196 L32.5951034,4.00625061 L26.3993275,2.10642549 L1.85311045,81.9177945 L1.85311045,81.9177945 Z" id="XMLID_2748_"></path>
                        </g>
                        <g id="XMLID_2745_" transform="translate(4.497841, 13.473937)">
                            <rect id="XMLID_2746_" transform="translate(13.534161, 41.218304) rotate(17.074083) translate(-13.534161, -41.218304) " x="12.8355152" y="-0.964829241" width="1.39729135" height="84.3662662"></rect>
                        </g>
                        <g id="XMLID_2741_" transform="translate(23.988485, 6.736969)">
                            <path d="M12.005487,10.058294 L0.511254583,6.53336236 C0.142431629,6.420331 -0.0652186931,6.03033538 0.0487266098,5.66129921 L1.55400403,0.766517307 C1.6671997,0.398229695 2.05776221,0.190880775 2.42733481,0.304660688 L13.9215672,3.82959233 C14.2911398,3.94262369 14.4980405,4.33261931 14.3840952,4.70165548 L12.8788178,9.59643738 C12.7656221,9.96472499 12.3750596,10.1713254 12.005487,10.058294 L12.005487,10.058294 Z M1.58923712,5.40454586 L11.7476108,8.52001952 L12.8428351,4.95990594 L2.68446138,1.84443227 L1.58923712,5.40454586 L1.58923712,5.40454586 Z" id="XMLID_2742_"></path>
                        </g>
                        <g id="XMLID_2739_" transform="translate(26.987045, -0.000000)">
                            <path d="M1.57724288,8.78126419 L0.241384129,8.37180622 L1.65670473,3.77120527 C2.44082833,1.22163696 5.15602496,-0.215582993 7.70929931,0.566653908 C10.2625737,1.34963936 11.7011331,4.06089491 10.9170095,6.61046322 L9.80604281,10.2214784 C9.69809463,10.5710522 9.31202995,10.8540048 8.9544516,10.7716641 C8.59237541,10.6908205 8.3719812,10.2768712 8.42895386,9.91532056 C8.42520565,10.0253577 8.566138,10.3666974 8.92071779,10.4759861 L9.04815662,10.0672766 L8.4596891,9.84196246 L8.54514808,9.56350109 L8.47018406,9.52008507 L8.57138548,9.47816616 L9.57965149,6.19950814 C10.1373838,4.38576651 9.11412495,2.4559993 7.29699723,1.89907657 C5.48061914,1.34215384 3.54879647,2.36467595 2.9910642,4.17916614 L1.57724288,8.78126419 L1.57724288,8.78126419 Z" id="XMLID_2740_"></path>
                        </g>
                        <g id="XMLID_2737_" transform="translate(0.000000, 93.569007)">
                            <path d="M0.751889071,17.2735873 C0.749640151,17.2728387 0.74814087,17.2720902 0.74589195,17.2720902 C0.442287689,17.1762755 0.241384129,16.8865859 0.259375492,16.5684512 L1.14020267,0.731335361 L2.53528299,0.808436223 L1.80513348,13.9275596 L8.74605164,2.80482456 L9.93198236,3.54364544 L1.54950619,16.9764121 C1.38233644,17.2443938 1.05399405,17.3664077 0.751889071,17.2735873 L0.751889071,17.2735873 Z" id="XMLID_2738_"></path>
                        </g>
                        <g id="XMLID_2735_" transform="translate(0.749640, 101.803080)">
                            <rect id="XMLID_2736_" transform="translate(2.544323, 1.336623) rotate(17.074083) translate(-2.544323, -1.336623) " x="0.730992471" y="0.638991712" width="3.62666071" height="1.3952632"></rect>
                        </g>
                    </g>
                    <g id="icon4m" transform="translate(0.749640, -0.000000)">
                        <g id="XMLID_2706_" transform="translate(12.743883, 24.702218)">
                            <path d="M42.5630685,64.6816348 L35.6281474,68.416161 C35.2885605,68.5995562 34.8650138,68.4730509 34.6813519,68.1332083 L0.742143749,5.2930116 C0.558481912,4.95391752 0.685171098,4.53098561 1.02550773,4.34759035 L7.96042876,0.613064135 C8.30001575,0.429668881 8.72356243,0.556174179 8.90722427,0.896016813 L42.8471821,63.735465 C43.0300943,64.0753076 42.9034051,64.4982395 42.5630685,64.6816348 L42.5630685,64.6816348 Z M35.5801705,66.8561785 L41.284932,63.7841209 L8.00840573,2.17304662 L2.30364418,5.24510427 L35.5801705,66.8561785 L35.5801705,66.8561785 Z" id="XMLID_2731_"></path>
                        </g>
                        <g id="XMLID_2692_" transform="translate(8.995682, 19.462354)">
                            <path d="M14.1959355,6.09845362 L3.61251589,11.797929 C3.27217926,11.9813242 2.84938221,11.8540704 2.66572038,11.5149763 L0.232388447,7.00944147 C0.0487266098,6.67034739 0.175415795,6.24741548 0.515752424,6.06402022 L11.0991721,0.364544852 C11.4387591,0.181149598 11.8623057,0.307654896 12.0459676,0.64749753 L14.4792995,5.15303237 C14.6629613,5.492875 14.5362722,5.91580691 14.1959355,6.09845362 L14.1959355,6.09845362 Z M3.56453892,10.238695 L12.9177991,5.20168825 L11.1478987,1.92377879 L1.79388888,6.96153414 L3.56453892,10.238695 L3.56453892,10.238695 Z" id="XMLID_2703_"></path>
                        </g>
                        <g id="XMLID_2682_" transform="translate(0.000000, -0.000000)">
                            <path d="M12.2603647,25.2187188 L11.0302052,25.8811874 L1.24890049,7.77146747 C-0.0187410038,5.42400821 0.862086173,2.48444428 3.21295769,1.21864275 C5.5638292,-0.0471587796 8.50766607,0.832389888 9.77530757,3.17984914 L19.0640987,20.3785812 C19.2380152,20.7004586 19.1682987,21.1742921 18.8586973,21.3711613 C18.5408498,21.5485681 18.0978125,21.4377824 17.8789176,21.1436014 C17.9546313,21.2236965 18.2972168,21.3621786 18.6240599,21.1870174 L18.4216571,20.8097472 L17.8481823,21.0687462 L17.7094989,20.8127414 L17.6262889,20.835198 L17.6675191,20.734892 L8.5436488,3.84231771 C7.6418317,2.17229807 5.54733712,1.54650855 3.87488994,2.44701668 C2.20244276,3.3475248 1.5757436,5.43897925 2.4775607,7.10899889 L12.2603647,25.2187188 L12.2603647,25.2187188 Z" id="XMLID_2684_"></path>
                        </g>
                        <g id="XMLID_2675_" transform="translate(47.227329, 88.329143)">
                            <path d="M11.884795,16.4434431 C11.8832957,16.4441916 11.8810467,16.4456887 11.8795475,16.4464373 C11.5976828,16.5953991 11.2505994,16.5347664 11.0362023,16.298224 L0.359827272,4.55344217 L1.39433068,3.61550644 L10.2385852,13.3444375 L7.17855408,0.60033875 L8.53840132,0.275467157 L12.2333776,15.666446 C12.3068424,15.9748495 12.1636611,16.2937326 11.884795,16.4434431 L11.884795,16.4434431 Z" id="XMLID_2677_"></path>
                        </g>
                    </g>
                    <g id="icon3m" transform="translate(937.799829, 330.111458)">
                        <g id="XMLID_2621_" transform="translate(0.000000, -0.000000)">
                            <g id="XMLID_2663_" transform="translate(0.000000, 41.918915)">
                                <g id="XMLID_2666_">
                                    <path d="M13.3930709,8.42570196 L2.31263987,5.38732916 C0.997021401,5.02652707 0.220394204,3.66416232 0.581720757,2.35045346 C0.94304731,1.0367446 2.30739238,0.261244668 3.62301085,0.62204676 L14.7034419,3.66041956 C16.0190604,4.02122166 16.7956876,5.3835864 16.434361,6.69729526 C16.0730345,8.01100412 14.7086894,8.78650406 13.3930709,8.42570196 L13.3930709,8.42570196 Z M3.25268861,1.96794336 C2.67996354,1.81074743 2.08624854,2.14834441 1.92882411,2.72023818 C1.77139968,3.29213195 2.10948738,3.88498518 2.68221246,4.04218111 L13.7626435,7.08055392 C14.3353686,7.23774985 14.9290836,6.90015287 15.086508,6.3282591 C15.2439325,5.75636533 14.9058448,5.1635121 14.3331197,5.00631616 L3.25268861,1.96794336 L3.25268861,1.96794336 Z" id="XMLID_2668_"></path>
                                </g>
                            </g>
                            <g id="XMLID_2655_" transform="translate(0.000000, 47.158780)">
                                <g id="XMLID_2656_">
                                    <path d="M11.168139,7.34703845 L2.09749314,4.85959996 C0.781874677,4.49879787 0.00524748106,3.13643312 0.366574034,1.82272426 C0.727900586,0.509015399 2.09224566,-0.266484533 3.40786413,0.0943175593 L12.4785099,2.58175605 C13.7941284,2.94255814 14.5707556,4.30492289 14.2094291,5.61863175 C13.8481025,6.93234061 12.4837574,7.70784054 11.168139,7.34703845 L11.168139,7.34703845 Z M3.03754189,1.44021416 C2.46481682,1.28301823 1.87110182,1.62061521 1.71367738,2.19250898 C1.55625295,2.76440275 1.89434066,3.35725598 2.46706574,3.51445191 L11.5377116,6.0018904 C12.1104366,6.15908633 12.7041516,5.82148935 12.8615761,5.24959558 C13.0190005,4.67770181 12.6809128,4.08484858 12.1081877,3.92765265 L3.03754189,1.44021416 L3.03754189,1.44021416 Z" id="XMLID_2659_"></path>
                                </g>
                            </g>
                            <g id="XMLID_2623_" transform="translate(2.998561, 0.000000)">
                                <g id="XMLID_2624_">
                                    <path d="M11.2955778,43.533542 L2.89810882,41.2309959 C1.58324,40.8701938 0.807362442,39.5085776 1.168689,38.1948688 L1.41232204,37.3078346 C3.0787721,31.2483057 2.9798196,25.1738057 1.12595951,19.7415634 C0.0584719318,16.6133644 0.0787122158,13.2972788 1.1836818,10.1526116 C3.60426984,3.26144132 11.0954239,-0.887782741 18.2394945,0.705884591 C22.2680607,1.62136376 25.5732241,4.0204731 27.6534755,7.47354375 C29.7472205,10.9513166 30.3079513,15.0204456 29.2322177,18.9316301 C28.4113617,21.9161072 26.7074297,24.5180741 24.3040833,26.4538297 C19.4749015,30.3448033 16.0692863,35.502327 14.455311,41.3702266 L14.3353686,41.8051353 C13.9740421,43.1188442 12.6104466,43.8935956 11.2955778,43.533542 L11.2955778,43.533542 Z M18.5790815,2.22843948 C18.3661837,2.17005242 18.1495377,2.11690522 17.9313924,2.06675223 C11.4702439,0.625040968 4.69124806,4.37902954 2.50229882,10.6144682 C1.50152922,13.4612117 1.48203858,16.4614083 2.44757509,19.2909351 C4.39289128,24.9881648 4.50008983,31.346366 2.75942539,37.6768707 L2.51579235,38.5639049 C2.35836791,39.1357987 2.69570598,39.7279034 3.26768142,39.8843507 L11.6651504,42.1868969 C12.2371258,42.3433443 12.8300912,42.0064958 12.9875156,41.4353506 L13.107458,41.0004419 C14.7993959,34.8488411 18.3669333,29.4435466 23.4262547,25.3676807 C25.6002111,23.6153203 27.1414713,21.2618727 27.8843647,18.5618454 C28.8581472,15.0219427 28.3506409,11.3390666 26.4555506,8.19140517 C24.6863998,5.25408689 21.8887428,3.13643312 18.5790815,2.22843948 L18.5790815,2.22843948 Z" id="XMLID_2625_"></path>
                                </g>
                            </g>
                        </g>
                        <g id="XMLID_2617_" transform="translate(11.994242, 20.959458)">
                            <path d="M2.35836791,5.98916502 C0.837348048,5.57222152 -0.0599712121,3.99651944 0.357578352,2.47845586 C0.775127916,0.959643738 2.35312043,0.0636269249 3.87339066,0.480570421 C5.39366088,0.897513917 6.29172979,2.473216 5.87418022,3.99127957 C5.45663066,5.50934315 3.87863814,6.40610851 2.35836791,5.98916502 L2.35836791,5.98916502 Z M3.50306842,1.82571847 C2.72494195,1.61238113 1.91832915,2.07124354 1.7046817,2.84749203 C1.49103426,3.62374051 1.95056367,4.42993108 2.72794051,4.64326842 C3.50531734,4.85660575 4.31267979,4.39774334 4.52632723,3.62149486 C4.73997467,2.84524637 4.2811949,2.03905581 3.50306842,1.82571847 L3.50306842,1.82571847 Z" id="XMLID_2618_"></path>
                        </g>
                        <g id="XMLID_2615_" transform="translate(8.995682, 25.450770)">
                            <rect id="XMLID_2616_" transform="translate(3.441953, 8.481326) rotate(15.355120) translate(-3.441953, -8.481326) " x="2.7432906" y="0.519003263" width="1.39732472" height="15.924645"></rect>
                        </g>
                    </g>
                    <g id="icon2m" transform="translate(352.330871, 57.638508)">
                        <path d="M22.3984981,30.0004694 L21.6248694,29.715271 C18.4074139,28.5295646 2.27815642,22.3824551 0.655935132,17.758649 C-1.07273506,12.8324279 1.21816524,7.53118225 5.76248384,5.94125768 C8.92746456,4.83414919 12.3645646,5.81475239 14.7424232,8.17718268 C15.12399,4.84912023 17.1959954,1.94174404 20.3609761,0.834635545 C24.9052947,-0.755289026 30.0080952,1.95970929 31.7367654,6.88667893 C33.3589867,11.5097364 24.5979423,26.364752 22.8242937,29.2960819 L22.3984981,30.0004694 L22.3984981,30.0004694 Z M6.42216717,7.82236901 C2.91684983,9.04849728 1.17468612,13.2104467 2.53903119,17.0999232 C3.51806123,19.8912738 14.3923413,24.8579167 21.5401601,27.5564469 C25.4382889,20.9923939 30.8312001,10.3345097 29.8521701,7.54540474 C28.487825,3.65592825 24.5252272,1.4896186 21.0199098,2.71574687 C17.5145925,3.94187514 15.7724288,8.10382458 17.1367738,11.9933011 L15.2529281,12.6520269 C13.8900824,8.76255039 9.92748452,6.59624073 6.42216717,7.82236901 L6.42216717,7.82236901 Z" id="XMLID_2608_"></path>
                    </g>
                    <g id="icon1m" transform="translate(0.000000, 329.362905)">
                        <g id="XMLID_2595_" transform="translate(0.000000, 0.000000)">
                            <path d="M77.2826521,122.441409 L44.3187257,133.274454 C41.3291608,134.256554 38.0967125,132.627705 37.1131846,129.642479 L0.488765378,18.5176808 C-0.4947625,15.5324552 1.13645447,12.3046987 4.12601939,11.3225984 L37.0899457,0.489553046 C40.0795107,-0.492547254 43.311959,1.13630202 44.2954869,4.12152763 L80.9199061,115.246326 C81.9041836,118.231552 80.272217,121.459308 77.2826521,122.441409 L77.2826521,122.441409 Z M4.56230996,12.6482841 C2.30439382,13.3900992 1.07273506,15.8273847 1.81562845,18.0820235 L38.4400477,129.206822 C39.182941,131.461461 41.6237694,132.691332 43.8816855,131.949517 L76.8456119,121.116472 C79.103528,120.374656 80.3351868,117.937371 79.5922934,115.682732 L42.9678742,4.55793348 C42.2249808,2.30329468 39.7841524,1.07342365 37.5262363,1.81523874 L4.56230996,12.6482841 L4.56230996,12.6482841 Z" id="XMLID_2596_"></path>
                        </g>
                        <g id="XMLID_2511_" transform="translate(5.247481, 14.971041)">
                            <rect id="XMLID_2524_" transform="translate(21.371201, 8.065951) rotate(-18.215717) translate(-21.371201, -8.065951) " x="-0.640424572" y="7.36829014" width="44.0232511" height="1.39532111"></rect>
                        </g>
                        <g id="XMLID_2506_" transform="translate(8.246042, 14.222489)">
                            <path d="M6.92892391,6.44653032 L2.5037981,7.90096697 C2.13722407,8.02148385 1.74216371,7.82236901 1.62147165,7.45632705 L0.164920833,3.03762425 C0.0442287689,2.67158229 0.243633049,2.27709536 0.610207083,2.15657848 L5.03533289,0.70214183 C5.40190693,0.581624949 5.79696729,0.780739796 5.91765935,1.14678175 L7.37421016,5.56548455 C7.49490223,5.93227506 7.29549795,6.32601344 6.92892391,6.44653032 L6.92892391,6.44653032 Z M2.73018943,6.35745263 L5.82770253,5.33942183 L4.80819193,2.24640473 L1.71067882,3.26443552 L2.73018943,6.35745263 L2.73018943,6.35745263 Z" id="XMLID_2508_"></path>
                        </g>
                        <g id="XMLID_2496_" transform="translate(15.742443, 11.976833)">
                            <path d="M7.39744901,6.0752485 L2.9723232,7.52968515 C2.60574916,7.65020203 2.2106888,7.45108718 2.08999674,7.08504523 L0.633445927,2.66634243 C0.512753863,2.30030047 0.712158143,1.90581354 1.07873218,1.78529666 L5.50385799,0.33086001 C5.87043202,0.210343128 6.26549238,0.409457976 6.38618444,0.775499932 L7.84273526,5.19420273 C7.96342732,5.56024469 7.76402304,5.95398307 7.39744901,6.0752485 L7.39744901,6.0752485 Z M3.19871452,5.98542226 L6.29622763,4.96739146 L5.27671702,1.87437435 L2.17920392,2.89240515 L3.19871452,5.98542226 L3.19871452,5.98542226 Z" id="XMLID_2497_"></path>
                        </g>
                        <g id="XMLID_2492_" transform="translate(23.988485, 8.982625)">
                            <path d="M7.11633395,6.45177019 L2.69120814,7.90620684 C2.32463411,8.02672372 1.92957375,7.82760887 1.80888168,7.46156691 L0.352330871,3.04286412 C0.231638807,2.67682216 0.431043087,2.28233522 0.79761712,2.16181834 L5.22274293,0.707381695 C5.58931696,0.586864813 5.98437732,0.785979661 6.10506939,1.15202162 L7.5616202,5.57072441 C7.68231226,5.93676637 7.48290798,6.33125331 7.11633395,6.45177019 L7.11633395,6.45177019 Z M2.91759947,6.36194394 L6.01511257,5.34391314 L4.99560196,2.25089604 L1.89808886,3.26892684 L2.91759947,6.36194394 L2.91759947,6.36194394 Z" id="XMLID_2493_"></path>
                        </g>
                        <g id="XMLID_2462_" transform="translate(14.992803, 26.199322)">
                            <path d="M48.4072631,71.2299682 L23.9007769,79.2836398 C23.5342029,79.4041566 23.1391425,79.2050418 23.0184505,78.8389998 L0.139433068,9.42052765 C0.0187410038,9.05448569 0.218145284,8.65999876 0.584719318,8.53948188 L25.0912055,0.485810286 C25.4577795,0.365293404 25.8528399,0.564408252 25.9735319,0.930450208 L48.8525493,70.3489224 C48.9732414,70.7149644 48.7738371,71.1094513 48.4072631,71.2299682 L48.4072631,71.2299682 Z M24.1271683,77.7393769 L47.3060417,70.1221111 L24.8640645,2.02932463 L1.68519106,9.64659037 L24.1271683,77.7393769 L24.1271683,77.7393769 Z" id="XMLID_2478_"></path>
                        </g>
                        <g id="XMLID_2439_" transform="translate(38.981288, 99.557424)">
                            <path d="M27.0605102,5.88811049 L2.50229882,13.9582502 C2.13572479,14.0787671 1.74066443,13.8796523 1.61997237,13.5136103 L0.309601382,9.53655322 C0.188909318,9.17051126 0.388313598,8.77602433 0.754887632,8.65550745 L25.3138486,0.585367709 C25.6804226,0.464850828 26.075483,0.663965675 26.1961751,1.03000763 L27.5065461,5.00706472 C27.6264885,5.37385522 27.4278338,5.76759361 27.0605102,5.88811049 L27.0605102,5.88811049 Z M2.72869015,12.4154844 L25.9600384,4.78100199 L25.085958,2.1296306 L1.85460973,9.76411304 L2.72869015,12.4154844 L2.72869015,12.4154844 Z" id="XMLID_2440_"></path>
                        </g>
                        <g id="XMLID_2425_" transform="translate(41.230208, 107.042944)">
                            <path d="M27.214936,5.69348695 L2.65672469,13.7636267 C2.29015066,13.8841436 1.8950903,13.6850287 1.77439824,13.3189868 L0.464027253,9.34192968 C0.343335189,8.97588773 0.542739469,8.58140079 0.909313503,8.46088391 L25.4675248,0.390744174 C25.8340989,0.270227293 26.2291592,0.46934214 26.3498513,0.835384097 L27.6602223,4.81244118 C27.7809143,5.17923169 27.5815101,5.57297007 27.214936,5.69348695 L27.214936,5.69348695 Z M2.88311602,12.2201123 L26.1144643,4.58562991 L25.2403839,1.93425852 L2.0090356,9.56874096 L2.88311602,12.2201123 L2.88311602,12.2201123 Z" id="XMLID_2426_"></path>
                        </g>
                    </g>
                </g>
            </g>
        </g>
    </g>
</svg>