<?xml version="1.0" encoding="UTF-8" standalone="no"?>
<svg width="1149px" height="687px" viewBox="0 0 1149 687" version="1.1" xmlns="http://www.w3.org/2000/svg" xmlns:xlink="http://www.w3.org/1999/xlink">
    <!-- Generator: Sketch 39.1 (31720) - http://www.bohemiancoding.com/sketch -->
    <title>Parallax_Layer_Back</title>
    <desc>Created with Sketch.</desc>
    <defs></defs>
    <g id="Page-1" stroke="none" stroke-width="1" fill="none" fill-rule="evenodd" opacity="0.3">
        <g id="Desktop-HD" transform="translate(-147.000000, -90.000000)">
            <g id="HEADER_SECTION" transform="translate(0.026861, 0.000000)">
                <g id="Parallax_Layer_Back" transform="translate(0.000000, 0.000000)">
                    <rect id="Rectangle" x="-2.27373675e-13" y="0" width="1440" height="889"></rect>
                    <g id="icon6_1_" transform="translate(375.649957, 90.000000)" fill="#92FFFF">
                        <g id="XMLID_1103_" transform="translate(0.000000, 38.303060)">
                            <path d="M49.8446023,69.6723088 L37.7365734,71.765571 L35.9784568,62.4186668 C33.0056416,62.2472606 30.1007535,61.5989813 27.3187339,60.4843622 L21.5868743,68.3958593 L11.4816998,61.6688843 L17.3504128,53.5668296 C15.4564418,51.4745249 13.9470587,49.1236746 12.847237,46.5602423 L2.54627222,48.3413346 L0.36261154,36.7345498 L10.8883355,34.9151544 C11.0871225,32.2320251 11.7144505,29.6322049 12.7563343,27.1645302 L3.87784572,21.2534105 L10.895328,11.565609 L19.868715,17.5389712 C21.9384976,15.7808608 24.2420299,14.3579021 26.7373567,13.2988225 L24.7994328,3.00008718 L36.9084605,0.906824948 L38.8314005,11.1289541 C41.5994352,11.2496088 44.3185223,11.784894 46.9377164,12.7242766 L53.0571607,4.27653666 L63.1623352,11.0044692 L57.1807432,19.2626089 C59.1506328,21.2802226 60.7509185,23.5688305 61.9506332,26.0872567 L72.0967639,24.3329765 L74.2804245,35.9397613 L64.361051,37.6547808 C64.2641548,40.5227224 63.6737873,43.3169307 62.6019355,45.9847388 L70.7651903,51.4209006 L63.7477081,61.1077445 L55.6783526,55.7366979 C53.4447455,57.6958994 50.902469,59.2605794 48.0984729,60.4000955 L49.8446023,69.6723088 L49.8446023,69.6723088 Z M39.5156675,69.3084297 L47.2823472,67.9659074 L45.6091396,59.0700217 L46.4592289,58.7549791 C49.605858,57.5934388 52.4108531,55.8669283 54.7992944,53.6214114 L55.4515956,53.00952 L63.1952999,58.1641544 L67.6964778,51.9504404 L59.8858452,46.7488849 L60.2344717,45.9569691 C61.5240902,43.0421062 62.1743935,39.9500917 62.1703978,36.768065 L62.1693989,35.8823067 L71.7191684,34.2314448 L70.3186687,26.7862875 L60.6130662,28.4639615 L60.2724311,27.680664 C59.0337581,24.8347466 57.2526661,22.2914234 54.9791017,20.1186823 L54.3258016,19.4943424 L60.0936226,11.5320938 L53.6115668,7.21629652 L47.7468495,15.3116483 L46.9267281,14.988945 C44.0288326,13.8446411 40.9880901,13.2490285 37.8924065,13.2174285 L36.9813824,13.2068951 L35.1293665,3.36109352 L27.3626868,4.70361578 L29.224692,14.6001689 L28.3915845,14.9209571 C25.5576205,16.0135519 22.9773847,17.6060016 20.7218011,19.6533001 L20.0714977,20.2441248 L11.4487351,14.5044113 L6.94755719,20.7190828 L15.5003947,26.4137903 L15.1297917,27.2133666 C13.8661454,29.9300112 13.1648967,32.8343407 13.0430272,35.8459188 L13.0090636,36.6943316 L2.92386771,38.4380784 L4.32436737,45.8832357 L14.2557281,44.166301 L14.5773835,44.9955623 C15.6981828,47.8893585 17.375386,50.5025848 19.5620435,52.7643805 L20.1643982,53.3887203 L14.5514113,61.138387 L21.0334672,65.4532267 L26.5495579,57.8376208 L27.3896579,58.2053301 C30.4323982,59.5411494 33.6439577,60.2593317 36.9364306,60.3407257 L37.8344685,60.3637076 L39.5156675,69.3084297 L39.5156675,69.3084297 Z M41.0190569,54.936164 C30.5702506,56.7421532 20.5360001,50.0630571 18.6520184,40.0468069 C16.7680367,30.0305567 23.7355724,20.4117007 34.1843788,18.6057114 C44.6331852,16.7997222 54.6664367,23.4788183 56.5514173,33.4950685 C58.4353991,43.5113187 51.4678633,53.1301747 41.0190569,54.936164 L41.0190569,54.936164 Z M34.5759593,20.6874828 C25.3248699,22.2866355 19.1544801,30.8033209 20.8236919,39.6714369 C22.4919048,48.5395529 31.376387,54.4535454 40.6274764,52.8543926 C49.8785659,51.2552399 56.0479567,42.7385545 54.3797438,33.8704385 C52.711531,25.0023225 43.8270488,19.08833 34.5759593,20.6874828 L34.5759593,20.6874828 Z" id="XMLID_1104_"></path>
                        </g>
                        <g id="XMLID_1068_" transform="translate(59.935792, 0.000000)">
                            <path d="M43.0528781,58.9378762 L32.4901938,60.7639746 L30.9987915,52.8352411 C28.5634005,52.6810713 26.1799538,52.1496163 23.8944023,51.2494944 L19.0346085,57.9563602 L10.2190525,52.0883314 L15.19672,45.2167625 C13.6553712,43.4940823 12.4176971,41.568396 11.5046752,39.4732186 L2.77402823,40.9823592 L0.86906898,30.8569452 L9.79550623,29.3142895 C9.97131788,27.1204817 10.4847678,24.9927467 11.3238689,22.9693876 L3.79793134,17.9583897 L9.91937353,9.50681952 L17.5272234,14.5723992 C19.2284009,13.1427375 21.1123826,11.9802396 23.1472028,11.102142 L21.5049621,2.371917 L32.0676464,0.545818607 L33.6979,9.2099708 C35.961475,9.32104968 38.1860918,9.75961972 40.33479,10.5161052 L45.5242306,3.35151776 L54.3397866,9.22050414 L49.2692186,16.2203884 C50.8735,17.8817836 52.184096,19.757676 53.1780312,21.8135927 L61.783812,20.3255188 L63.6887712,30.4509328 L55.2797796,31.9045339 C55.1848813,34.2563418 54.7013992,36.54878 53.836326,38.7406726 L60.7609078,43.3504459 L54.6394656,51.8010585 L47.7957971,47.2468246 C45.9547694,48.8440622 43.8680049,50.1272148 41.5754609,51.0752155 L43.0528781,58.9378762 L43.0528781,58.9378762 Z M34.2692878,58.3068332 L40.4896241,57.2314748 L39.081133,49.7470569 L39.9312223,49.4320142 C42.5654003,48.4591165 44.9148834,47.013176 46.914741,45.1334533 L47.5670422,44.5215619 L54.0830617,48.8574683 L57.6881995,43.8809432 L51.11624,39.5076913 L51.4668643,38.7157756 C52.5467075,36.2768282 53.0921232,33.6875414 53.0881275,31.0206908 L53.0871286,30.1349325 L61.1235193,28.745489 L60.0017211,22.7826602 L51.8404641,24.1931703 L51.4988301,23.4098728 C50.4619409,21.0264648 48.9695397,18.8977723 47.0655794,17.0793345 L46.4112803,16.454037 L51.2670784,9.75100153 L46.0756399,6.29415035 L41.1429242,13.1044344 L40.3228028,12.7817312 C37.8944043,11.8241547 35.349131,11.3233421 32.756908,11.2974876 L31.8448851,11.2869542 L30.2865545,3.00200234 L24.0662182,4.07736075 L25.6325403,12.404446 L24.7984338,12.7261917 C22.4279733,13.6397197 20.267288,14.9736238 18.3763137,16.6896009 L17.7250115,17.2804256 L10.4717817,12.4484945 L6.86664387,17.4259772 L14.0649325,22.2196052 L13.6943295,23.0191815 C12.6364628,25.2934257 12.049092,27.7247125 11.9482001,30.246969 L11.9142365,31.0953818 L3.43132408,32.5614314 L4.55312231,38.5242603 L12.9121674,37.0792773 L13.2338228,37.9094962 C14.170819,40.3321647 15.5753144,42.520227 17.4083507,44.4143133 L18.0107054,45.0386532 L13.288764,51.5568765 L18.4802024,55.0127701 L23.1242274,48.6037105 L23.9633285,48.9714199 C26.5115985,50.0898693 29.2017167,50.6921849 31.9577641,50.7592153 L32.8548032,50.7812395 L34.2692878,58.3068332 L34.2692878,58.3068332 Z M34.3851637,40.9603349 C28.6682881,41.9485539 23.1771707,38.2944419 22.146275,32.8142316 C21.1153794,27.3340213 24.9282947,22.0702232 30.6451703,21.0820043 C36.3620459,20.0937853 41.8521644,23.7488548 42.88306,29.2290652 C43.9139557,34.7102331 40.1020393,39.972116 34.3851637,40.9603349 L34.3851637,40.9603349 Z M31.0367508,23.1637756 C26.5165932,23.945158 23.5018229,28.1058279 24.3169496,32.4398192 C25.1320764,36.7718953 29.4724266,39.6618612 33.9925843,38.8795212 C38.511743,38.0981387 41.5265133,33.9374688 40.7113865,29.6053927 C39.8962598,25.2714015 35.5559095,22.3823932 31.0367508,23.1637756 L31.0367508,23.1637756 Z" id="XMLID_1076_"></path>
                        </g>
                    </g>
                    <g id="icon5_1_" transform="translate(147.000000, 257.000000)" fill="#92FFFF">
                        <g id="XMLID_1064_" transform="translate(0.000000, 11.490918)">
                            <path d="M5.92864873,47.6308128 L10.8423847,37.4105988 L7.22126397,37.0266106 C2.88890516,36.5669739 -0.244737816,32.8142316 0.234748518,28.6612223 L2.7330721,7.02956911 C3.21255844,2.87655981 7.12736456,-0.127357675 11.4597234,0.332279046 L54.3228048,4.88076743 C58.6551636,5.34040416 61.7888066,9.09314647 61.3093203,13.2461558 L58.8109967,34.8768514 C58.3315104,39.0298607 54.4167042,42.0337782 50.0843454,41.5741414 L26.3397826,39.0547577 L5.92864873,47.6308128 L5.92864873,47.6308128 Z M11.2159845,2.43415947 C8.09332974,2.102838 5.27135288,4.26887605 4.92572315,7.2622602 L2.42739956,28.8939134 C2.08176983,31.8882551 4.34134918,34.5934087 7.46400393,34.9247302 L14.127865,35.6314217 L10.3638973,43.4567368 L25.9961507,36.8906348 L50.3270854,39.472261 C53.4497401,39.8035825 56.271717,37.6375444 56.6183456,34.6441603 L59.1156703,13.0125071 C59.4613,10.0191229 57.2017207,7.31396933 54.0790659,6.98264786 L11.2159845,2.43415947 L11.2159845,2.43415947 Z" id="XMLID_1065_"></path>
                        </g>
                        <g id="XMLID_1060_" transform="translate(21.976457, 0.000000)">
                            <path d="M47.8956901,52.7595926 L34.9096019,43.6156945 L36.2162021,41.9112084 L44.5193072,47.7572129 L42.6313297,39.3314973 L49.2961898,40.0391463 C52.4188445,40.3704678 55.2408214,38.2044297 55.5864511,35.2110456 L58.0847747,13.5793924 C58.4304044,10.5860082 56.1708251,7.87989704 53.0481703,7.54761799 L10.1840899,2.99912961 C7.06043626,2.66780814 4.2384594,4.83480376 3.89282967,7.82818791 L3.13564084,14.3856718 L0.94298979,14.1529807 L1.70017863,7.59549682 C2.17966496,3.44152995 6.09447109,0.437612462 10.4268299,0.897249183 L53.2909103,5.44573757 C57.6232691,5.90537429 60.7569121,9.65811661 60.2774257,13.8120835 L57.7791021,35.4437367 C57.2996158,39.596746 53.3848097,42.6006635 49.0524509,42.1410267 L45.4303312,41.7570386 L47.8956901,52.7595926 L47.8956901,52.7595926 Z" id="XMLID_1063_"></path>
                        </g>
                    </g>
                    <g id="icon4_1_" transform="translate(1197.000000, 257.000000)" fill="#92FFFF">
                        <g id="XMLID_1034_" transform="translate(14.983948, 41.175790)">
                            <path d="M9.21213119,21.9553141 C6.47506337,22.4743205 3.8069217,20.7612162 3.26550172,18.1374565 L0.876061489,6.55939904 C0.334641504,3.93563943 2.12172703,1.37795259 4.85879485,0.858946123 C7.59586267,0.339939658 10.2640043,2.05304402 10.8054243,4.67680364 L13.1938656,16.2548611 C13.7362845,18.8786208 11.949199,21.4363076 9.21213119,21.9553141 L9.21213119,21.9553141 Z M5.28733576,2.93305683 C3.74299019,3.22607524 2.73506996,4.66818545 3.0407425,6.14859872 L5.4291838,17.7266562 C5.73485634,19.2070695 7.23924471,20.1732642 8.78359028,19.8802458 C10.3279358,19.5872274 11.3348571,18.1451171 11.0301835,16.6647039 L8.64074331,5.08664638 C8.3360697,3.60719069 6.83168133,2.64003842 5.28733576,2.93305683 L5.28733576,2.93305683 Z" id="XMLID_1054_"></path>
                        </g>
                        <g id="XMLID_1030_" transform="translate(66.928301, 31.600025)">
                            <path d="M9.20813547,21.6824048 C6.47106765,22.2014112 3.80292598,20.4883069 3.261506,17.8645472 L0.873064699,6.28648974 C0.331644714,3.66273012 2.11873024,1.10504328 4.85579806,0.58603682 C7.59286588,0.0670303552 10.2610075,1.78013472 10.8024275,4.40389434 L13.1918678,15.9819518 C13.7322888,18.606669 11.9452033,21.1643559 9.20813547,21.6824048 L9.20813547,21.6824048 Z M5.28334004,2.6611051 C3.73899447,2.95412351 2.73107424,4.39623372 3.03674678,5.876647 L5.42618701,17.4547045 C5.73185955,18.9351178 7.23624792,19.9013125 8.78059349,19.608294 C10.3249391,19.3152756 11.3328593,17.8731654 11.0271867,16.3927521 L8.63774652,4.81469466 C8.33207398,3.33428138 6.82768561,2.36808669 5.28334004,2.6611051 L5.28334004,2.6611051 Z" id="XMLID_1031_"></path>
                        </g>
                        <g id="XMLID_1026_" transform="translate(0.000000, 9.575765)">
                            <path d="M89.3203125,62.6752973 L22.2521616,75.3909556 C16.27956,76.5237686 10.4597946,72.7863475 9.27806056,67.0600401 L0.864074331,26.2806871 C-0.317659696,20.5553372 3.58016463,14.9755389 9.55276627,13.8427259 L76.6209172,1.12706754 C82.5935188,-0.00574545902 88.4152821,3.73167563 89.5960172,9.45702554 L98.0100034,50.2363785 C99.1917374,55.962686 95.2929142,61.5434418 89.3203125,62.6752973 L89.3203125,62.6752973 Z M9.98130718,15.9187518 C5.20142779,16.8246192 2.08276876,21.2897984 3.02875534,25.8718019 L11.4427416,66.6511549 C12.3877292,71.2331585 17.0447402,74.2236699 21.8246196,73.3178025 L88.8927706,60.6021441 C93.6726499,59.6962768 96.7923079,55.2310975 95.8463213,50.649094 L87.4323351,9.86974101 C86.4873474,5.28773745 81.8293375,2.29722603 77.0494581,3.20405098 L9.98130718,15.9187518 L9.98130718,15.9187518 Z" id="XMLID_1027_"></path>
                        </g>
                        <g id="XMLID_1020_" transform="translate(5.993579, 50.699680)">
                            <rect id="XMLID_1021_" transform="translate(5.865039, 2.152097) rotate(-11.186329) translate(-5.865039, -2.152097) " x="0.34995538" y="1.09445517" width="11.030167" height="2.11528332"></rect>
                        </g>
                        <g id="XMLID_1018_" transform="translate(24.973247, 40.218213)">
                            <rect id="XMLID_1019_" transform="translate(22.631418, 6.037302) rotate(-11.186329) translate(-22.631418, -6.037302) " x="-0.165125872" y="4.98013961" width="45.5930884" height="2.11432575"></rect>
                        </g>
                        <g id="XMLID_1016_" transform="translate(76.917599, 35.430331)">
                            <rect id="XMLID_1017_" transform="translate(8.021647, 2.849170) rotate(-11.186329) translate(-8.021647, -2.849170) " x="0.667535922" y="1.79152811" width="14.7082212" height="2.11528332"></rect>
                        </g>
                        <g id="XMLID_1014_" transform="translate(21.976457, -0.000000)">
                            <path d="M37.9173797,14.9544722 L35.7526987,15.3652726 L34.1024666,7.36759361 C33.498114,4.43740951 30.5183062,2.52417166 27.4615808,3.10350545 L7.17031855,6.95104783 C4.11359317,7.53038162 2.11773131,10.3868323 2.72208387,13.3170164 L4.37231601,21.3146954 L2.20763499,21.7254957 L0.557402863,13.7278167 C-0.283696081,9.65332872 2.49133108,5.68225897 6.74177764,4.87597955 L27.0330399,1.02843716 C31.2834865,0.222157749 35.4260486,2.88230527 36.2671476,6.95679329 L37.9173797,14.9544722 L37.9173797,14.9544722 Z" id="XMLID_1015_"></path>
                        </g>
                        <g id="XMLID_1012_" transform="translate(28.968966, 6.703036)">
                            <path d="M24.1751016,9.88793497 L22.0104206,10.2987353 L20.9265817,5.04451302 C20.5829498,3.3783299 18.8877658,2.28956542 17.1486289,2.61992931 L5.71887346,4.78692494 C3.97973657,5.11633125 2.84395332,6.74133858 3.18858412,8.40752169 L4.27242302,13.661744 L2.10774201,14.0725443 L1.02390311,8.81832201 C0.443524859,6.0068774 2.3584734,3.2682086 5.29033255,2.71281423 L16.720088,0.545818607 C19.6519472,-0.0105333415 22.5108844,1.82418324 23.0902638,4.63467027 L24.1751016,9.88793497 L24.1751016,9.88793497 Z" id="XMLID_1013_"></path>
                        </g>
                    </g>
                    <g id="icon3_1_" transform="translate(1036.000000, 118.000000)" fill="#92FFFF">
                        <g id="XMLID_995_">
                            <path d="M63.4330452,52.7548047 L40.5215898,44.2706769 L14.1528383,48.2120618 C9.41791074,48.9197108 4.96468141,45.8018417 4.22647225,41.2629291 L0.324652205,17.2718074 C-0.413556963,12.7328948 2.83795974,8.46401871 7.57288728,7.75636967 L55.1129583,0.651152022 C59.8478859,-0.0564970137 64.3011152,3.0604145 65.0393244,7.59932713 L68.9411444,31.5904488 C69.6793536,36.1293614 66.4288358,40.3991951 61.6929093,41.1068441 L57.5013996,41.7330991 L63.4330452,52.7548047 L63.4330452,52.7548047 Z M7.91152451,9.8458016 C4.37930851,10.3734263 1.95190895,13.5592833 2.50331823,16.9452738 L6.40513827,40.9363955 C6.95654756,44.3233436 10.2789883,46.6502545 13.8122032,46.1216723 L40.7643298,42.0931479 L58.8079999,48.7741592 L54.1360049,40.0946857 L61.3522743,39.0164546 C64.8844903,38.4888299 67.3118898,35.3029729 66.7604805,31.9160248 L62.8586605,7.92490314 C62.3082501,4.53891262 58.9848105,2.21200172 55.4525945,2.74058395 L7.91152451,9.8458016 L7.91152451,9.8458016 Z" id="XMLID_996_"></path>
                        </g>
                        <g id="XMLID_145_" transform="translate(13.985018, 17.236377)">
                            <g id="XMLID_171_" transform="translate(0.000000, 3.830306)">
                                <path d="M5.84673648,10.0315714 C3.14263335,10.4356687 0.599357917,8.65553401 0.177809515,6.06337442 C-0.243738886,3.47121482 1.61327173,1.03322505 4.31737486,0.629127762 C7.02247693,0.225030478 9.56475343,2.0051652 9.98630183,4.59732479 C10.4088492,7.18948438 8.55183855,9.62747416 5.84673648,10.0315714 L5.84673648,10.0315714 Z M4.65701102,2.71855969 C3.1546205,2.94359017 2.12272596,4.29664577 2.35747447,5.7377984 C2.59122406,7.17799346 4.00371089,8.16716999 5.50710033,7.94213951 C7.01048977,7.71710904 8.04138539,6.36405344 7.80663687,4.9229008 C7.57288728,3.48270574 6.16040046,2.49352921 4.65701102,2.71855969 L4.65701102,2.71855969 Z" id="XMLID_172_"></path>
                            </g>
                            <g id="XMLID_156_" transform="translate(13.985018, 1.915153)">
                                <path d="M6.21234481,9.80175308 C3.50824168,10.2058504 0.964966247,8.42571565 0.543417845,5.83355605 C0.121869443,3.24139646 1.97888006,0.803406686 4.68298319,0.399309402 C7.38708633,-0.00478788251 9.93036176,1.77534684 10.3519102,4.36750643 C10.7744575,6.95966602 8.91744688,9.3976558 6.21234481,9.80175308 L6.21234481,9.80175308 Z M5.02261935,2.48874133 C3.5192299,2.71377181 2.48833429,4.06682741 2.7230828,5.50798004 C2.95783132,6.9481751 4.37031815,7.93735163 5.87270866,7.71232115 C7.37509917,7.48729067 8.40699372,6.13423508 8.1722452,4.69308244 C7.93849561,3.25288738 6.52600879,2.26371085 5.02261935,2.48874133 L5.02261935,2.48874133 Z" id="XMLID_157_"></path>
                            </g>
                            <g id="XMLID_146_" transform="translate(27.970036, 0.000000)">
                                <path d="M6.57795314,9.57193472 C3.87285107,9.97603201 1.33057458,8.19589729 0.909026174,5.60373769 C0.487477773,3.0115781 2.34448839,0.573588325 5.04859152,0.169491041 C7.75269466,-0.234606243 10.2959701,1.54552848 10.7175185,4.13768807 C11.1390669,6.72984766 9.28205628,9.16783744 6.57795314,9.57193472 L6.57795314,9.57193472 Z M5.38822768,2.25892297 C3.88483823,2.48395345 2.85394262,3.83700905 3.08869113,5.27816168 C3.32343965,6.71835674 4.73492755,7.70753327 6.23831699,7.48250279 C7.7407075,7.25747231 8.77260205,5.90441672 8.53785353,4.46326408 C8.30410394,3.02306902 6.89161712,2.03389249 5.38822768,2.25892297 L5.38822768,2.25892297 Z" id="XMLID_152_"></path>
                            </g>
                        </g>
                    </g>
                    <g id="icon2_1_" transform="translate(438.000000, 600.000000)" fill="#92FFFF">
                        <g id="XMLID_139_" transform="translate(0.000000, -0.000000)">
                            <path d="M73.7080377,42.0423964 L9.40892037,54.6565516 L0.451516298,12.7012947 L64.7506337,0.0871394617 L73.7080377,42.0423964 L73.7080377,42.0423964 Z M11.1280787,52.1611073 L71.1048265,40.3944072 L63.0324743,2.5835414 L3.05572645,14.3502415 L11.1280787,52.1611073 L11.1280787,52.1611073 Z" id="XMLID_141_"></path>
                        </g>
                        <g id="XMLID_133_" transform="translate(0.998930, 0.957577)">
                            <polygon id="XMLID_138_" points="35.7616891 34.3683783 0.684266955 14.4613203 1.80806305 12.6409674 35.2722134 31.6335398 62.2682929 0.734461178 63.9594812 2.09326223"></polygon>
                        </g>
                    </g>
                    <g id="Icon1_1_" transform="translate(1107.000000, 709.000000)" fill="#92FFFF">
                        <path d="M28.8440998,67.6805496 C28.7821661,67.6862951 28.7192335,67.6872527 28.655302,67.6834224 L28.6543031,67.659483 C28.5074604,67.6671436 28.3556231,67.659483 28.2087804,67.634586 L28.2067825,67.6432042 C25.4477382,67.3272039 1.22169122,63.2431401 0.390581576,17.8272018 C0.378594418,17.1884982 0.829111785,16.6235281 1.47641834,16.4664855 C1.62026424,16.4320128 15.9678938,12.8286524 20.8806309,1.8500378 C20.9026074,1.80311655 21.1133816,1.37795259 21.1673238,1.25251007 C21.4220509,0.668388399 22.0693574,0.318872975 22.7156651,0.408885167 C23.3699641,0.504642817 23.8754226,1.00545533 23.9363574,1.63649824 L23.9593327,1.87972267 C30.9927979,11.565609 45.4842734,12.5365916 45.6311161,12.5452098 C46.2994002,12.5844704 46.8508095,13.0603859 46.9606917,13.6914288 C47.7888046,18.3883416 54.2908391,59.6321191 29.4894085,67.4593495 C29.2956161,67.5800041 29.0748526,67.6604405 28.8440998,67.6805496 L28.8440998,67.6805496 Z M3.2914739,18.8326571 C4.40028604,60.2861439 25.422765,64.5004381 28.4245492,64.8882566 C31.3014672,63.9776013 51.158195,56.1331346 44.3025394,15.1900361 C40.6724283,14.7734903 29.4494513,12.8583373 22.6137742,4.75245218 C17.4732811,13.919332 6.78473162,17.7821957 3.2914739,18.8326571 L3.2914739,18.8326571 Z" id="XMLID_118_"></path>
                    </g>
                </g>
            </g>
        </g>
    </g>
</svg>