<?xml version="1.0" encoding="UTF-8" standalone="no"?>
<svg width="1056px" height="364px" viewBox="0 0 1056 364" version="1.1" xmlns="http://www.w3.org/2000/svg" xmlns:xlink="http://www.w3.org/1999/xlink">
    <!-- Generator: Sketch 39.1 (31720) - http://www.bohemiancoding.com/sketch -->
    <title>Parallax_Layer_Front</title>
    <desc>Created with Sketch.</desc>
    <defs></defs>
    <g id="Page-1" stroke="none" stroke-width="1" fill="none" fill-rule="evenodd" opacity="0.3">
        <g id="Desktop-HD" transform="translate(-244.000000, -230.000000)">
            <g id="HEADER_SECTION" transform="translate(0.026861, 0.000000)">
                <g id="Parallax_Layer_Front" transform="translate(0.000000, 0.000000)">
                    <rect id="Rectangle" x="0" y="0" width="1440" height="889"></rect>
                    <g id="icon5f_1_" transform="translate(274.973139, 230.000000)" fill="#92FFFF">
                        <g id="XMLID_1076_" transform="translate(0.000000, -0.000000)">
                            <path d="M21.8182766,112.594955 C21.6016306,112.50962 21.3872335,112.425034 21.175835,112.338202 C6.63356569,106.37823 -2.18295212,94.1918026 1.52326879,85.1747445 C3.36213608,80.6991517 7.98441725,77.7041949 14.5385211,76.741557 C20.7260509,75.8313177 27.8701215,76.7969498 34.6198814,79.6287223 L34.6198814,79.6287223 C41.2841824,82.3624344 47.0384202,86.6508891 50.8211044,91.7066097 C51.6539546,92.8197066 53.0257961,93.4020801 54.4066332,93.2291646 C55.7897193,93.054752 56.9771493,92.1482554 57.504896,90.862243 L94.2949856,1.35712488 C94.700541,0.370533269 95.8235019,-0.168424213 96.8205233,0.303163583 L101.419566,2.18726911 C101.654953,2.28607798 123.541446,11.6631896 130.760481,33.0785154 C133.127845,40.1096649 133.72081,47.796546 132.528882,55.928067 C132.397695,56.8061186 131.687036,57.4843067 130.799462,57.5711388 C129.917136,57.6542281 129.082786,57.1309902 128.788178,56.2926119 C128.398365,55.1997259 127.97107,54.1188167 127.508542,53.045393 C121.802281,39.8589 111.282581,30.6045509 98.6541431,27.6904377 C96.7957852,27.2600203 94.9209352,28.226401 94.1952835,29.9884925 L61.4202665,109.724258 C59.8857531,113.459533 54.2109771,115.892327 45.8524895,116.402839 C37.9175485,116.884907 29.1992335,115.499337 21.8182766,112.594955 L21.8182766,112.594955 Z M32.6235897,82.9957094 C26.7306685,80.6774437 20.37372,79.7919066 15.1007512,80.566658 C10.0286859,81.3129644 6.3854348,83.5264328 5.10504943,86.642655 C2.30814202,93.4484904 10.5024585,103.784497 22.6451297,108.760123 C29.6040392,111.627826 38.0127528,113.003664 45.6171025,112.541059 C52.9883141,112.092676 57.1188313,110.003468 57.8369866,108.25485 L90.6105043,28.5175877 C92.0618076,24.9934047 95.8115077,23.0613918 99.5282235,23.9229752 C112.102687,26.8303514 122.760321,35.4199863 129.249956,47.7299249 C129.230466,43.0207839 128.507063,38.5294715 127.086495,34.3098836 C120.437187,14.5773028 100.13993,5.84394592 99.9337789,5.75861098 L97.1406197,4.61332633 L61.0866766,92.3301536 C60.0319329,94.9006813 57.6593218,96.7166686 54.8938993,97.0654939 C52.1352236,97.4173134 49.3795464,96.2480751 47.7153452,94.0181385 C44.349461,89.5178435 39.174695,85.6770229 33.1468385,83.2060525 C32.9744213,83.133443 32.7982559,83.0645762 32.6235897,82.9957094 L32.6235897,82.9957094 Z" id="XMLID_1080_"></path>
                        </g>
                    </g>
                    <g id="icon4f_1_" transform="translate(243.973139, 465.000000)" fill="#92FFFF">
                        <g id="XMLID_1063_" transform="translate(0.000000, 0.000000)">
                            <path d="M62.4060433,128.223225 C61.7486089,128.353473 61.0686852,128.163341 60.5701745,127.714209 C51.378087,119.371597 5.29920623,76.6607134 0.9932732,54.9347384 C-3.92961367,30.0932898 12.3068424,5.88287062 37.1866493,0.966380707 C62.0664563,-3.95010921 86.3120677,12.2612827 91.2349545,37.1027313 C95.5371394,58.8122381 69.2262694,115.842174 63.9098214,127.053986 C63.6227092,127.658068 63.0634777,128.092977 62.4060433,128.223225 L62.4060433,128.223225 Z M38.0090046,5.11560476 C15.4200979,9.57922069 0.678424336,31.5597033 5.14852856,54.1143254 C8.19881433,69.5060528 36.8200753,100.181716 61.302573,122.6525 C75.3680711,92.5577134 90.1284857,53.3036435 87.0804488,37.9246415 C82.6103446,15.3700194 60.5964119,0.651988842 38.0090046,5.11560476 L38.0090046,5.11560476 Z M48.2206027,56.6436828 C38.3103599,58.601895 28.6527458,52.1426392 26.6909376,42.2430383 C24.7298789,32.3471801 31.1962749,22.7035839 41.1065177,20.7453717 C51.0167605,18.7871595 60.6758738,25.2441696 62.6369324,35.1400278 C64.5994904,45.0396288 58.1308455,54.6854706 48.2206027,56.6436828 L48.2206027,56.6436828 Z M41.9288729,24.8945958 C34.3095304,26.399934 29.3379169,33.8135936 30.8461929,41.4218767 C32.3544689,49.0324054 39.778905,54.0005455 47.3989971,52.4952073 C55.0190892,50.9898691 59.9914523,43.5717182 58.4831764,35.9611894 C56.9749004,28.3521577 49.548965,23.3892576 41.9288729,24.8945958 L41.9288729,24.8945958 Z" id="XMLID_1064_"></path>
                        </g>
                    </g>
                    <g id="icon3f_1_" transform="translate(424.973139, 384.000000)" fill="#92FFFF">
                        <g id="XMLID_1054_">
                            <path d="M136.372287,129.743534 L47.9020056,160.736583 L0.605709242,26.1207241 L73.7421016,0.499284223 L94.9674129,11.898235 L136.372287,129.743534 L136.372287,129.743534 Z M49.2693493,157.895828 L133.526653,128.378175 L93.1480362,13.4514805 L73.551693,2.92833565 L3.45134325,27.486083 L49.2693493,157.895828 L49.2693493,157.895828 Z" id="XMLID_1055_"></path>
                        </g>
                        <g id="XMLID_1033_" transform="translate(71.965454, 0.748552)">
                            <polygon id="XMLID_1034_" points="22.4367297 12.9866297 6.53161463 18.1366678 0.628198446 1.33391977 2.73468727 0.59659599 7.91619999 15.3445686 21.7478104 10.8659817"></polygon>
                        </g>
                        <g id="XMLID_1031_" transform="translate(28.486326, 38.176155)">
                            <rect id="XMLID_1032_" transform="translate(28.747588, 10.985423) rotate(-19.335472) translate(-28.747588, -10.985423) " x="-1.01699556" y="9.87082447" width="59.5291675" height="2.22919713"></rect>
                        </g>
                        <g id="XMLID_1029_" transform="translate(31.484886, 46.410228)">
                            <rect id="XMLID_1030_" transform="translate(28.705368, 11.164878) rotate(-19.335472) translate(-28.705368, -11.164878) " x="-1.05921619" y="10.0502799" width="59.5291675" height="2.22919713"></rect>
                        </g>
                        <g id="XMLID_1027_" transform="translate(34.483447, 54.644300)">
                            <rect id="XMLID_1028_" transform="translate(28.663779, 11.344086) rotate(-19.335472) translate(-28.663779, -11.344086) " x="-1.10080443" y="10.2294874" width="59.5291675" height="2.22919713"></rect>
                        </g>
                        <g id="XMLID_1021_" transform="translate(37.482008, 62.878373)">
                            <rect id="XMLID_1026_" transform="translate(28.621484, 11.523541) rotate(-19.335472) translate(-28.621484, -11.523541) " x="-1.14310002" y="10.4089428" width="59.5291675" height="2.22919713"></rect>
                        </g>
                        <g id="XMLID_1019_" transform="translate(40.480568, 71.860998)">
                            <rect id="XMLID_1020_" transform="translate(28.578940, 10.953738) rotate(-19.335472) translate(-28.578940, -10.953738) " x="-1.18564383" y="9.83913983" width="59.5291675" height="2.22919713"></rect>
                        </g>
                        <g id="XMLID_1017_" transform="translate(43.479129, 80.095070)">
                            <rect id="XMLID_1018_" transform="translate(28.536719, 11.133269) rotate(-19.335472) translate(-28.536719, -11.133269) " x="-1.22786446" y="10.0186701" width="59.5291675" height="2.22919713"></rect>
                        </g>
                        <g id="XMLID_1015_" transform="translate(46.477689, 88.329143)">
                            <rect id="XMLID_1016_" transform="translate(28.495131, 11.312401) rotate(-19.335472) translate(-28.495131, -11.312401) " x="-1.2694527" y="10.1978028" width="59.5291675" height="2.22919713"></rect>
                        </g>
                        <g id="XMLID_1013_" transform="translate(48.726610, 109.288600)">
                            <rect id="XMLID_1014_" transform="translate(9.647633, 4.830668) rotate(-19.335472) translate(-9.647633, -4.830668) " x="0.346059841" y="3.71606903" width="18.603146" height="2.22919713"></rect>
                        </g>
                    </g>
                    <g id="icon2f_1_" transform="translate(940.973139, 449.000000)" fill="#92FFFF">
                        <path d="M176.029751,105.843015 L13.842855,71.3459937 C4.87266098,69.4379345 -0.870332215,60.5982833 1.03975089,51.6411094 C2.95058363,42.6816898 11.8038338,36.9462839 20.7732782,38.8543431 L21.8212751,39.0774116 C21.8767485,38.7323291 21.9412176,38.3917379 22.0139327,38.0503982 C24.4150301,26.7936724 35.5404395,19.5888588 46.8135281,21.986471 L64.9630658,25.846754 C73.345542,7.30137677 93.4194059,-2.95678063 113.552491,1.32493714 C133.685577,5.60740347 147.829787,23.1437325 147.918245,43.4908746 L166.067783,47.3511575 C177.340122,49.7487698 184.556907,60.8550367 182.15581,72.1117625 C182.083095,72.4531022 182.003633,72.7906992 181.912926,73.1282962 L182.960923,73.3513647 C191.933366,75.2594239 197.677109,84.0998237 195.765527,93.0592433 C193.854694,102.015669 185.002194,107.751075 176.029751,105.843015 L176.029751,105.843015 Z M19.6855504,43.9564739 C13.532504,42.6480049 7.46116842,46.5831431 6.1500478,52.7272584 C4.83967681,58.8713737 8.77828617,64.9338968 14.9313325,66.2423658 L177.118228,100.739387 C183.271274,102.047856 189.344859,98.1157124 190.65523,91.9715971 C191.965601,85.8274819 188.024743,79.7619645 181.871696,78.4534955 L174.800341,76.9496544 L176.082975,74.0190731 C176.500525,73.0639207 176.825119,72.0571182 177.044763,71.0256135 C178.845399,62.5841919 173.431498,54.2520589 164.978555,52.4540369 L142.552321,47.6842632 L142.653522,45.473789 C143.51186,26.752502 130.814455,10.3315155 112.463264,6.42781652 C94.1120734,2.52411754 75.8148566,12.3533546 68.9608967,29.7991089 L68.1512854,31.8591241 L45.7250506,27.0893504 C37.2691097,25.2905798 28.9248652,30.6966228 27.1242296,39.1380443 C26.9060843,40.1598179 26.7913893,41.2130307 26.7838929,42.2639977 L26.7584052,45.4625607 L19.6855504,43.9564739 L19.6855504,43.9564739 Z" id="XMLID_1010_"></path>
                    </g>
                    <g id="icon1f_1_" transform="translate(1189.973139, 375.000000)" fill="#92FFFF">
                        <g id="XMLID_154_" transform="translate(0.000000, -0.000000)">
                            <g id="XMLID_173_" transform="translate(0.000000, -0.000000)">
                                <path d="M44.555612,65.9504305 C44.3337185,66.0642104 44.1073272,66.1727505 43.8786869,66.2782963 C38.7856318,68.6137787 33.0441378,68.3794819 28.1279977,65.6367872 C16.0370517,58.8930817 8.14184168,52.0303564 4.66351138,45.2409893 C-3.8703921,28.585706 -0.054723731,9.54029598 13.1711774,2.7838651 C26.396329,-3.97331432 44.0968322,4.07960872 52.6307357,20.734892 C56.2627422,27.82368 56.5461062,39.0834 53.4740809,54.1966661 C52.4298321,59.3332303 49.1966342,63.5797661 44.555612,65.9504305 L44.555612,65.9504305 Z M14.9883052,6.33125331 C3.72346263,12.0861215 0.685171098,28.7279309 8.21605605,43.4257505 C11.2858325,49.4164127 18.8444541,55.8936336 30.0755628,62.1590143 C33.8672427,64.2744225 38.2908693,64.4563206 42.2137362,62.65755 C46.0279053,60.8774932 48.7228616,57.52398 49.5617089,53.4061951 C52.4095919,39.3977919 52.2431717,28.7279309 49.0774414,22.5501307 C41.5465564,7.85231109 26.2531477,0.576385085 14.9883052,6.33125331 L14.9883052,6.33125331 Z" id="XMLID_994_"></path>
                            </g>
                            <g id="XMLID_171_" transform="translate(2.998561, 17.216697)">
                                <path d="M38.6049685,8.04992883 C18.4089132,18.3679704 0.428044526,3.98828536 0.227890606,3.82360391 L2.75642683,0.739569433 C3.56678784,1.39829524 22.8565282,16.6882196 43.1447892,0.337596978 L45.6523355,3.43735105 C43.2894698,5.34166749 40.9333508,6.86047961 38.6049685,8.04992883 L38.6049685,8.04992883 Z" id="XMLID_172_"></path>
                            </g>
                            <g id="XMLID_163_" transform="translate(5.247481, 52.398644)">
                                <path d="M104.373148,17.9847117 L4.78195452,68.8652922 L3.7639432,67.6084733 C3.52480799,67.3127953 -2.05626293,60.1925681 2.44982401,45.2245211 C6.19802477,32.7805917 22.4592189,24.6296084 28.281674,22.0703089 L23.6204115,12.9731557 L27.1737058,11.157917 L33.8275118,24.1437981 L31.7540071,24.9380118 C31.5373611,25.0158612 10.1936068,33.3457485 6.27223914,46.3705543 C3.48732598,55.618915 5.02858613,61.2712316 6.10881759,63.7092656 L99.4112797,16.0414706 C98.0686742,13.7501528 94.3811943,9.18997361 85.2303369,6.03108393 C72.3387753,1.57869629 53.1067572,13.9964264 52.9170982,14.1266744 L51.0594899,15.342323 L44.4049343,2.35419622 L47.9582286,0.538957482 L52.6194911,9.63611064 C58.1053577,6.42257666 74.2376138,-1.9829144 86.5362101,2.26511853 C101.330358,7.37174067 103.8484,16.0579387 103.948102,16.4239807 L104.373148,17.9847117 L104.373148,17.9847117 Z" id="XMLID_167_"></path>
                            </g>
                            <g id="XMLID_156_" transform="translate(29.985606, 59.884165)">
                                <path d="M26.933821,25.9455629 C17.8339392,30.5948197 6.60133117,28.1927162 0.224892045,20.2326136 L3.34114615,17.7444265 C8.53840132,24.2306301 17.6975047,26.1873452 25.1159436,22.3974261 C32.7705192,18.4869902 36.4752408,9.70872019 33.9234657,1.52554909 L37.733137,0.339842634 C40.8628846,10.3809199 36.3215646,21.1495898 26.933821,25.9455629 L26.933821,25.9455629 Z" id="XMLID_157_"></path>
                            </g>
                        </g>
                    </g>
                </g>
            </g>
        </g>
    </g>
</svg>