<?xml version="1.0" encoding="UTF-8" standalone="no"?>
<svg width="68px" height="114px" viewBox="0 0 68 114" version="1.1" xmlns="http://www.w3.org/2000/svg" xmlns:xlink="http://www.w3.org/1999/xlink">
    <!-- Generator: Sketch 39.1 (31720) - http://www.bohemiancoding.com/sketch -->
    <title>Bulb</title>
    <desc>Created with Sketch.</desc>
    <defs></defs>
    <g id="Page-1" stroke="none" stroke-width="1" fill="none" fill-rule="evenodd">
        <g id="Desktop-HD" transform="translate(-247.000000, -1029.000000)" stroke-width="2" stroke="#92FFFF">
            <g id="Group-6" transform="translate(172.000000, 979.000000)">
                <g id="Group-3">
                    <g id="Bulb" transform="translate(108.500000, 108.500000) rotate(-225.000000) translate(-108.500000, -108.500000) translate(58.000000, 58.000000)">
                        <g id="Group" transform="translate(-0.000000, 0.000000)">
                            <g id="Layer_1" transform="translate(-0.000000, 0.000000)">
                                <g id="Group" transform="translate(-0.000000, 0.000000)">
                                    <g transform="translate(-0.000000, 14.532738)" id="Shape">
                                        <path d="M9.77063722,30.0544729 C-3.33756916,43.1626814 -2.95763909,64.6512888 10.9104302,77.273699 C22.7999422,88.0952708 41.3574329,88.5201576 53.6914226,78.2080537 C61.8945978,71.3496011 65.7855485,61.544494 65.4024944,51.8701958 C65.1036124,44.3217364 66.827656,36.833162 70.7808779,30.3957253 L74.0257523,25.1117708 L60.8452153,11.931236 L55.5686293,15.1715839 C49.0742054,19.1598035 41.515058,20.805377 33.898172,20.5475677 C25.1999846,20.2531568 16.4122421,23.4128678 9.77063722,30.0544729 L9.77063722,30.0544729 Z"></path>
                                        <path d="M22.9511742,72.8912127 C22.9511742,72.8912127 35.9372777,80.1261821 50.9598146,67.9485153"></path>
                                        <path d="M76.8973261,2.04583458 L83.9111548,9.05965885 C86.5239739,11.6724759 86.5239739,15.9086877 83.9111548,18.5215047 L75.6733198,26.7593398 L59.1976497,10.2836696 L67.4354847,2.04583458 C70.0483041,-0.566982426 74.2845159,-0.566982426 76.8973261,2.04583458 L76.8973261,2.04583458 Z"></path>
                                    </g>
                                    <polyline id="Shape" points="77.3208887 0.102901105 69.0830536 8.34073616 92.1489901 31.4066738 100.386825 23.1688388"></polyline>
                                </g>
                            </g>
                        </g>
                    </g>
                </g>
            </g>
        </g>
    </g>
</svg>