<?xml version="1.0" encoding="UTF-8" standalone="no"?>
<svg width="486px" height="464px" viewBox="0 0 486 464" version="1.1" xmlns="http://www.w3.org/2000/svg" xmlns:xlink="http://www.w3.org/1999/xlink">
    <!-- Generator: Sketch 39.1 (31720) - http://www.bohemiancoding.com/sketch -->
    <title>Trinity</title>
    <desc>Created with Sketch.</desc>
    <defs>
        <linearGradient x1="50%" y1="-1.11022302e-14%" x2="50%" y2="100%" id="linearGradient-1">
            <stop stop-color="#643DDB" stop-opacity="0" offset="0%"></stop>
            <stop stop-color="#643DDB" offset="50.5102041%"></stop>
            <stop stop-color="#643DDB" stop-opacity="0" offset="100%"></stop>
        </linearGradient>
        <linearGradient x1="50%" y1="0%" x2="50%" y2="100%" id="linearGradient-2">
            <stop stop-color="#643DDB" stop-opacity="0" offset="0%"></stop>
            <stop stop-color="#643DDB" offset="50.5102041%"></stop>
            <stop stop-color="#643DDB" stop-opacity="0" offset="100%"></stop>
        </linearGradient>
        <linearGradient x1="50%" y1="100%" x2="50%" y2="0%" id="linearGradient-3">
            <stop stop-color="#643DDB" offset="0%"></stop>
            <stop stop-color="#643DDB" stop-opacity="0" offset="100%"></stop>
        </linearGradient>
        <linearGradient x1="50%" y1="0%" x2="50%" y2="100%" id="linearGradient-4">
            <stop stop-color="#643DDB" offset="0%"></stop>
            <stop stop-color="#643DDB" stop-opacity="0" offset="100%"></stop>
        </linearGradient>
    </defs>
    <g id="Page-1" stroke="none" stroke-width="1" fill="none" fill-rule="evenodd">
        <g id="Desktop-HD" transform="translate(-174.000000, -1996.000000)">
            <g id="Trinity" transform="translate(125.000000, 1954.000000)">
                <g id="Group-19">
                    <g id="Group-21" transform="translate(89.000000, 124.000000)">
                        <g id="Group-17" transform="translate(116.992039, 138.047331)" stroke="#643DDB" stroke-width="2" stroke-linecap="square">
                            <path d="M0.0349826448,0 L81.0797441,46.8613635" id="Line"></path>
                            <path d="M81.9082933,0.557276317 L163.144944,47.4186398" id="Line-Copy-9" transform="translate(122.472915, 23.962882) scale(-1, 1) translate(-122.472915, -23.962882) "></path>
                        </g>
                        <g id="Group-17-Copy-2" transform="translate(36.864375, 184.858542)" stroke-width="2" stroke-linecap="square">
                            <path d="M0,0 L282.476036,163.332114" id="Line" stroke="url(#linearGradient-1)"></path>
                            <path d="M41.6825026,0 L324.158539,163.332114" id="Line-Copy-9" stroke="url(#linearGradient-2)" transform="translate(182.920521, 81.666057) scale(-1, 1) translate(-182.920521, -81.666057) "></path>
                        </g>
                        <g id="Group-17-Copy" transform="translate(199.139196, 148.035042) scale(1, -1) translate(-199.139196, -148.035042) translate(0.139196, 90.035042)" stroke-width="2" stroke-linecap="square">
                            <path d="M0,-1.23789088e-12 L198.649833,115.356198" id="Line" stroke="url(#linearGradient-3)"></path>
                            <path d="M199.610445,0.0799894467 L397.039858,114.798028" id="Line-Copy-9" stroke="url(#linearGradient-4)" transform="translate(298.325152, 57.439009) scale(1, -1) translate(-298.325152, -57.439009) "></path>
                        </g>
                        <g id="Group-22" transform="translate(117.000000, 91.000000)">
                            <polygon id="Rectangle-33" fill="#E0D6FF" points="0.70844684 47.0473297 81.2325868 0.569204192 161.649291 47.0473297 81.9452587 93.1501167"></polygon>
                            <polygon id="Rectangle-33-Copy" fill="#CFC4F3" points="82.3379446 95.4025728 161.370206 49.8759527 161.509436 140.305625 82.3379446 186.055854"></polygon>
                        </g>
                        <g id="Group-23" transform="translate(116.000000, 0.000000)" stroke-width="2" stroke-linecap="square">
                            <path d="M82.353432,186.94144 L82.353432,278.735142" id="Line" stroke="#643DDB"></path>
                            <path d="M163.59398,-6.18700998e-17 L163.59398,324.334817" id="Line-Copy-11" stroke="url(#linearGradient-2)"></path>
                            <path d="M1.11288422,0.370698891 L1.11288422,324.705516" id="Line-Copy-10" stroke="url(#linearGradient-2)"></path>
                        </g>
                    </g>
                    <g id="Group-20" transform="translate(338.000000, 284.000000)">
                        <g id="Group-18" transform="translate(120.091569, 115.318185) rotate(-22.000000) translate(-120.091569, -115.318185) translate(26.091569, 29.318185)" stroke="#E0D6FF" stroke-width="2">
                            <path d="M85.6920846,166.068343 C129.945371,166.068343 165.819748,130.140183 165.819748,85.8205529 C165.819748,41.5009224 129.945371,5.57276317 85.6920846,5.57276317 C41.438798,5.57276317 5.56442108,41.5009224 5.56442108,85.8205529" id="Oval-20-Copy-3" transform="translate(85.692085, 85.820553) rotate(-94.000000) translate(-85.692085, -85.820553) "></path>
                            <polyline id="Shape" transform="translate(164.266260, 69.747065) rotate(-3.000000) translate(-164.266260, -69.747065) " points="141.096649 58.9179514 165.072762 80.5761795 187.435871 58.9179514"></polyline>
                        </g>
                        <g id="Group-16-Copy" transform="translate(89.455998, 97.304463)" font-size="17.8018876" fill="#643DDB">
                            <text id="Green" font-family="Roboto-Regular, Roboto" font-weight="normal">
                                <tspan x="0.0360141542" y="17">Green</tspan>
                            </text>
                            <text id="Pass" font-family="Roboto-LightItalic, Roboto" font-style="italic" font-weight="300">
                                <tspan x="5.11681296" y="38.1765001">Pass</tspan>
                            </text>
                        </g>
                    </g>
                    <g id="Group-11" transform="translate(0.000000, 286.000000)">
                        <g id="Group-16-Copy-2" transform="translate(85.800544, 95.304463)" font-size="17.8018876" fill="#643DDB">
                            <text id="Refactor" font-family="Roboto-Regular, Roboto" font-weight="normal">
                                <tspan x="0.803601398" y="17">Refactor</tspan>
                            </text>
                            <text id="Improve" font-family="Roboto-LightItalic, Roboto" font-style="italic" font-weight="300">
                                <tspan x="3.87212628" y="38.1765001">Improve</tspan>
                            </text>
                        </g>
                        <g id="Group-18-Copy-2" transform="translate(120.124088, 123.327975) rotate(-243.000000) translate(-120.124088, -123.327975) translate(26.124088, 37.327975)" stroke="#E0D6FF" stroke-width="2">
                            <path d="M85.6920846,166.068343 C129.945371,166.068343 165.819748,130.140183 165.819748,85.8205529 C165.819748,41.5009224 129.945371,5.57276317 85.6920846,5.57276317 C41.438798,5.57276317 5.56442108,41.5009224 5.56442108,85.8205529" id="Oval-20-Copy-3" transform="translate(85.692085, 85.820553) rotate(-94.000000) translate(-85.692085, -85.820553) "></path>
                            <polyline id="Shape" transform="translate(164.266260, 69.747065) rotate(-3.000000) translate(-164.266260, -69.747065) " points="141.096649 58.9179514 165.072762 80.5761795 187.435871 58.9179514"></polyline>
                        </g>
                    </g>
                    <g id="Group-15" transform="translate(159.000000, 0.000000)">
                        <g id="Group-18-Copy" transform="translate(120.895443, 116.153584) rotate(-157.000000) translate(-120.895443, -116.153584) translate(26.895443, 30.153584)" stroke="#E0D6FF" stroke-width="2">
                            <path d="M85.6920846,166.068343 C129.945371,166.068343 165.819748,130.140183 165.819748,85.8205529 C165.819748,41.5009224 129.945371,5.57276317 85.6920846,5.57276317 C41.438798,5.57276317 5.56442108,41.5009224 5.56442108,85.8205529" id="Oval-20-Copy-3" transform="translate(85.692085, 85.820553) rotate(-94.000000) translate(-85.692085, -85.820553) "></path>
                            <polyline id="Shape" transform="translate(164.266260, 69.747065) rotate(-3.000000) translate(-164.266260, -69.747065) " points="141.096649 58.9179514 165.072762 80.5761795 187.435871 58.9179514"></polyline>
                        </g>
                        <g id="Group-16" transform="translate(112.652208, 101.551752)" font-size="17.8018876" fill="#643DDB">
                            <text id="Red" font-family="Roboto-Regular, Roboto" font-weight="normal">
                                <tspan x="0.364458947" y="17">Red</tspan>
                            </text>
                            <text id="Fail" font-family="Roboto-LightItalic, Roboto" font-style="italic" font-weight="300">
                                <tspan x="2.76367458" y="38.1765001">Fail</tspan>
                            </text>
                        </g>
                    </g>
                </g>
            </g>
        </g>
    </g>
</svg>