<?xml version="1.0" encoding="UTF-8" standalone="no"?>
<svg width="1224px" height="708px" viewBox="0 0 1224 708" version="1.1" xmlns="http://www.w3.org/2000/svg" xmlns:xlink="http://www.w3.org/1999/xlink">
    <!-- Generator: Sketch 39.1 (31720) - http://www.bohemiancoding.com/sketch -->
    <title>Parallax_Layer_Middle</title>
    <desc>Created with Sketch.</desc>
    <defs></defs>
    <g id="Page-1" stroke="none" stroke-width="1" fill="none" fill-rule="evenodd" opacity="0.298507463">
        <g id="Desktop-HD" transform="translate(-62.000000, -42.000000)">
            <g id="HEADER_SECTION" transform="translate(0.026861, 0.000000)">
                <g id="Parallax_Layer_Middle">
                    <rect id="Rectangle" x="0" y="0" width="1440" height="889"></rect>
                    <g id="icon9m" transform="translate(985.780566, 650.540863)" fill="#92FFFF">
                        <g id="XMLID_2914_">
                            <path d="M6.58109069,52.9049933 C5.85508235,52.9049933 5.129074,52.6288594 4.5753833,52.0757176 L0.829880019,48.3339278 C-0.276626673,47.2285182 -0.276626673,45.4310259 0.829880019,44.3256163 L15.1891005,29.9788845 C13.3828267,26.9186912 12.4320182,23.4512876 12.4320182,19.8947522 C12.4320182,8.92454449 21.3662943,0 32.3465145,0 C43.3276094,0 52.2610108,8.92454449 52.2610108,19.8947522 C52.2610108,30.8658338 43.3267347,39.7903783 32.3465145,39.7903783 C29.1529525,39.7903783 25.99088,39.0100377 23.1524498,37.5271285 L8.5885475,52.0757176 C8.03485679,52.6297332 7.30797374,52.9049933 6.58109069,52.9049933 L6.58109069,52.9049933 Z M32.3456398,2.14178582 C22.5462766,2.14178582 14.5741801,10.1059784 14.5741801,19.8956261 C14.5741801,23.3263283 15.5669747,26.6670248 17.4458493,29.5533237 L17.9190668,30.2803599 L2.34487574,45.8408577 C2.07459071,46.1117486 2.07459071,46.5504171 2.34487574,46.821308 L6.09037903,50.5630978 C6.36066406,50.8331148 6.80239203,50.8331148 7.07180235,50.5630978 L22.7850721,34.8662807 L23.4979598,35.2761124 C26.1938125,36.8298029 29.253544,37.6503401 32.3456398,37.6503401 C42.145003,37.6503401 50.1170994,29.6852737 50.1170994,19.8956261 C50.1170994,10.1059784 42.145003,2.14178582 32.3456398,2.14178582 L32.3456398,2.14178582 Z M32.3351433,34.12002 C24.4785084,34.12002 18.0861362,27.7339854 18.0861362,19.8860138 C18.0861362,12.0380422 24.4785084,5.65288145 32.3351433,5.65288145 C40.1926529,5.65288145 46.5841504,12.0371683 46.5841504,19.8860138 C46.5841504,27.7339854 40.1926529,34.12002 32.3351433,34.12002 L32.3351433,34.12002 Z M32.3351433,7.79466727 C25.6593654,7.79466727 20.2291728,13.2186022 20.2291728,19.8860138 C20.2291728,26.5534254 25.6593654,31.979108 32.3351433,31.979108 C39.0109212,31.979108 44.4411137,26.5542992 44.4411137,19.8860138 C44.4411137,13.2177284 39.0109212,7.79466727 32.3351433,7.79466727 L32.3351433,7.79466727 Z" id="XMLID_2915_"></path>
                        </g>
                    </g>
                    <g id="icon8m" transform="translate(227.000000, 677.000000)" fill="#92FFFF">
                        <g id="XMLID_2909_" transform="translate(43.735442, 0.000000)">
                            <path d="M40.8593997,69.3786556 L33.2328132,73.0479166 L1.23071535,6.66042084 C0.217802503,4.55970558 1.10475727,2.02818641 3.20755734,1.01627781 C5.31035741,0.00436920811 7.84438894,0.890444613 8.85730179,2.99115987 L40.8593997,69.3786556 L40.8593997,69.3786556 Z M34.4031737,69.70722 L37.5153878,68.2103293 L6.60055296,4.07821885 C6.18681568,3.22010638 5.15378453,2.85920979 4.29482044,3.27253688 C3.43673106,3.68586396 3.0746016,4.71787092 3.48833888,5.57598339 L34.4031737,69.70722 L34.4031737,69.70722 Z" id="XMLID_2910_"></path>
                        </g>
                        <g id="XMLID_2907_" transform="translate(0.000000, 8.738416)">
                            <polygon id="XMLID_2908_" points="60.3374163 25.7809494 11.7517134 49.1553389 18.4843474 29.9351925 0.238795515 23.5570225 47.7057458 0.72179318 48.7930089 2.97630457 6.77462002 23.1908828 21.6752852 28.3998527 16.1130117 44.2793027 59.2501532 23.526438"></polygon>
                        </g>
                    </g>
                    <g id="icon7m" transform="translate(128.000000, 104.000000)" fill="#92FFFF">
                        <g id="XMLID_2902_" transform="translate(0.000000, 6.116891)">
                            <path d="M44.5008126,49.4218606 L0.835346949,31.6138422 L13.7434254,0.0244675654 L57.4088911,17.832486 L44.5008126,49.4218606 L44.5008126,49.4218606 Z M2.96176416,30.7216499 L43.6077349,47.2975516 L55.2833486,18.7246783 L14.6373779,2.14877655 L2.96176416,30.7216499 L2.96176416,30.7216499 Z" id="XMLID_2903_"></path>
                        </g>
                        <g id="XMLID_2900_" transform="translate(13.120633, -0.000000)">
                            <polygon id="XMLID_2901_" points="16.9369874 14.113416 13.8308963 6.44458196 3.91344738 2.40044294 1.82551736 7.51241643 0.315769894 6.89635808 3.02036965 0.276133953 15.0843541 5.19673613 18.449359 13.5026007"></polygon>
                        </g>
                    </g>
                    <g id="icon6m" transform="translate(649.000000, 598.000000)" fill="#92FFFF">
                        <g id="XMLID_2766_" transform="translate(0.000000, 0.000000)">
                            <g id="XMLID_2895_">
                                <path d="M111.776419,104.165417 L1.04615178,48.757741 C0.642911003,48.5558836 0.480215157,48.0674061 0.682272901,47.6645651 L24.0518692,1.053853 C24.2539269,0.651012009 24.7428892,0.488477467 25.1461299,0.690334882 L135.876398,56.0980106 C136.279638,56.299868 136.442334,56.7883455 136.240277,57.1911865 L112.87068,103.801899 C112.668623,104.20474 112.17966,104.367274 111.776419,104.165417 L111.776419,104.165417 Z M2.50604085,47.665439 L111.778169,102.343457 L134.417383,57.1894388 L25.1452552,2.51054698 L2.50604085,47.665439 L2.50604085,47.665439 Z" id="XMLID_2896_"></path>
                            </g>
                            <g id="XMLID_2891_" transform="translate(22.742430, 6.990733)">
                                <path d="M9.96730732,13.2745281 L0.732131305,8.65365358 C0.328890527,8.45179617 0.166194681,7.9633187 0.368252425,7.56047772 L3.83734771,0.641399751 C4.03940546,0.238558763 4.5283677,0.0760242211 4.93160848,0.277881636 L14.1667845,4.89875613 C14.5700253,5.10061355 14.7327211,5.58909102 14.5306634,5.991932 L11.0615681,12.9101361 C10.8595103,13.313851 10.3705481,13.4763855 9.96730732,13.2745281 L9.96730732,13.2745281 Z M2.19202037,7.5622254 L9.96905673,11.4534421 L12.7077701,5.99105816 L4.93073377,2.09984142 L2.19202037,7.5622254 L2.19202037,7.5622254 Z" id="XMLID_2892_"></path>
                            </g>
                            <g id="XMLID_2887_" transform="translate(34.988354, 13.107624)">
                                <path d="M8.25375268,12.4286494 L1.00241634,8.79958514 C0.59917556,8.59772772 0.436479715,8.10925025 0.638537459,7.70640927 L4.10763275,0.787331302 C4.30969049,0.384490314 4.79865274,0.221955772 5.20189352,0.423813187 L12.4532299,4.05287744 C12.8564706,4.25473486 13.0191665,4.74321233 12.8171087,5.14605331 L9.34801345,12.0651313 C9.14595571,12.4670984 8.65699346,12.629633 8.25375268,12.4286494 L8.25375268,12.4286494 Z M2.4614307,7.70815695 L8.25462739,10.6075635 L10.9933408,5.14517947 L5.2001441,2.24577297 L2.4614307,7.70815695 L2.4614307,7.70815695 Z" id="XMLID_2888_"></path>
                            </g>
                            <g id="XMLID_2883_" transform="translate(45.484860, 18.350674)">
                                <path d="M8.00183654,12.3115546 L0.750500191,8.68249036 C0.347259412,8.48063294 0.184563567,7.99215548 0.386621311,7.58931449 L3.8557166,0.670236524 C4.05777434,0.267395536 4.54673659,0.104860995 4.94997737,0.306718409 L12.2013137,3.93578267 C12.6045545,4.13764008 12.7672503,4.62611755 12.5651926,5.02895854 L9.0960973,11.9480365 C8.89403956,12.3508775 8.40507731,12.513412 8.00183654,12.3115546 L8.00183654,12.3115546 Z M2.20951455,7.59106217 L8.00271124,10.4904687 L10.7414246,5.02808469 L4.94822795,2.12867819 L2.20951455,7.59106217 L2.20951455,7.59106217 Z" id="XMLID_2884_"></path>
                            </g>
                            <g id="XMLID_2879_" transform="translate(55.981366, 23.593724)">
                                <path d="M7.74992039,12.1944598 L0.498584043,8.56539558 C0.0953432644,8.36353817 -0.0673525812,7.8750607 0.134705162,7.47221971 L3.60380045,0.553141747 C3.80585819,0.150300759 4.29482044,-0.0122337827 4.69806122,0.189623632 L11.9493976,3.81868789 C12.3526383,4.0205453 12.5153342,4.50902277 12.3132764,4.91186376 L8.84418116,11.8300679 C8.64212341,12.2337827 8.15316117,12.3963173 7.74992039,12.1944598 L7.74992039,12.1944598 Z M1.9575984,7.47396739 L7.7507951,10.3733739 L10.4895085,4.91098992 L4.6963118,2.01158341 L1.9575984,7.47396739 L1.9575984,7.47396739 Z" id="XMLID_2880_"></path>
                            </g>
                            <g id="XMLID_2875_" transform="translate(65.603164, 27.962932)">
                                <path d="M8.37271309,12.9520805 L1.12137674,9.32301627 C0.718135964,9.12115885 0.555440118,8.63268139 0.757497862,8.2298404 L4.22659315,1.31076243 C4.42865089,0.907921445 4.91761314,0.745386904 5.32085392,0.947244318 L12.5721903,4.57630858 C12.975431,4.77816599 13.1381269,5.26664346 12.9360691,5.66948444 L9.46697386,12.5885624 C9.26491611,12.9905296 8.77595387,13.1530641 8.37271309,12.9520805 L8.37271309,12.9520805 Z M2.5803911,8.23158808 L8.3744625,11.1309946 L11.1131759,5.6686106 L5.3191045,2.7692041 L2.5803911,8.23158808 L2.5803911,8.23158808 Z" id="XMLID_2876_"></path>
                            </g>
                            <g id="XMLID_2871_" transform="translate(76.099670, 33.205982)">
                                <path d="M8.12079694,12.8349857 L0.869460594,9.20592149 C0.466219816,9.00406408 0.30352397,8.51558661 0.505581714,8.11274562 L3.974677,1.19366766 C4.17673475,0.790826668 4.66569699,0.628292126 5.06893777,0.830149541 L12.3202741,4.4592138 C12.7235149,4.66107121 12.8862107,5.14954868 12.684153,5.55238967 L9.21505771,12.4705938 C9.01299996,12.8743086 8.52403772,13.0368432 8.12079694,12.8349857 L8.12079694,12.8349857 Z M2.32847495,8.1144933 L8.12167165,11.0138998 L10.860385,5.55151583 L5.06718835,2.65210932 L2.32847495,8.1144933 L2.32847495,8.1144933 Z" id="XMLID_2872_"></path>
                            </g>
                            <g id="XMLID_2867_" transform="translate(86.596176, 38.449031)">
                                <path d="M7.86888079,12.717891 L0.617544446,9.08882671 C0.214303668,8.8869693 0.051607822,8.39849183 0.253665566,7.99565084 L3.72276085,1.07657288 C3.9248186,0.673731891 4.41378084,0.511197349 4.81702162,0.713054764 L12.068358,4.34211902 C12.4715987,4.54397644 12.6342946,5.0324539 12.4322368,5.43529489 L8.96314156,12.3543729 C8.76108382,12.7572138 8.27212157,12.9197484 7.86888079,12.717891 L7.86888079,12.717891 Z M2.0765588,7.99739853 L7.87063021,10.896805 L10.6093436,5.43442105 L4.8152722,2.53501455 L2.0765588,7.99739853 L2.0765588,7.99739853 Z" id="XMLID_2868_"></path>
                            </g>
                            <g id="XMLID_2863_" transform="translate(96.217973, 43.692081)">
                                <path d="M8.49167349,12.60167 L1.24033715,8.97260578 C0.837096367,8.77074836 0.674400521,8.2822709 0.876458265,7.87942991 L4.34555355,0.961225784 C4.5476113,0.558384797 5.03657354,0.395850255 5.43981432,0.59770767 L12.6911507,4.22677193 C13.0943914,4.42862934 13.2570873,4.91710681 13.0550295,5.3199478 L9.58593426,12.2390258 C9.38387651,12.6401191 8.89491427,12.8035274 8.49167349,12.60167 L8.49167349,12.60167 Z M2.6993515,7.88117759 L8.4925482,10.7805841 L11.2312616,5.31820011 L5.4380649,2.41879361 L2.6993515,7.88117759 L2.6993515,7.88117759 Z" id="XMLID_2864_"></path>
                            </g>
                            <g id="XMLID_2859_" transform="translate(27.115974, 22.719882)">
                                <path d="M8.53365952,12.4539908 L1.28232317,8.82492654 C0.879082392,8.62306913 0.716386546,8.13459166 0.91844429,7.73175067 L4.38753958,0.812672709 C4.58959732,0.409831721 5.07855957,0.247297179 5.48180035,0.449154594 L12.7331367,4.07821885 C13.1363775,4.28007627 13.2990733,4.76855373 13.0970156,5.17139472 L9.62792028,12.0895988 C9.42673725,12.4933137 8.93690029,12.6558482 8.53365952,12.4539908 L8.53365952,12.4539908 Z M2.74133753,7.73349836 L8.53453422,10.6329049 L11.2732476,5.17052088 L5.48005093,2.27111438 L2.74133753,7.73349836 L2.74133753,7.73349836 Z" id="XMLID_2860_"></path>
                            </g>
                            <g id="XMLID_2855_" transform="translate(17.494177, 17.476832)">
                                <path d="M8.31410759,12.772943 L1.06277125,9.14387873 C0.659530471,8.94202132 0.496834625,8.45354385 0.698892369,8.05070287 L4.16798766,1.1316249 C4.3700454,0.728783913 4.85900765,0.566249371 5.26224843,0.768106786 L12.5135848,4.39717104 C12.9168255,4.59902846 13.0795214,5.08750592 12.8774637,5.49034691 L9.40836836,12.4094249 C9.20631062,12.811392 8.71734837,12.9739266 8.31410759,12.772943 L8.31410759,12.772943 Z M2.52178561,8.05245055 L8.31585701,10.9518571 L11.0545704,5.48947307 L5.26049901,2.59006657 L2.52178561,8.05245055 L2.52178561,8.05245055 Z" id="XMLID_2856_"></path>
                            </g>
                            <g id="XMLID_2851_" transform="translate(37.612480, 27.962932)">
                                <path d="M8.28174337,12.3377699 L1.03040702,8.70870561 C0.627166244,8.50684819 0.464470398,8.01837073 0.666528142,7.61552974 L4.13562343,0.696451773 C4.33768117,0.293610785 4.82664342,0.131076243 5.2298842,0.332933658 L12.4812205,3.96199792 C12.8844613,4.16385533 13.0471572,4.6523328 12.8450994,5.05517378 L9.37600414,11.9742517 C9.1748211,12.3762189 8.68498415,12.5387534 8.28174337,12.3377699 L8.28174337,12.3377699 Z M2.48942138,7.61727742 L8.28349278,10.5166839 L11.0222062,5.05429994 L5.22813478,2.15489344 L2.48942138,7.61727742 L2.48942138,7.61727742 Z" id="XMLID_2852_"></path>
                            </g>
                            <g id="XMLID_2847_" transform="translate(48.108987, 33.205982)">
                                <path d="M8.02982722,12.2206751 L0.778490874,8.59161083 C0.375250096,8.38975341 0.21255425,7.90127595 0.414611994,7.49843496 L3.88370728,0.579356996 C4.08576503,0.176516008 4.57472727,0.013981466 4.97796805,0.215838881 L12.2293044,3.84490314 C12.6325452,4.04676055 12.795241,4.53523802 12.5931833,4.93807901 L9.12408799,11.857157 C8.92290495,12.259998 8.433068,12.4225325 8.02982722,12.2206751 L8.02982722,12.2206751 Z M2.23750523,7.50018264 L8.03070193,10.3995891 L10.7694153,4.93720517 L4.97621863,2.03779866 L2.23750523,7.50018264 L2.23750523,7.50018264 Z" id="XMLID_2848_"></path>
                            </g>
                            <g id="XMLID_2843_" transform="translate(58.605493, 38.449031)">
                                <path d="M7.77791107,12.1035803 L0.526574726,8.47451605 C0.123333947,8.27265864 -0.0393618981,7.78418117 0.162695846,7.38134018 L3.63179113,0.462262218 C3.83384888,0.0594212303 4.32281112,-0.103113311 4.7260519,0.0987441033 L11.9773882,3.72780836 C12.380629,3.92966578 12.5433249,4.41814324 12.3412671,4.82098423 L8.87217184,11.7400622 C8.6709888,12.1429032 8.18115185,12.3054377 7.77791107,12.1035803 L7.77791107,12.1035803 Z M1.98558908,7.38308787 L7.77966049,10.2824944 L10.5183739,4.82011039 L4.72430248,1.92070389 L1.98558908,7.38308787 L1.98558908,7.38308787 Z" id="XMLID_2844_"></path>
                            </g>
                            <g id="XMLID_2839_" transform="translate(68.227290, 42.818239)">
                                <path d="M8.40070377,12.861201 L1.14936743,9.23213674 C0.746126647,9.03027932 0.583430801,8.54180186 0.785488545,8.13896087 L4.25458383,1.22075675 C4.45664158,0.817915758 4.94560382,0.655381217 5.3488446,0.857238631 L12.6001809,4.48630289 C13.0034217,4.6881603 13.1661176,5.17663777 12.9640598,5.57947876 L9.49496454,12.4985567 C9.2937815,12.89965 8.80394455,13.0630584 8.40070377,12.861201 L8.40070377,12.861201 Z M2.60838178,8.14070855 L8.40157848,11.0401151 L11.1402919,5.57773107 L5.34709518,2.67832457 L2.60838178,8.14070855 L2.60838178,8.14070855 Z" id="XMLID_2840_"></path>
                            </g>
                            <g id="XMLID_2835_" transform="translate(78.723796, 48.061289)">
                                <path d="M8.14878762,12.7441062 L0.897451277,9.11504196 C0.494210499,8.91318455 0.331514653,8.42470708 0.533572397,8.02186609 L4.00266769,1.10366197 C4.20472543,0.700820981 4.69368768,0.538286439 5.09692845,0.740143854 L12.3482648,4.36920811 C12.7515056,4.57106553 12.9142014,5.05954299 12.7121437,5.46238398 L9.24304839,12.3814619 C9.04186536,12.7834291 8.5520284,12.9459636 8.14878762,12.7441062 L8.14878762,12.7441062 Z M2.35646563,8.02361378 L8.14966233,10.9230203 L10.8883757,5.4606363 L5.09517904,2.56122979 L2.35646563,8.02361378 L2.35646563,8.02361378 Z" id="XMLID_2836_"></path>
                            </g>
                            <g id="XMLID_2831_" transform="translate(89.220302, 53.304339)">
                                <path d="M7.89687147,12.6278853 L0.645535129,8.99882103 C0.242294351,8.79696361 0.0795985051,8.30848614 0.281656249,7.90564516 L3.75075154,0.986567191 C3.95280928,0.583726204 4.44177153,0.421191662 4.84501231,0.623049077 L12.0963487,4.25211333 C12.4995894,4.45397075 12.6622853,4.94244822 12.4602275,5.3452892 L8.99113224,12.2643672 C8.78994921,12.6663343 8.30011225,12.8288689 7.89687147,12.6278853 L7.89687147,12.6278853 Z M2.10454949,7.90739284 L7.89774618,10.8067993 L10.6364596,5.34441536 L4.84326289,2.44500886 L2.10454949,7.90739284 L2.10454949,7.90739284 Z" id="XMLID_2832_"></path>
                            </g>
                            <g id="XMLID_2827_" transform="translate(21.867721, 33.205982)">
                                <path d="M8.48729995,12.5282673 L1.2359636,8.89920308 C0.832722823,8.69734567 0.670026977,8.2088682 0.872084721,7.80602721 L4.34118001,0.886949247 C4.54323775,0.484108259 5.0322,0.321573717 5.43544078,0.523431132 L12.6867771,4.15249539 C13.0900179,4.3543528 13.2527137,4.84283027 13.050656,5.24567126 L9.58156071,12.1647492 C9.38037768,12.5675902 8.89054072,12.7301248 8.48729995,12.5282673 L8.48729995,12.5282673 Z M2.69497796,7.80777489 L8.48817466,10.7071814 L11.2268881,5.24479742 L5.43369136,2.34539091 L2.69497796,7.80777489 L2.69497796,7.80777489 Z" id="XMLID_2828_"></path>
                            </g>
                            <g id="XMLID_2823_" transform="translate(12.245924, 27.962932)">
                                <path d="M8.26774803,12.8463457 L1.01641168,9.21728143 C0.613170902,9.01542402 0.450475056,8.52694655 0.6525328,8.12410556 L4.12162809,1.2050276 C4.32368583,0.802186609 4.81264808,0.639652067 5.21588886,0.841509482 L12.4672252,4.47057374 C12.870466,4.67243115 13.0331618,5.16090862 12.8311041,5.56374961 L9.36200879,12.4828276 C9.15995105,12.8856686 8.6709888,13.0482031 8.26774803,12.8463457 L8.26774803,12.8463457 Z M2.47542604,8.12585324 L8.26949744,11.0252597 L11.0082108,5.56287577 L5.21413944,2.66346926 L2.47542604,8.12585324 L2.47542604,8.12585324 Z" id="XMLID_2824_"></path>
                            </g>
                            <g id="XMLID_2819_" transform="translate(32.364227, 38.449031)">
                                <path d="M8.2353838,12.4111726 L0.984047453,8.7821083 C0.580806675,8.58025089 0.418110829,8.09177342 0.620168573,7.68893243 L4.08926386,0.769854469 C4.29132161,0.367013481 4.78028385,0.20447894 5.18352463,0.406336354 L12.434861,4.03540061 C12.8381018,4.23725803 13.0007976,4.72573549 12.7987399,5.12857648 L9.32964457,12.0476544 C9.12846153,12.4504954 8.63862458,12.61303 8.2353838,12.4111726 L8.2353838,12.4111726 Z M2.44306181,7.69068012 L8.23713322,10.5900866 L10.9758466,5.12770264 L5.18177521,2.22829614 L2.44306181,7.69068012 L2.44306181,7.69068012 Z" id="XMLID_2820_"></path>
                            </g>
                            <g id="XMLID_2815_" transform="translate(42.860734, 43.692081)">
                                <path d="M7.98346765,12.2949516 L0.732131305,8.66588737 C0.328890527,8.46402995 0.166194681,7.97555249 0.368252425,7.5727115 L3.83734771,0.653633533 C4.03940546,0.250792546 4.5283677,0.0882580038 4.93160848,0.290115419 L12.1829448,3.91917968 C12.5861856,4.12103709 12.7488815,4.60951456 12.5468237,5.01235554 L9.07772842,11.9314335 C8.87654538,12.3334007 8.38670843,12.4959352 7.98346765,12.2949516 L7.98346765,12.2949516 Z M2.19114566,7.57445918 L7.98434236,10.4738657 L10.7230558,5.0114817 L4.92985906,2.1120752 L2.19114566,7.57445918 L2.19114566,7.57445918 Z" id="XMLID_2816_"></path>
                            </g>
                            <g id="XMLID_2811_" transform="translate(53.357240, 48.935131)">
                                <path d="M7.7315515,12.1778568 L0.480215157,8.54879259 C0.0769743786,8.34693518 -0.085721467,7.85845771 0.116336277,7.45561672 L3.58543157,0.536538756 C3.78748931,0.133697768 4.27645155,-0.0288367735 4.67969233,0.173020641 L11.9310287,3.8020849 C12.3342695,4.00394231 12.4969653,4.49241978 12.2949076,4.89526077 L8.82581227,11.8143387 C8.62462924,12.2171797 8.13479228,12.3797143 7.7315515,12.1778568 L7.7315515,12.1778568 Z M1.93922951,7.4573644 L7.73330092,10.3567709 L10.4720143,4.89438693 L4.67794292,1.99498042 L1.93922951,7.4573644 L1.93922951,7.4573644 Z" id="XMLID_2812_"></path>
                            </g>
                            <g id="XMLID_2807_" transform="translate(62.979037, 53.304339)">
                                <path d="M8.3543442,12.9346037 L1.10300786,9.30553943 C0.699767078,9.10368202 0.537071232,8.61520455 0.739128976,8.21236357 L4.20822426,1.2932856 C4.41028201,0.890444613 4.89924425,0.727910071 5.30248503,0.929767486 L12.5538214,4.55883174 C12.9570622,4.76068916 13.119758,5.24916662 12.9177003,5.65200761 L9.44860497,12.5710856 C9.24742193,12.9739266 8.75758498,13.1364611 8.3543442,12.9346037 L8.3543442,12.9346037 Z M2.56202221,8.21498509 L8.35521891,11.1143916 L11.0939323,5.65200761 L5.30073562,2.75260111 L2.56202221,8.21498509 L2.56202221,8.21498509 Z" id="XMLID_2808_"></path>
                            </g>
                            <g id="XMLID_2803_" transform="translate(73.475543, 58.547389)">
                                <path d="M8.10242805,12.8183828 L0.851091709,9.1893185 C0.44785093,8.98746108 0.285155084,8.49898362 0.487212828,8.09614263 L3.95630812,1.17706467 C4.15836586,0.774223677 4.64732811,0.611689136 5.05056888,0.81354655 L12.3019052,4.44261081 C12.705146,4.64446822 12.8678419,5.13294569 12.6657841,5.53578668 L9.19668882,12.4548646 C8.99550579,12.8577056 8.50566883,13.0202402 8.10242805,12.8183828 L8.10242805,12.8183828 Z M2.31010607,8.09789031 L8.10330276,10.9972968 L10.8420162,5.53491284 L5.04881947,2.63550633 L2.31010607,8.09789031 L2.31010607,8.09789031 Z" id="XMLID_2804_"></path>
                            </g>
                            <g id="XMLID_2799_" transform="translate(83.972049, 63.790438)">
                                <path d="M15.1412101,16.3495768 L0.59917556,9.07309756 C0.195934782,8.87124015 0.0332389362,8.38276268 0.23529668,7.97992169 L3.70439197,1.06084373 C3.90644971,0.658002742 4.39541196,0.4954682 4.79865274,0.697325615 L19.3406873,7.9738048 C19.7439281,8.17566222 19.9066239,8.66413968 19.7045662,9.06698067 L16.2354709,15.9860586 C16.0342879,16.3888996 15.5444509,16.5514342 15.1412101,16.3495768 L15.1412101,16.3495768 Z M2.05818992,7.98079554 L15.1429596,14.5284908 L17.881673,9.06610683 L4.79690332,2.51841156 L2.05818992,7.98079554 L2.05818992,7.98079554 Z" id="XMLID_2800_"></path>
                            </g>
                            <g id="XMLID_2795_" transform="translate(106.714479, 48.935131)">
                                <path d="M8.23975734,12.4845753 L0.988420998,8.855511 C0.585180219,8.65365358 0.422484373,8.16517612 0.624542117,7.76233513 L4.09363741,0.844131007 C4.29569515,0.441290019 4.7846574,0.278755477 5.18789817,0.480612892 L12.4392345,4.10967715 C12.8424753,4.31153456 13.0051711,4.80001203 12.8031134,5.20285302 L9.33401811,12.121931 C9.13196037,12.5238981 8.64299812,12.6864327 8.23975734,12.4845753 L8.23975734,12.4845753 Z M2.44743535,7.76408281 L8.24150676,10.6634893 L10.9802202,5.20110534 L5.18702346,2.30169883 L2.44743535,7.76408281 L2.44743535,7.76408281 Z" id="XMLID_2796_"></path>
                            </g>
                            <g id="XMLID_2791_" transform="translate(117.210986, 54.178181)">
                                <path d="M7.98784119,12.3683543 L0.736504849,8.73929006 C0.333264071,8.53743265 0.170568225,8.04895518 0.372625969,7.64611419 L3.84172126,0.72703623 C4.043779,0.324195242 4.53274125,0.1616607 4.93598203,0.363518115 L12.1873184,3.99258237 C12.5905591,4.19443979 12.753255,4.68291725 12.5511973,5.08575824 L9.08210196,12.0048362 C8.88004422,12.4068034 8.39108197,12.5693379 7.98784119,12.3683543 L7.98784119,12.3683543 Z M2.19551921,7.64786188 L7.98959061,10.5472684 L10.728304,5.0848844 L4.93510732,2.1854779 L2.19551921,7.64786188 L2.19551921,7.64786188 Z" id="XMLID_2792_"></path>
                            </g>
                            <g id="XMLID_2787_" transform="translate(6.997671, 37.575190)">
                                <path d="M10.1326273,13.7638794 L0.897451277,9.14300489 C0.494210499,8.94114748 0.331514653,8.45267001 0.533572397,8.04982902 L4.00266769,1.13075106 C4.20472543,0.727910071 4.69368768,0.56537553 5.09692845,0.767232944 L14.3321045,5.38810744 C14.7353452,5.58996486 14.8980411,6.07844232 14.6959833,6.48128331 L11.2268881,13.4003613 C11.0248303,13.8032023 10.5349934,13.9657368 10.1326273,13.7638794 L10.1326273,13.7638794 Z M2.35646563,8.05157671 L10.133502,11.9427935 L12.8722154,6.48040947 L5.09517904,2.58919273 L2.35646563,8.05157671 L2.35646563,8.05157671 Z" id="XMLID_2788_"></path>
                            </g>
                            <g id="XMLID_2783_" transform="translate(81.347923, 75.150380)">
                                <path d="M7.78228462,12.2171797 L0.53094827,8.58811546 C0.127707492,8.38625805 -0.0349883539,7.89778058 0.16706939,7.49493959 L3.63616468,0.575861629 C3.83822242,0.173020641 4.32718467,0.0104860995 4.73042545,0.212343514 L11.9817618,3.84140777 C12.3850026,4.04326519 12.5476984,4.53174265 12.3456407,4.93458364 L8.87654538,11.8536616 C8.67448764,12.2565026 8.18465068,12.4190371 7.78228462,12.2171797 L7.78228462,12.2171797 Z M1.98996263,7.49668728 L7.78315932,10.3960938 L10.5218727,4.9337098 L4.72867603,2.0343033 L1.98996263,7.49668728 L1.98996263,7.49668728 Z" id="XMLID_2784_"></path>
                            </g>
                            <g id="XMLID_2779_" transform="translate(90.969720, 80.393429)">
                                <path d="M8.40507731,12.1000849 L1.15374097,8.47102069 C0.750500191,8.26916327 0.587804345,7.7806858 0.789862089,7.37784482 L4.25895738,0.458766852 C4.46101512,0.0559258638 4.94997737,-0.106608678 5.35321815,0.0952487368 L12.6045545,3.72431299 C13.0077953,3.92617041 13.1704911,4.41464788 12.9684334,4.81748886 L9.49933808,11.7365668 C9.29728034,12.1394078 8.80744338,12.3019424 8.40507731,12.1000849 L8.40507731,12.1000849 Z M2.61275533,7.3795925 L8.40595202,10.278999 L11.1446654,4.81661502 L5.35059402,1.91720852 L2.61275533,7.3795925 L2.61275533,7.3795925 Z" id="XMLID_2780_"></path>
                            </g>
                            <g id="XMLID_2775_" transform="translate(101.466226, 84.762637)">
                                <path d="M8.15316117,12.8577056 L0.901824822,9.22864137 C0.498584043,9.02678396 0.335888197,8.53830649 0.537945941,8.1354655 L4.00704123,1.21638754 C4.20909897,0.81354655 4.69806122,0.651012009 5.101302,0.852869423 L12.3526383,4.48193368 C12.7558791,4.6837911 12.918575,5.17226856 12.7165172,5.57510955 L9.24742193,12.4941875 C9.04536419,12.8961547 8.55552724,13.0586892 8.15316117,12.8577056 L8.15316117,12.8577056 Z M2.36083918,8.13721319 L8.15491058,11.0366197 L10.893624,5.57423571 L5.09955258,2.67482921 L2.36083918,8.13721319 L2.36083918,8.13721319 Z" id="XMLID_2776_"></path>
                            </g>
                            <g id="XMLID_2771_" transform="translate(100.591517, 59.421230)">
                                <path d="M14.2971161,27.0183091 L2.99762722,21.36368 C2.59438644,21.1618226 2.4316906,20.6733451 2.63374834,20.2705041 L6.46759722,12.6235161 L1.24383598,10.0098558 C0.850217,9.81324142 0.684022319,9.33787157 0.868585885,8.93852595 L4.64207985,0.805681976 C4.73479899,0.605572244 4.90449251,0.45264996 5.11354792,0.379247264 C5.32172863,0.306718409 5.55090235,0.321573717 5.74771184,0.419443979 L23.2436382,9.17446319 C23.646879,9.37632061 23.8095748,9.86479807 23.6075171,10.2676391 L15.3913769,26.6539172 C15.1893191,27.0567581 14.6994822,27.2201665 14.2971161,27.0183091 L14.2971161,27.0183091 Z M4.45664158,20.2722518 L14.2979908,25.1972232 L21.7837491,10.2676391 L5.76870485,2.25363754 L2.68098262,8.9079415 L7.92748628,11.5329617 C8.33072706,11.7348191 8.49342291,12.2232966 8.29136516,12.6261376 L4.45664158,20.2722518 L4.45664158,20.2722518 Z" id="XMLID_2772_"></path>
                            </g>
                            <g id="XMLID_2767_" transform="translate(19.243595, 43.692081)">
                                <path d="M59.6420228,38.5486493 L1.16773631,9.28893644 C0.764495533,9.08707903 0.601799687,8.59860156 0.803857431,8.19576057 L4.27295272,1.27668261 C4.47501046,0.873841622 4.96397271,0.71130708 5.36721349,0.913164495 L63.8414999,30.1728774 C64.2447407,30.3747348 64.4074366,30.8632123 64.2053788,31.2660532 L60.7362835,38.1851312 C60.5342258,38.5879722 60.0443888,38.7505067 59.6420228,38.5486493 L59.6420228,38.5486493 Z M2.62675067,8.19750826 L59.6437722,36.7275634 L62.3824856,31.2651794 L5.36633878,2.73512428 L2.62675067,8.19750826 L2.62675067,8.19750826 Z" id="XMLID_2768_"></path>
                            </g>
                        </g>
                        <g id="XMLID_2764_" transform="translate(113.712150, 14.855308)">
                            <path d="M2.29786014,32.0612491 L0.839720493,31.3315914 L15.171825,2.74648422 C16.1278817,0.838887957 18.4598555,0.06466428 20.3693449,1.01977317 C22.2788343,1.97488207 23.0538264,4.30454383 22.0977696,6.21214009 L13.69969,22.9628101 C13.1459993,24.067346 13.5947249,25.4156836 14.7003569,25.9688253 C15.8059889,26.5219671 17.1556646,26.0736863 17.7093553,24.9691505 L26.4730633,7.49057039 C27.42912,5.58297412 29.7610938,4.80875045 31.6705832,5.76385934 L32.0353368,5.94649224 C33.9448262,6.90160113 34.7198183,9.2312629 33.7637615,11.1388592 L25.1828677,28.2539212 C24.629177,29.358457 25.0779027,30.7067946 26.1835346,31.2599364 C27.2891666,31.8130781 28.6388424,31.3647973 29.1925331,30.2602615 L41.1515524,6.40875446 L42.6096921,7.13841221 L30.6506727,30.9899193 C29.694616,32.8975156 27.3626422,33.6717392 25.4531528,32.7166303 C23.5436633,31.7615214 22.7686713,29.4318597 23.7247281,27.5242634 L32.3056219,10.4092014 C32.8593126,9.30466559 32.4105869,7.95632797 31.3049549,7.40318622 L30.9402013,7.22055332 C29.8345694,6.66741158 28.4848936,7.11569233 27.9312029,8.22022814 L19.167495,25.6988083 C18.2114382,27.6064045 15.8794644,28.3806282 13.969975,27.4255193 C12.0604856,26.4704104 11.2854935,24.1407487 12.2415503,22.2331524 L20.63963,5.48248234 C21.1933207,4.37794653 20.744595,3.0296089 19.638963,2.47646716 C18.5333311,1.92332541 17.1836553,2.37160616 16.6299646,3.47614197 L2.29786014,32.0612491 L2.29786014,32.0612491 Z" id="XMLID_2765_"></path>
                        </g>
                        <g id="XMLID_2760_" transform="translate(150.449922, 14.855308)">
                            <path d="M6.96268243,9.50564917 L1.13099854,6.58701815 C0.727757761,6.38516073 0.565061915,5.89668327 0.767119659,5.49384228 L3.14020476,0.760242211 C3.34226251,0.357401223 3.83122475,0.194866682 4.23446553,0.396724096 L10.0661494,3.31535511 C10.4693902,3.51721253 10.632086,4.00569 10.4300283,4.40853098 L8.05694319,9.14213105 C7.85488545,9.54497204 7.36504849,9.70750658 6.96268243,9.50564917 L6.96268243,9.50564917 Z M2.58913819,5.49558996 L6.96355713,7.68456323 L8.60713506,4.40765714 L4.23271611,2.21868388 L2.58913819,5.49558996 L2.58913819,5.49558996 Z" id="XMLID_2761_"></path>
                        </g>
                        <g id="XMLID_2752_" transform="translate(154.823466, 8.738416)">
                            <path d="M1.86400455,9.18669697 C0.858964088,8.6833642 0.450475056,7.45823825 0.954307352,6.45419422 L3.38862207,1.59913017 C3.89245437,0.595086145 5.11879617,0.187002107 6.12383664,0.690334882 C7.12887711,1.19366766 7.53736614,2.41879361 7.03353384,3.42283763 L4.59921912,8.27790169 C4.09626153,9.28281955 2.86904502,9.69002975 1.86400455,9.18669697 L1.86400455,9.18669697 Z M5.39432946,2.14702887 C5.19664526,2.04828476 4.94647853,2.13129972 4.84763643,2.32878792 L2.41332171,7.18385198 C2.2147628,7.57970223 2.94426998,7.94409419 3.14195418,7.54824393 L5.5762689,2.69317988 C5.675111,2.49569167 5.59201366,2.24577297 5.39432946,2.14702887 L5.39432946,2.14702887 Z" id="XMLID_2757_"></path>
                        </g>
                    </g>
                    <g id="icon5m" transform="translate(1241.000000, 67.000000)" fill="#92FFFF">
                        <g id="XMLID_2747_" transform="translate(0.874709, 13.981466)">
                            <path d="M9.69177403,99.6432863 L0.903574239,96.9466111 C0.473217486,96.814661 0.230923136,96.3593895 0.363878881,95.9285856 L29.4838111,1.20153223 C29.6158922,0.771602152 30.0716155,0.529548023 30.5028469,0.66237195 L39.2910467,3.3590472 C39.7214035,3.49099728 39.9636978,3.94626877 39.8307421,4.37707269 L10.7108098,99.1041261 C10.5787288,99.5340561 10.1230055,99.7752364 9.69177403,99.6432863 L9.69177403,99.6432863 Z M2.16228027,95.6288579 L9.39174889,97.846668 L38.0332154,4.67680036 L30.8037468,2.45899032 L2.16228027,95.6288579 L2.16228027,95.6288579 Z" id="XMLID_2748_"></path>
                        </g>
                        <g id="XMLID_2745_" transform="translate(5.248253, 15.729149)">
                            <rect id="XMLID_2746_" transform="translate(15.792177, 48.117254) rotate(17.074083) translate(-15.792177, -48.117254) " x="14.9769709" y="-1.12631839" width="1.63041308" height="98.4871448"></rect>
                        </g>
                        <g id="XMLID_2741_" transform="translate(27.990683, 7.864575)">
                            <path d="M14.0084622,11.7418099 L0.596551434,7.62688968 C0.166194681,7.49493959 -0.0760996697,7.03966811 0.0568560751,6.60886419 L1.81327144,0.894813821 C1.94535248,0.464883743 2.40107579,0.222829614 2.83230725,0.35565354 L16.244218,4.47057374 C16.6754495,4.60252382 16.9168691,5.05779531 16.7839134,5.48859923 L15.027498,11.2026496 C14.895417,11.6325797 14.4396937,11.87376 14.0084622,11.7418099 L14.0084622,11.7418099 Z M1.85438276,6.30913651 L13.7075623,9.94606534 L14.985512,5.79007459 L3.13233238,2.15314576 L1.85438276,6.30913651 L1.85438276,6.30913651 Z" id="XMLID_2742_"></path>
                        </g>
                        <g id="XMLID_2739_" transform="translate(31.489519, -0.000000)">
                            <path d="M1.84038741,10.2510361 L0.281656249,9.7730447 L1.93310655,4.40241409 C2.84805201,1.42610953 6.01624745,-0.251666387 8.99550579,0.661498108 C11.9747641,1.57553644 13.6533304,4.7405908 12.7383849,7.71689537 L11.4420664,11.9323074 C11.3161084,12.3403914 10.8656333,12.6707035 10.4483972,12.5745809 C10.0259128,12.480206 9.76874841,11.9969716 9.83522628,11.5749061 C9.83085274,11.7033608 9.995298,12.1018326 10.4090353,12.2294135 L10.5577358,11.752296 L9.87108934,11.4892696 L9.97080615,11.1642006 L9.88333527,11.1135178 L10.001421,11.0645826 L11.1779044,7.23715632 C11.8286877,5.11983806 10.6347102,2.86707436 8.51441592,2.2169362 C6.39499638,1.56679803 4.14087168,2.76046568 3.4900883,4.87865778 L1.84038741,10.2510361 L1.84038741,10.2510361 Z" id="XMLID_2740_"></path>
                        </g>
                        <g id="XMLID_2737_" transform="translate(0.000000, 109.230203)">
                            <path d="M0.877332974,20.1647693 C0.874708847,20.1638954 0.87295943,20.1630216 0.870335303,20.1630216 C0.51607822,20.0511699 0.281656249,19.7129932 0.302649261,19.3416105 L1.33043216,0.853743265 L2.95826532,0.943748952 L2.1062989,16.2586972 L10.2052281,3.27428456 L11.5890175,4.13676624 L1.80802319,19.8178542 C1.61296311,20.1306895 1.22984064,20.2731256 0.877332974,20.1647693 L0.877332974,20.1647693 Z" id="XMLID_2738_"></path>
                        </g>
                        <g id="XMLID_2735_" transform="translate(0.874709, 118.842461)">
                            <rect id="XMLID_2736_" transform="translate(2.968813, 1.560342) rotate(17.074083) translate(-2.968813, -1.560342) " x="0.852950021" y="0.745943516" width="4.23172666" height="1.62879662"></rect>
                        </g>
                    </g>
                    <g id="icon4m" transform="translate(649.000000, 42.000000)" fill="#92FFFF">
                        <g id="XMLID_2706_" transform="translate(14.870050, 28.836774)">
                            <path d="M49.6642189,75.5077807 L41.5722874,79.8673766 C41.1760443,80.0814678 40.6818338,79.9337885 40.4675301,79.5370645 L0.865961759,6.17893411 C0.651658091,5.78308386 0.799483887,5.28936334 1.1966017,5.07527214 L9.28853325,0.715676289 C9.68477636,0.501585091 10.1789869,0.649264325 10.3932905,1.04598842 L49.9957336,74.4032449 C50.2091625,74.799969 50.0613368,75.2936895 49.6642189,75.5077807 L49.6642189,75.5077807 Z M41.516306,78.0462906 L48.1728404,74.4600446 L9.34451462,2.53676223 L2.68798029,6.12300825 L41.516306,78.0462906 L41.516306,78.0462906 Z" id="XMLID_2731_"></path>
                        </g>
                        <g id="XMLID_2692_" transform="translate(10.496506, 22.719882)">
                            <path d="M16.5643614,7.1191877 L4.21522194,13.7726178 C3.81810412,13.986709 3.32476833,13.8381559 3.11046466,13.4423057 L0.271159743,8.18265295 C0.0568560751,7.7868027 0.20468187,7.29308218 0.601799687,7.07899098 L12.9509392,0.42556087 C13.3471823,0.211469673 13.8413928,0.359148907 14.0556965,0.755873003 L16.8950014,6.01552573 C17.1093051,6.41224982 16.9614793,6.90597034 16.5643614,7.1191877 L16.5643614,7.1191877 Z M4.15924057,11.9524057 L15.0729829,6.07232543 L13.0077953,2.24577297 L2.09317827,8.12672709 L4.15924057,11.9524057 L4.15924057,11.9524057 Z" id="XMLID_2703_"></path>
                        </g>
                        <g id="XMLID_2682_" transform="translate(0.000000, -0.000000)">
                            <path d="M14.3058632,29.4397243 L12.870466,30.2130741 L1.45726494,9.07222372 C-0.0218677212,6.33185639 1.00591517,2.90028034 3.74900212,1.42261416 C6.49208907,-0.0550520222 9.92707071,0.971711884 11.4062034,3.71207921 L22.2447207,23.7894643 C22.4476532,24.1652162 22.3663052,24.718358 22.0050505,24.9481783 C21.6341739,25.1552788 21.117221,25.0259502 20.861806,24.6825305 C20.9501516,24.7760315 21.3498935,24.9376922 21.7312666,24.7332133 L21.4950952,24.2927971 L20.8259429,24.5951463 L20.6641218,24.2962925 L20.5670291,24.3225077 L20.6151381,24.2054129 L9.96905673,4.48542905 C8.91678199,2.53588839 6.47284547,1.80535679 4.52137003,2.85658826 C2.56989459,3.90781973 1.838638,6.34933323 2.89091274,8.29887389 L14.3058632,29.4397243 L14.3058632,29.4397243 Z" id="XMLID_2684_"></path>
                        </g>
                        <g id="XMLID_2675_" transform="translate(55.106657, 103.113311)">
                            <path d="M13.8676341,19.1956789 C13.8658846,19.1965528 13.8632605,19.1983004 13.8615111,19.1991743 C13.5326206,19.3730688 13.1276304,19.3022876 12.8774637,19.0261536 L0.419860247,5.31557859 L1.62695846,4.22065504 L11.9467734,15.5779746 L8.37621192,0.700820981 L9.96293377,0.321573717 L14.2743737,18.2886313 C14.3600951,18.6486541 14.1930258,19.0209106 13.8676341,19.1956789 L13.8676341,19.1956789 Z" id="XMLID_2677_"></path>
                        </g>
                    </g>
                    <g id="icon3m" transform="translate(1202.000000, 601.000000)" fill="#92FFFF">
                        <g id="XMLID_2621_" transform="translate(0.000000, -0.000000)">
                            <g id="XMLID_2663_" transform="translate(0.000000, 48.935131)">
                                <g id="XMLID_2666_">
                                    <path d="M15.6275483,9.8359613 L2.69847679,6.28903816 C1.16336277,5.86784649 0.257164401,4.27745474 0.678774066,2.74386269 C1.10038373,1.21027065 2.69235383,0.304970726 4.22746786,0.726162388 L17.1565393,4.27308553 C18.6916534,4.69427719 19.5978517,6.28466895 19.1762421,7.81826099 C18.7546324,9.35185304 17.1626623,10.257153 15.6275483,9.8359613 L15.6275483,9.8359613 Z M3.79536169,2.29732962 C3.12708413,2.11382288 2.43431472,2.50792546 2.25062586,3.17554046 C2.06693701,3.84315545 2.4614307,4.53523802 3.12970826,4.71874476 L16.0587797,8.2656679 C16.7270573,8.44917465 17.4198267,8.05507207 17.6035156,7.38745707 C17.7872044,6.71984207 17.3927107,6.02775951 16.7244332,5.84425277 L3.79536169,2.29732962 L3.79536169,2.29732962 Z" id="XMLID_2668_"></path>
                                </g>
                            </g>
                            <g id="XMLID_2655_" transform="translate(0.000000, 55.052022)">
                                <g id="XMLID_2656_">
                                    <path d="M13.0314124,8.57675552 L2.44743535,5.67297981 C0.912321328,5.25178815 0.00612296193,3.6613964 0.427732626,2.12780435 C0.849342291,0.594212303 2.44131239,-0.311087618 3.97642642,0.110104044 L14.5604035,3.01387975 C16.0955175,3.43507142 17.0017159,5.02546317 16.5801062,6.55905522 C16.1584965,8.09264726 14.5665264,8.99794718 13.0314124,8.57675552 L13.0314124,8.57675552 Z M3.54432025,1.68127128 C2.87604269,1.49776454 2.18327328,1.89186711 1.99958443,2.55948211 C1.81589557,3.22709711 2.21038926,3.91917968 2.87866682,4.10268642 L13.4626439,7.00646213 C14.1309214,7.18996887 14.8236908,6.7958663 15.0073797,6.1282513 C15.1910686,5.4606363 14.7965749,4.76855373 14.1282973,4.58504699 L3.54432025,1.68127128 L3.54432025,1.68127128 Z" id="XMLID_2659_"></path>
                                </g>
                            </g>
                            <g id="XMLID_2623_" transform="translate(3.498835, 0.000000)">
                                <g id="XMLID_2624_">
                                    <path d="M13.1801129,50.8200072 L3.3816244,48.1320704 C1.84738509,47.7108787 0.942061429,46.1213608 1.36367109,44.5877688 L1.64795147,43.5522665 C3.59242924,36.4785185 3.47696767,29.3872938 1.31381269,23.0458251 C0.0682272901,19.394041 0.091844429,15.5229226 1.38116527,11.8519139 C4.20560014,3.80732795 12.9465657,-1.03637616 21.282541,0.82403265 C25.9832263,1.89274095 29.8398176,4.69340335 32.2671347,8.72443476 C34.7101965,12.7843029 35.3644787,17.534506 34.1092715,22.1003285 C33.1514653,25.584335 31.1632521,28.6218085 28.3589355,30.8815629 C22.7240611,35.4237917 18.7502589,41.4445605 16.8670107,48.2946049 L16.7270573,48.8023069 C16.3054476,50.335899 14.7143522,51.240325 13.1801129,50.8200072 L13.1801129,50.8200072 Z M21.6787841,2.60142651 C21.4303668,2.53326686 21.1775759,2.47122411 20.9230356,2.41267672 C13.3839201,0.729657755 5.47392797,5.11197349 2.91977813,12.3910742 C1.75204182,15.7142939 1.72929939,19.2166511 2.85592439,22.5197724 C5.12579385,29.170581 5.25087721,36.5929918 3.21980327,43.9830704 L2.93552289,45.0185727 C2.75183403,45.6861877 3.14545302,46.3773964 3.81285587,46.5600293 L13.6113444,49.2479661 C14.2787472,49.430599 14.9706419,49.0373703 15.1543308,48.3706292 L15.2942842,47.8629272 C17.2685021,40.6816967 21.4312415,34.3716864 27.3346515,29.6136187 C29.8713071,27.5679555 31.6697085,24.8205974 32.536545,21.6686507 C33.6727918,17.5362537 33.0806139,13.2369529 30.8693499,9.56244887 C28.8050371,6.13349435 25.5406236,3.6613964 21.6787841,2.60142651 L21.6787841,2.60142651 Z" id="XMLID_2625_"></path>
                                </g>
                            </g>
                        </g>
                        <g id="XMLID_2617_" transform="translate(13.995342, 24.467565)">
                            <path d="M2.75183403,6.99160682 C0.977049783,6.50487704 -0.0699767078,4.66544042 0.41723612,2.89328961 C0.904448948,1.12026496 2.74571107,0.0742765379 4.51962061,0.561006321 C6.29353016,1.04773611 7.34143136,2.88717272 6.85421853,4.65932353 C6.3670057,6.43147434 4.52574358,7.4783366 2.75183403,6.99160682 L2.75183403,6.99160682 Z M4.08751444,2.13129972 C3.17956666,1.88225485 2.23837994,2.41791977 1.98908792,3.32409353 C1.7397959,4.23026729 2.27599242,5.17139472 3.1830655,5.42043958 C4.09013857,5.66948444 5.0322,5.13381953 5.28149202,4.22764577 C5.53078404,3.32147201 4.99546223,2.38034458 4.08751444,2.13129972 L4.08751444,2.13129972 Z" id="XMLID_2618_"></path>
                        </g>
                        <g id="XMLID_2615_" transform="translate(10.496506, 29.710615)">
                            <rect id="XMLID_2616_" transform="translate(4.016203, 9.900895) rotate(15.355120) translate(-4.016203, -9.900895) " x="3.20097657" y="0.605871894" width="1.63045202" height="18.5900465"></rect>
                        </g>
                    </g>
                    <g id="icon2m" transform="translate(1105.000000, 285.000000)" fill="#92FFFF">
                        <path d="M26.1354257,35.0218245 L25.2327261,34.6888909 C21.4784757,33.3047257 2.65824019,26.1287383 0.765370241,20.7310186 C-1.25170836,14.9802669 1.42140188,8.79172056 6.72388691,6.93568096 C10.4169077,5.6432692 14.4274477,6.78800172 17.2020242,9.54584588 C17.647251,5.66074603 20.0649463,2.26674517 23.757967,0.974333409 C29.060452,-0.881706197 35.0145952,2.28771737 37.0316738,8.03934292 C38.9245437,13.4361888 28.7018214,30.7775758 26.6322603,34.1995396 L26.1354257,35.0218245 L26.1354257,35.0218245 Z M7.4936307,9.13164495 C3.40349213,10.5629975 1.37066876,15.4215569 2.96263887,19.962038 C4.10500862,23.2205934 16.7935352,29.0185326 25.133884,32.1687316 C29.68237,24.5060145 35.9750255,12.0642574 34.8326557,8.80832355 C33.2406856,4.26784248 28.6169747,1.73894483 24.5268361,3.17029741 C20.4366975,4.60164998 18.4038741,9.4602094 19.9958443,14.0006905 L17.7977009,14.7696711 C16.2074802,10.22919 11.5837693,7.70029237 7.4936307,9.13164495 L7.4936307,9.13164495 Z" id="XMLID_2608_"></path>
                    </g>
                    <g id="icon1m" transform="translate(62.000000, 410.000000)" fill="#92FFFF">
                        <g id="XMLID_2595_" transform="translate(0.000000, 0.000000)">
                            <path d="M90.1763592,142.935148 L51.7127871,155.581384 C48.2244482,156.727864 44.4527036,154.826385 43.3050856,151.341504 L0.570310168,21.6170941 C-0.577307839,18.1322137 1.32605861,14.3642086 4.8143975,13.2177284 L43.2779696,0.571492421 C46.7663085,-0.574987787 50.5380531,1.32649158 51.6856711,4.81137197 L94.4204465,134.535782 C95.5689392,138.020663 93.6646981,141.788668 90.1763592,142.935148 L90.1763592,142.935148 Z M5.32347805,14.7653019 C2.688855,15.6312789 1.25170836,18.4765073 2.11854483,21.1085182 L44.8533203,150.832929 C45.7201567,153.46494 48.5682088,154.900661 51.2028318,154.034684 L89.6664039,141.388448 C92.301027,140.522471 93.7381736,137.677243 92.8713372,135.045232 L50.1365617,5.32082164 C49.2697252,2.68881067 46.4216732,1.25308889 43.7870502,2.11906593 L5.32347805,14.7653019 L5.32347805,14.7653019 Z" id="XMLID_2596_"></path>
                        </g>
                        <g id="XMLID_2511_" transform="translate(6.122962, 17.476832)">
                            <rect id="XMLID_2524_" transform="translate(24.936736, 9.415996) rotate(-18.215717) translate(-24.936736, -9.415996) " x="-0.747271926" y="8.60156423" width="51.368016" height="1.62886421"></rect>
                        </g>
                        <g id="XMLID_2506_" transform="translate(9.621797, 16.602991)">
                            <path d="M8.08493388,7.52552405 L2.92152755,9.22339832 C2.49379492,9.36408682 2.03282336,9.13164495 1.89199524,8.7043364 L0.192435946,3.5460493 C0.051607822,3.11874075 0.284280375,2.65822621 0.712013002,2.51753771 L5.87541933,0.819663442 C6.30315195,0.67897494 6.76412352,0.911416812 6.90495164,1.33872537 L8.60451093,6.49701246 C8.74533906,6.92519486 8.5126665,7.38483555 8.08493388,7.52552405 L8.08493388,7.52552405 Z M3.18568962,7.4215369 L6.79998658,6.23311229 L5.61038255,2.62239871 L1.99608559,3.81082331 L3.18568962,7.4215369 L3.18568962,7.4215369 Z" id="XMLID_2508_"></path>
                        </g>
                        <g id="XMLID_2496_" transform="translate(18.368886, 13.981466)">
                            <path d="M8.63162691,7.09209861 L3.46822058,8.78997288 C3.04048795,8.93066138 2.57951639,8.69821951 2.43868827,8.27091095 L0.739128976,3.11262386 C0.598300852,2.68531531 0.830973405,2.22480077 1.25870603,2.08411227 L6.42211236,0.386237997 C6.84984498,0.245549496 7.31081655,0.477991367 7.45164467,0.905299921 L9.15120396,6.06358702 C9.29203209,6.49089557 9.05935953,6.95053626 8.63162691,7.09209861 L8.63162691,7.09209861 Z M3.73238265,6.98723761 L7.34667961,5.798813 L6.15707558,2.18809942 L2.54277862,3.37652403 L3.73238265,6.98723761 L3.73238265,6.98723761 Z" id="XMLID_2497_"></path>
                        </g>
                        <g id="XMLID_2492_" transform="translate(27.990683, 10.486099)">
                            <path d="M8.30361109,7.53164094 L3.14020476,9.22951521 C2.71247214,9.37020371 2.25150057,9.13776184 2.11067245,8.71045329 L0.411113158,3.55216619 C0.270285034,3.12485764 0.502957587,2.66434311 0.930690214,2.5236546 L6.09409654,0.825780333 C6.52182917,0.685091832 6.98280073,0.917533703 7.12362885,1.34484226 L8.82318814,6.50312935 C8.96401627,6.93043791 8.73134371,7.39095244 8.30361109,7.53164094 L8.30361109,7.53164094 Z M3.40436683,7.42677995 L7.01866379,6.23835534 L5.82905976,2.62764176 L2.2147628,3.81606636 L3.40436683,7.42677995 L3.40436683,7.42677995 Z" id="XMLID_2493_"></path>
                        </g>
                        <g id="XMLID_2462_" transform="translate(17.494177, 30.584457)">
                            <path d="M56.4834491,83.1521472 L27.8883422,92.5538093 C27.4606096,92.6944978 26.999638,92.4620559 26.8588099,92.0347473 L0.162695846,10.9972968 C0.0218677212,10.5699883 0.254540275,10.1094737 0.682272901,9.96878523 L29.2773798,0.567123213 C29.7051125,0.426434712 30.166084,0.658876583 30.3069121,1.08618514 L57.0030262,82.1236357 C57.1438543,82.5509442 56.9111817,83.0114587 56.4834491,83.1521472 L56.4834491,83.1521472 Z M28.1525043,90.751074 L55.1985018,81.8588616 L29.0123431,2.36898464 L1.96634549,11.261197 L28.1525043,90.751074 L28.1525043,90.751074 Z" id="XMLID_2478_"></path>
                        </g>
                        <g id="XMLID_2439_" transform="translate(45.484860, 116.220936)">
                            <path d="M31.57524,6.8736382 L2.91977813,16.2945247 C2.49204551,16.4352132 2.03107394,16.2027714 1.89024582,15.7754628 L0.361254754,11.1327423 C0.22042663,10.7054337 0.453099183,10.2449192 0.880831809,10.1042307 L29.5371684,0.683344149 C29.964901,0.542655647 30.4258725,0.775097519 30.5667007,1.20240607 L32.0956917,5.84512661 C32.2356452,6.27330901 32.0038473,6.7329497 31.57524,6.8736382 L31.57524,6.8736382 Z M3.1839402,14.4935371 L30.2911674,5.58122644 L29.2712569,2.48607942 L2.16402969,11.3983901 L3.1839402,14.4935371 L3.1839402,14.4935371 Z" id="XMLID_2440_"></path>
                        </g>
                        <g id="XMLID_2425_" transform="translate(48.108987, 124.959352)">
                            <path d="M31.75543,6.64643938 L3.09996816,16.0673259 C2.67223553,16.2080144 2.21126397,15.9755725 2.07043584,15.548264 L0.541444777,10.9055434 C0.400616652,10.4782349 0.633289206,10.0177204 1.06102183,9.87703186 L29.7164837,0.456145327 C30.1442163,0.315456826 30.6051879,0.547898697 30.746016,0.97520725 L32.2750071,5.61792779 C32.4158352,6.04611018 32.1831626,6.50575088 31.75543,6.64643938 L31.75543,6.64643938 Z M3.36413023,14.2654645 L30.4713574,5.35315378 L29.4514469,2.25800675 L2.34421971,11.1703175 L3.36413023,14.2654645 L3.36413023,14.2654645 Z" id="XMLID_2426_"></path>
                        </g>
                    </g>
                </g>
            </g>
        </g>
    </g>
</svg>