<svg xmlns="http://www.w3.org/2000/svg" version="1.1" x="0" y="0" width="2779.8" height="1144" viewBox="710.3 -2650.1 2779.8 1144" xml:space="preserve"><style type="text/css">
	.st0{display:none;}
	.st1{display:inline;}
	.st2{fill:none;stroke:#FFFFFF;stroke-miterlimit:10;}
	.st3{display:inline;fill:none;stroke:#FFFFFF;stroke-miterlimit:10;}
</style><g class="st0"><path class="st3" d="M3081.4-2497.4l85.9 20.6c3.3 0.8 5.6 3.8 5.5 7.2l-1.8 63.3c-0.1 2.4-1.2 4.6-3 5.9l-53.7 39.9c-2.2 1.6-5 2.1-7.6 1.3l-86.4-26.4c-4-1.2-6.3-5.4-5.3-9.4l14.6-57.2L3081.4-2497.4zM3110.4-2364.9l-3.4-81.6 -75.3-7.7 75.3 7.7 42.7 57.3 -12 25c-1.1 2.3-3.3 3.8-5.8 4.1l-14.5 1.4C3113.8-2358.3 3110.6-2361.2 3110.4-2364.9zM3101-2508.8l71.6 29.5c2.4 1 3.6 3.6 2.9 6.1l-25.7 84 -85.1 12.3c-3 0.4-6.1-0.7-8.3-2.9l-31.5-33c-2.7-2.8-3.7-6.8-2.8-10.5l7.4-29 63.5-55.2C3095.2-2509.4 3098.2-2509.9 3101-2508.8z"/><polygon class="st3" points="3117.4 -2489.9 3149.8 -2389.2 3096.8 -2363.2 3050.2 -2386.2 3028.9 -2408.5 3061.5 -2480.2 "/><circle class="st3" cx="3169.9" cy="-1892.7" r="51.5"/><polyline class="st3" points="3169.9 -1944.3 3169.9 -1841.2 3156.9 -1842.9 3133.8 -1929.5 "/><polyline class="st3" points="3216.6 -1871 3169.9 -1909.7 3149.2 -1939.9 "/><circle class="st3" cx="2076.8" cy="-1992.1" r="6.1"/><circle class="st3" cx="1402.4" cy="-2014.5" r="10.7"/><circle class="st3" cx="1439.8" cy="-1765.5" r="4.5"/><circle class="st3" cx="1066.8" cy="-1969.7" r="7.9"/><circle class="st3" cx="1254.8" cy="-2005.7" r="7.9"/><circle class="st3" cx="3064" cy="-2143.7" r="7.9"/><circle class="st3" cx="3046" cy="-1801.7" r="7.9"/><circle class="st3" cx="3386" cy="-1828.7" r="7.9"/><circle class="st3" cx="3218.9" cy="-1769.8" r="7.9"/><circle class="st3" cx="2608" cy="-1786.7" r="7.9"/><circle class="st3" cx="2620" cy="-2299.8" r="7.9"/><path class="st3" d="M2481.3-1958.5l68.8-0.1c7.4-1.5 13-8 13-15.9 0-8.7-7.1-15.9-15.8-16.1 -2 0-4 0.3-5.8 0.9 -8.8-18.7-29.1-30.1-50.5-26.7 -6.4 1-12.4 3.3-17.6 6.6 -13.3-25.9-40.1-43.8-71.1-44.4 -45.6-0.9-83 35.4-83.4 81 0 4 0.2 7.9 0.7 11.7 0.2 1.8 1.8 3.2 3.6 3.2L2481.3-1958.5zM2167.7-1518.8l68.8-0.1c7.4-1.5 13-8 13-15.9 0-8.7-7.1-15.9-15.8-16.1 -2 0-4 0.3-5.8 0.9 -8.8-18.7-29.1-30.1-50.5-26.7 -6.4 1-12.4 3.3-17.6 6.6 -13.3-25.9-40.1-43.8-71.1-44.4 -45.6-0.9-83 35.4-83.4 81 0 4 0.2 7.9 0.7 11.7 0.2 1.8 1.8 3.2 3.6 3.2L2167.7-1518.8zM1435.1-2099.8l68.8-0.1c7.4-1.5 13-8 13-15.9 0-8.7-7.1-15.9-15.8-16.1 -2 0-4 0.3-5.8 0.9 -8.8-18.7-29.1-30.1-50.5-26.7 -6.4 1-12.4 3.3-17.6 6.6 -13.3-25.9-40.1-43.8-71.1-44.4 -45.6-0.9-83 35.4-83.4 81 0 4 0.2 7.9 0.7 11.7 0.2 1.8 1.8 3.2 3.6 3.2L1435.1-2099.8zM912.5-2050.7c-0.5 0.8-0.8 1.7-1 2.5 -9.4-0.9-18.9 3.4-24.1 12 0 0.1-0.1 0.1-0.1 0.2 -0.7 1.1-1.2 2.3-1.7 3.5 -1.3 3.2-1.9 6.6-1.9 9.8l0.1 0.1c0.2 8.4 4.5 16.4 12.1 21.1 1.4 0.8 2.8 1.5 4.3 2.1l1 0.3c10.9 3.6 23.2-0.7 29.4-10.9 6.2-10.3 4.3-23.2-4-31.2l1.3-2.2c1.4-3.8 0-8.1-3.6-10.2C920.2-2056 914.9-2054.7 912.5-2050.7zM2011.1-1950.8c-0.7 1.1-1.1 2.2-1.4 3.4 -12.5-1.3-25.2 4.6-32.2 16 -0.1 0.1-0.1 0.2-0.2 0.3 -0.9 1.5-1.7 3-2.3 4.6 -1.8 4.3-2.6 8.8-2.5 13.1l0.1 0.1c0.2 11.2 5.9 22 16.2 28.2 1.9 1.1 3.8 2.1 5.7 2.8l1.3 0.5c14.5 4.8 31-0.9 39.3-14.5 8.3-13.7 5.8-31-5.3-41.7l1.8-2.9c1.8-5-0.1-10.8-4.8-13.7C2021.4-1957.9 2014.4-1956.2 2011.1-1950.8zM2215.8-2106.4l11.4 78.9c0.2 1.1-1.3 1.6-1.9 0.7l-36.9-53.9 23.3-27C2213.1-2109.1 2215.5-2108.4 2215.8-2106.4z"/><line class="st3" x1="2188.5" y1="-2080.6" x2="2220.6" y2="-2072.9"/><path class="st3" d="M1758.9-2400.8l26.1 75.4c0.4 1-0.9 1.8-1.7 1.1l-46.4-46 17.8-30.9C1755.7-2402.9 1758.2-2402.7 1758.9-2400.8z"/><line class="st3" x1="1736.9" y1="-2370.3" x2="1769.8" y2="-2368.8"/><path class="st3" d="M2173.7-1910.5l-59.1 87.2c-0.1 0.1-0.2 0.3-0.2 0.4 -2.6 4.8 4 9.5 7.9 5.4l110.4-116.8c2.4-2.5-0.4-6.3-3.6-4.9l-43 18.6C2181-1918.5 2176.7-1915 2173.7-1910.5zM2693.3-1947.1l-27.3-38.1c-2-2.8-6.4-1-5.6 2.3l34.5 157c1.2 5.5 9.3 4.9 9.6-0.6 0.1-0.1 0.1-0.3 0-0.4l-5.8-105.2C2698.5-1937.4 2696.6-1942.7 2693.3-1947.1zM1361.9-1658.2l-59.1 87.2c-0.1 0.1-0.2 0.3-0.2 0.4 -2.6 4.8 4 9.5 7.9 5.4l110.4-116.8c2.4-2.5-0.4-6.3-3.6-4.9l-43 18.6C1369.2-1666.2 1365-1662.6 1361.9-1658.2zM1154.3-2151.5l-59 87.1c-0.1 0.1-0.2 0.3-0.2 0.4 -2.6 4.8 4 9.5 7.9 5.4l110.3-116.8c2.4-2.5-0.4-6.3-3.6-4.9l-43 18.6C1161.6-2159.5 1157.4-2156 1154.3-2151.5zM3217-1614.5l239.1-0.3c7.7-1.5 13.5-8.3 13.5-16.5 0-9.3-7.5-16.8-16.8-16.8 -2 0-3.9 0.3-5.7 1 -9.1-19.4-30.3-31.3-52.5-27.7 -6.7 1.1-13 3.5-18.4 6.9"/><circle class="st3" cx="3300.8" cy="-1629.2" r="85"/><path class="st3" d="M1007.9-2416.4c-8.4 3.8-37.2 14.3-61.5 55.3 -10.4 17.5-22.1 61.7-15.5 94.1 0.6 3.1 3.9 4.9 6.9 3.8l0 0c2.3-0.9 3.6-3.3 3.1-5.8 -3.8-18.7-3.1-37.8 1.6-55.9 8-30.8 27.7-58.5 57.4-75.9 45.8-26.9 101.7-21.1 140.7 10.3l4.4 3.6 3.1-4.8c5.6-8.8 13.3-16.4 22.9-22.1 29.2-17.1 65.9-10 86.8 15.2l4 4.9 3.9-4.9c3-3.8 6.7-7.1 11.1-9.7 10.8-6.3 23.1-6.5 34.2-3 10.3 3.2 12.3-5.8 6.8-8.3 -14.3-6.5-31.5-6.1-46.2 2.5 -3.7 2.2-7 4.8-10 7.7 -24.5-25.4-64.1-31.7-95.9-13.1 -9.3 5.5-17.1 12.6-23.2 20.8 -12.1-9-25.6-15.7-39.8-20.1C1102.9-2421.9 1057.1-2439 1007.9-2416.4zM2100.8-2520.1c-8.9-2.1-38.1-11.5-82.5 5.8 -19 7.4-55.3 35.1-70.1 64.6 -1.4 2.9 0 6.3 3.1 7.2l0 0c2.4 0.7 4.9-0.4 6-2.6 8.5-17.1 20.8-31.7 35.6-43.1 25.3-19.4 57.9-29.1 91.9-24.6 52.6 7 93.1 45.9 104.7 94.7l1.3 5.6 5.4-1.9c9.8-3.5 20.6-4.8 31.6-3.3 33.5 4.4 58.1 32.6 59.1 65.3l0.2 6.3 6.1-1.5c4.7-1.1 9.7-1.5 14.8-0.8 12.4 1.6 22.2 9.1 28.8 18.6 6.1 8.9 13.2 3 10.4-2.3 -7.3-14-21.1-24.2-37.9-26.5 -4.3-0.6-8.5-0.6-12.6-0.1 -3.7-35.1-31-64.4-67.6-69.3 -10.7-1.4-21.2-0.6-31.1 2.1 -4.1-14.5-10.5-28.1-19-40.3C2179.1-2466 2153.5-2507.6 2100.8-2520.1zM1906.2-2115.9l50.8 0.9c1.9 0 3.6 1.5 4 3.4l6.9 35.8c0.3 1.3-0.1 2.7-1 3.7l-25.2 29.1c-1 1.2-2.5 1.8-4.1 1.7l-51.8-4.1c-2.4-0.2-4.2-2.3-4.2-4.6l1.1-33.9L1906.2-2115.9zM1939.1-2045.1l-12.1-45.4 -43.3 5.1 43.3-5.1 31.1 26.9 -3.7 15.5c-0.3 1.4-1.4 2.6-2.8 3l-8 2.6C1941.8-2041.8 1939.6-2043.1 1939.1-2045.1zM1597.8-2616.2l73.3 1.3c2.7 0 5.2 2.2 5.8 4.9l10 51.6c0.4 1.9-0.1 3.9-1.4 5.3l-36.3 42c-1.4 1.7-3.6 2.6-5.9 2.5l-74.7-5.9c-3.5-0.3-6.1-3.3-6.1-6.6l1.6-48.9L1597.8-2616.2zM1645.3-2514.1l-17.5-65.5 -62.5 7.4 62.5-7.4 44.9 38.8 -5.3 22.4c-0.4 2-2 3.8-4 4.3l-11.5 3.8C1649.2-2509.3 1646-2511.2 1645.3-2514.1z"/><circle class="st3" cx="1341.4" cy="-1852.1" r="7.1"/><circle class="st3" cx="1324.1" cy="-1833.4" r="49.5"/><line class="st3" x1="1276" y1="-1823.7" x2="1372.7" y2="-1823.7"/><circle class="st3" cx="874.2" cy="-1587.3" r="7.1"/><circle class="st3" cx="857" cy="-1568.8" r="49.5"/><line class="st3" x1="808.8" y1="-1558.9" x2="905.5" y2="-1558.9"/><path class="st3" d="M1412.3-1567.4c-4.5-0.9-7.9-4.9-7.9-9.6 0-5.3 4.3-9.6 9.6-9.7 1.2 0 2.4 0.2 3.5 0.6 3.6-7.7 10.4-13.3 18.5-15.5 2.5-0.7 5.2-1.1 7.9-1.1 15.9 0 28.8 12.9 28.9 28.8 0 0.1 0 0.2 0 0.3 0 3.4-2.8 6.1-6.2 6.1L1412.3-1567.4zM2661.2-2525.1c-4.5-0.9-7.9-4.9-7.9-9.6 0-5.3 4.3-9.6 9.6-9.7 1.2 0 2.4 0.2 3.5 0.6 3.6-7.7 10.4-13.3 18.5-15.5 2.5-0.7 5.2-1.1 7.9-1.1 15.9 0 28.8 12.9 28.9 28.8 0 0.1 0 0.2 0 0.3 0 3.4-2.8 6.1-6.2 6.1L2661.2-2525.1zM3017.2-2034c-4.5-0.9-7.9-4.9-7.9-9.6 0-5.3 4.3-9.6 9.6-9.7 1.2 0 2.4 0.2 3.5 0.6 3.6-7.7 10.4-13.3 18.5-15.5 2.5-0.7 5.2-1.1 7.9-1.1 15.9 0 28.8 12.9 28.9 28.8 0 0.1 0 0.2 0 0.3 0 3.4-2.8 6.1-6.2 6.1L3017.2-2034zM841.6-2333.2l-64.6 34.1c-0.9 0.5-1.8-0.6-1.2-1.4l35.1-48.4 30.4 11.8C843-2336.4 843.2-2334.1 841.6-2333.2z"/><line class="st3" x1="810.9" y1="-2348.9" x2="814.2" y2="-2318.8"/><circle class="st3" cx="1589.5" cy="-2289.3" r="5"/><circle class="st3" cx="1105.9" cy="-2288.6" r="5"/><circle class="st3" cx="1044.4" cy="-2541.9" r="5"/><circle class="st3" cx="1535.9" cy="-2231.7" r="31.6"/><path class="st3" d="M1505.8-2224.5l64.1-0.2c4.9-1 8.6-5.3 8.6-10.5 0-5.9-4.8-10.7-10.7-10.7 -1.3 0-2.5 0.2-3.6 0.6 -5.8-12.4-19.3-19.9-33.5-17.7 -4.3 0.7-8.3 2.2-11.7 4.4"/><circle class="st3" cx="836.9" cy="-2515.9" r="31.6"/><path class="st3" d="M806.8-2508.6l64.1-0.3c4.9-1 8.6-5.3 8.6-10.5 0-5.9-4.8-10.7-10.7-10.7 -1.3 0-2.5 0.2-3.6 0.6 -5.8-12.3-19.3-19.9-33.5-17.6 -4.3 0.7-8.3 2.2-11.7 4.4M2314.7-2173.2c4.1-0.8 7.2-4.4 7.1-8.7 0-4.8-3.9-8.8-8.7-8.8 -1.1 0-2.2 0.2-3.2 0.5 -3.3-7-9.5-12.1-16.8-14.1 -2.3-0.6-4.7-1-7.2-1 -14.5 0-26.2 11.7-26.2 26.2 0 0.1 0 0.2 0 0.3 0 3.1 2.6 5.5 5.6 5.6H2314.7zM2325.5-2181.6c4.1-0.8 7.2-4.4 7.1-8.7 0-4.8-3.9-8.8-8.7-8.8 -1.1 0-2.2 0.2-3.2 0.5 -3.3-7-9.5-12.1-16.8-14.1 -2.3-0.6-4.7-1-7.2-1 -14.5 0-26.2 11.7-26.2 26.2 0 0.1 0 0.2 0 0.3 0 3.1 2.6 5.5 5.6 5.6H2325.5z"/><line class="st3" x1="2261" y1="-2175.9" x2="2271.7" y2="-2183.8"/><path class="st3" d="M1871.1-2502.6c5.9-1.2 10.3-6.3 10.2-12.5 0-6.9-5.6-12.6-12.5-12.6 -1.6 0-3.2 0.3-4.6 0.7 -4.7-10.1-13.7-17.4-24.2-20.3 -3.3-0.9-6.8-1.4-10.3-1.4 -20.8 0-37.7 16.8-37.7 37.7 0 0.1 0 0.3 0 0.4 0 4.5 3.7 7.9 8.1 8.1H1871.1zM1886.6-2514.7c5.9-1.1 10.3-6.3 10.2-12.5 0-6.9-5.6-12.7-12.5-12.7 -1.6 0-3.2 0.3-4.6 0.7 -4.7-10.1-13.7-17.4-24.2-20.3 -3.3-0.9-6.8-1.4-10.3-1.4 -20.8 0-37.7 16.8-37.7 37.7 0 0.1 0 0.3 0 0.4 0 4.5 3.7 7.9 8.1 8H1886.6z"/><line class="st3" x1="1793.9" y1="-2506.5" x2="1809.3" y2="-2517.9"/><line class="st3" x1="2310" y1="-2190.3" x2="2320.7" y2="-2198.7"/><line class="st3" x1="2317" y1="-2174" x2="2330.6" y2="-2184.7"/><g class="st1"><path class="st2" d="M3043.5-2255.3c5.7-1.1 10-6.1 9.9-12.1 0-6.7-5.4-12.3-12.1-12.3 -1.5 0-3.1 0.3-4.5 0.7 -4.6-9.8-13.3-16.9-23.4-19.7 -3.2-0.8-6.6-1.4-10-1.4 -20.2 0-36.6 16.3-36.6 36.6 0 0.1 0 0.3 0 0.4 0 4.3 3.6 7.7 7.8 7.8H3043.5zM3058.6-2267c5.7-1.1 10-6.1 9.9-12.1 0-6.7-5.4-12.3-12.1-12.3 -1.5 0-3.1 0.3-4.5 0.7 -4.6-9.8-13.3-16.9-23.4-19.7 -3.2-0.8-6.6-1.4-10-1.4 -20.2 0-36.6 16.3-36.6 36.6 0 0.1 0 0.3 0 0.4 0 4.3 3.6 7.7 7.8 7.8H3058.6z"/><line class="st2" x1="2968.6" y1="-2259.1" x2="2983.5" y2="-2270.1"/><line class="st2" x1="3037" y1="-2279.2" x2="3051.9" y2="-2290.9"/><line class="st2" x1="3049.5" y1="-2257.2" x2="3063.1" y2="-2267.9"/></g><path class="st3" d="M3216.5-2116.8l-45.6-44.2c-2.7-2.6-2.7-6.9-0.2-9.6l44.4-45.9c2.4-2.5 6.4-2.6 8.9-0.1l46.3 44.8c2.5 2.4 2.5 6.3 0.1 8.8l-44.6 46C3223.3-2114.3 3219.1-2114.2 3216.5-2116.8zM3165.3-2136.6l-21.2-20.6c-2.7-2.6-2.8-6.9-0.2-9.6l44.9-46.4c2.4-2.5 6.5-2.6 9-0.1l21.9 21.2c2.5 2.4 2.5 6.4 0.1 8.8l-45.1 46.6C3172.2-2134.1 3167.9-2134.1 3165.3-2136.6z"/><circle class="st3" cx="1254.8" cy="-2599.8" r="7.9"/></g><g class="st0"><g class="st1"><path class="st2" d="M2531.6-2183.4l-82.4 30.9c-3.1 1.2-6.7 0-8.5-2.9l-33.8-53.2c-1.3-2-1.6-4.4-0.8-6.6l22.1-62.9c0.9-2.6 3-4.5 5.6-5.3l86.1-26.3c4-1.2 8.3 0.9 9.6 4.8l19.8 55.4L2531.6-2183.4zM2433.6-2276.6l48.3 65.5 66.5-35.7 -66.5 35.7 -67.3-23.5 -4-27.3c-0.4-2.5 0.6-5 2.5-6.6l11.2-9.3C2427.2-2280.2 2431.4-2279.6 2433.6-2276.6z"/></g><circle class="st3" cx="2386.7" cy="-1750.8" r="7.9"/><path class="st3" d="M1844.5-1911.5c5.4-1.1 9.5-5.9 9.5-11.6 0-6.4-5.2-11.6-11.6-11.8 -1.5 0-2.9 0.2-4.2 0.7 -4.4-9.3-12.6-16.1-22.4-18.8 -3-0.9-6.2-1.3-9.6-1.3 -19.3 0-34.9 15.6-34.9 34.8 0 0.1 0 0.3 0 0.4 0 4.1 3.4 7.4 7.5 7.4L1844.5-1911.5zM2537.8-1710.9c5.4-1.1 9.5-5.9 9.5-11.6 0-6.4-5.2-11.6-11.6-11.8 -1.5 0-2.9 0.2-4.2 0.7 -4.4-9.3-12.6-16.1-22.4-18.8 -3-0.9-6.2-1.3-9.6-1.3 -19.3 0-34.9 15.6-34.9 34.8 0 0.1 0 0.3 0 0.4 0 4.1 3.4 7.4 7.5 7.4L2537.8-1710.9zM1447.7-2497.3c9.4-1.9 16.5-10.2 16.5-20.1 0-11.1-9-20.1-20.1-20.5 -2.6 0-5 0.3-7.3 1.2 -7.6-16.1-21.9-27.9-38.9-32.6 -5.2-1.6-10.8-2.3-16.7-2.3 -33.5 0-60.6 27.1-60.6 60.4 0 0.2 0 0.5 0 0.7 0 7.1 5.9 12.8 13 12.8L1447.7-2497.3zM2425.7-1647.6c-0.7 1.1-1.1 2.2-1.4 3.4 -12.5-1.3-25.2 4.6-32.2 16 -0.1 0.1-0.1 0.2-0.2 0.3 -0.9 1.5-1.7 3-2.3 4.6 -1.8 4.3-2.6 8.8-2.5 13.1l0.1 0.1c0.2 11.2 5.9 22 16.2 28.2 1.9 1.1 3.8 2.1 5.7 2.8l1.3 0.5c14.5 4.8 31-0.9 39.3-14.5 8.3-13.7 5.8-31-5.3-41.7l1.8-2.9c1.8-5-0.1-10.8-4.8-13.7C2436-1654.7 2429-1653 2425.7-1647.6zM2875.5-2485c0.6 0.7 1.3 1.4 2 1.8 -4.1 8.5-3.3 18.9 2.9 26.8 0.1 0.1 0.1 0.1 0.2 0.2 0.8 1 1.7 1.9 2.7 2.8 2.6 2.3 5.5 4.1 8.6 5.2h0.1c7.9 2.7 17 1.5 24-4.1 1.3-1 2.4-2.1 3.4-3.3l0.7-0.8c7.1-9 7.4-22 0-31.3 -7.5-9.4-20.3-12.1-30.7-7.1l-1.6-2c-3-2.6-7.6-2.8-10.8-0.2C2873.2-2494.1 2872.5-2488.7 2875.5-2485zM1688.2-1747.5c-8.5 0.8-37 1.2-70.9 29.7 -14.5 12.2-38.2 47.4-42.4 77.8 -0.4 2.9 1.9 5.5 4.9 5.4l0 0c2.3-0.1 4.2-1.8 4.5-4.1 2.4-17.6 8.8-34.1 18.5-48.6 16.5-24.6 42.2-42.8 73.5-49 48.4-9.6 95.7 12.6 120.4 52.1l2.8 4.5 4.2-3.3c7.6-6 16.7-10.3 26.8-12.4 30.8-6.1 60.9 11.4 71.5 39.9l2 5.5 4.9-3.1c3.8-2.4 8.1-4.2 12.7-5.1 11.4-2.3 22.3 1.4 30.9 7.8 8 6 12.5-1.3 8.5-5.2 -10.6-10.1-25.8-15-41.3-12 -3.9 0.8-7.6 2-11.1 3.7 -13.8-29.8-46.5-47.4-80.1-40.8 -9.9 2-18.9 5.8-26.7 11.2 -7.9-11.6-17.7-21.6-28.7-29.8C1773.2-1723.3 1738.3-1752.2 1688.2-1747.5zM854.6-2137.7l-29.8-28.9c-2.7-2.6-2.7-6.9-0.2-9.6l29.1-30.1c2.4-2.5 6.4-2.6 8.9-0.1l30.5 29.5c2.5 2.4 2.5 6.3 0.1 8.8l-29.3 30.2C861.5-2135.2 857.2-2135.1 854.6-2137.7zM818-2151.9l-12.4-12c-2.7-2.6-2.8-6.9-0.2-9.6l29.5-30.4c2.4-2.5 6.5-2.6 9-0.1l13 12.6c2.5 2.4 2.5 6.4 0.1 8.8l-29.6 30.6C824.9-2149.4 820.7-2149.3 818-2151.9z"/><g class="st1"><path class="st2" d="M1581.9-2032.4l97.3 23.3c3.7 0.9 6.3 4.3 6.2 8.2l-2 71.7c-0.1 2.7-1.3 5.2-3.4 6.7l-60.9 45.2c-2.5 1.8-5.7 2.4-8.7 1.5l-97.9-29.9c-4.5-1.4-7.2-6.1-6-10.7l16.5-64.8L1581.9-2032.4zM1614.8-1882.3l-3.8-92.5 -85.3-8.7 85.3 8.7 48.4 65 -13.6 28.3c-1.3 2.6-3.7 4.4-6.6 4.6l-16.4 1.6C1618.7-1874.9 1615-1878.1 1614.8-1882.3zM1604.1-2045.2l81.1 33.5c2.7 1.1 4.1 4.1 3.3 6.9l-29.1 95.1 -96.5 14c-3.4 0.5-6.9-0.7-9.4-3.3l-35.7-37.4c-3-3.2-4.2-7.7-3.2-11.9l8.4-32.9 72-62.5C1597.5-2046 1601-2046.5 1604.1-2045.2z"/><polygon class="st2" points="1612.7 -2023.8 1649.4 -1909.8 1589.3 -1880.4 1536.5 -1906.5 1512.4 -1931.7 1549.4 -2012.8 "/></g><circle class="st3" cx="1159.4" cy="-1661.4" r="84.8"/><polyline class="st3" points="1159.4 -1746.3 1159.4 -1576.6 1137.9 -1579.4 1099.9 -1722 "/><polyline class="st3" points="1236.3 -1625.6 1159.4 -1689.4 1125.3 -1739.1 "/><path class="st3" d="M2634.6-2175.9l109.3-0.1c3.5-0.7 6.1-3.8 6.1-7.5 0-4.2-3.4-7.6-7.6-7.6 -0.9 0-1.8 0.1-2.6 0.5 -4.2-8.9-13.9-14.3-24-12.7 -3.1 0.5-5.9 1.6-8.4 3.1"/><circle class="st3" cx="2672.9" cy="-2182.7" r="38.8"/><path class="st3" d="M2082.4-2158l-29.8-28.9c-2.7-2.6-2.7-6.9-0.2-9.6l29.1-30.1c2.4-2.5 6.4-2.6 8.9-0.1l30.5 29.5c2.5 2.4 2.5 6.3 0.1 8.8l-29.3 30.2C2089.3-2155.5 2085.1-2155.5 2082.4-2158zM2045.9-2172.2l-12.4-12c-2.7-2.6-2.8-6.9-0.2-9.6l29.5-30.4c2.4-2.5 6.5-2.6 9-0.1l13 12.6c2.5 2.4 2.5 6.4 0.1 8.8l-29.6 30.6C2052.8-2169.7 2048.5-2169.6 2045.9-2172.2z"/><g class="st1"><path class="st2" d="M2506.8-2398.9l-29.8-28.9c-2.7-2.6-2.7-6.9-0.2-9.6l29.1-30.1c2.4-2.5 6.4-2.6 8.9-0.1l30.5 29.5c2.5 2.4 2.5 6.3 0.1 8.8l-29.3 30.2C2513.7-2396.5 2509.5-2396.4 2506.8-2398.9zM2470.3-2413.1l-12.4-12c-2.7-2.6-2.8-6.9-0.2-9.6l29.5-30.4c2.4-2.5 6.5-2.6 9-0.1l13 12.6c2.5 2.4 2.5 6.4 0.1 8.8l-29.6 30.6C2477.2-2410.6 2472.9-2410.6 2470.3-2413.1z"/></g><g class="st1"><path class="st2" d="M3002-2543.3l-36-34.9c-3.3-3.1-3.3-8.3-0.2-11.6l35.1-36.3c2.9-3 7.7-3.1 10.7-0.1l36.8 35.6c3 2.9 3 7.6 0.1 10.6l-35.4 36.5C3010.3-2540.4 3005.2-2540.2 3002-2543.3zM2957.9-2560.4l-15-14.5c-3.3-3.1-3.4-8.3-0.2-11.6l35.6-36.7c2.9-3 7.8-3.1 10.9-0.1l15.7 15.2c3 2.9 3 7.7 0.1 10.6l-35.7 36.9C2966.2-2557.4 2961-2557.4 2957.9-2560.4z"/></g><g class="st1"><path class="st2" d="M2618-1581.7l-34.7-33.7c-3.1-3-3.1-8-0.2-11.2l33.9-35.1c2.8-2.9 7.5-3 10.4-0.1l35.6 34.4c2.9 2.8 2.9 7.3 0.1 10.3l-34.2 35.2C2626-1578.9 2621.1-1578.8 2618-1581.7zM2575.4-1598.3l-14.5-14c-3.1-3-3.3-8-0.2-11.2l34.4-35.4c2.8-2.9 7.6-3 10.5-0.1l15.2 14.7c2.9 2.8 2.9 7.5 0.1 10.3l-34.5 35.7C2583.4-1595.3 2578.4-1595.3 2575.4-1598.3z"/></g><path class="st3" d="M1122.8-1890.6l27.7-30.9c2.5-2.8 6.8-3 9.6-0.5l31.2 27.9c2.6 2.3 2.8 6.3 0.5 8.9l-28.4 31.6c-2.3 2.5-6.2 2.8-8.8 0.5l-31.3-28.1C1120.6-1883.7 1120.3-1887.9 1122.8-1890.6zM1135.6-1927.7l11.5-12.8c2.5-2.8 6.8-3 9.6-0.5l31.5 28.3c2.6 2.3 2.8 6.4 0.5 9l-12.1 13.5c-2.3 2.6-6.3 2.8-8.8 0.5l-31.7-28.4C1133.3-1920.7 1133.1-1925 1135.6-1927.7z"/><circle class="st3" cx="2328.4" cy="-2556.8" r="84.8"/><polyline class="st3" points="2327.4 -2641.7 2327.4 -2472 2305.9 -2474.8 2267.9 -2617.4 "/><polyline class="st3" points="2405.3 -2521 2328.4 -2584.8 2294.3 -2634.5 "/><circle class="st3" cx="2295.6" cy="-1846.4" r="6.1"/><path class="st3" d="M2553.7-2538.5l-30.2-62.2c-0.4-0.9 0.6-1.7 1.4-1.1l44.6 34.8 -12.2 28.4C2556.6-2537.1 2554.4-2537 2553.7-2538.5z"/><line class="st3" x1="2569.5" y1="-2567" x2="2540.9" y2="-2564.9"/><path class="st3" d="M1936.9-1787.6c0.6 0.7 1.3 1.4 2 1.8 -4.1 8.5-3.3 18.9 2.9 26.8 0 0.1 0.1 0.1 0.2 0.2 0.8 1 1.7 1.9 2.7 2.8 2.6 2.3 5.5 4.1 8.6 5.2h0.1c7.9 2.7 17 1.5 24-4.1 1.3-1 2.4-2.1 3.4-3.3l0.7-0.8c7.1-9 7.4-22 0-31.3 -7.5-9.4-20.3-12.1-30.7-7.1l-1.6-2c-3-2.6-7.6-2.8-10.8-0.2C1934.5-1796.7 1933.9-1791.3 1936.9-1787.6zM973.5-2534.4l61.5 50.8c0.8 0.7 0.2 2.1-0.9 1.8l-63.5-15.1 -0.8-35.6C969.6-2534.5 971.9-2535.7 973.5-2534.4z"/><line class="st3" x1="974.5" y1="-2495.9" x2="1003.5" y2="-2511.8"/><path class="st3" d="M1929.1-2338.8c-0.7 1.1-1.1 2.2-1.4 3.4 -12.5-1.3-25.2 4.6-32.2 16 -0.1 0.1-0.1 0.2-0.2 0.3 -0.9 1.5-1.7 3-2.3 4.6 -1.8 4.3-2.6 8.8-2.5 13.1l0.1 0.1c0.2 11.2 5.9 22 16.2 28.2 1.9 1.1 3.8 2.1 5.7 2.8l1.3 0.5c14.5 4.8 31-0.9 39.3-14.5 8.3-13.7 5.8-31-5.3-41.7l1.8-2.9c1.8-5-0.1-10.8-4.8-13.7C1939.4-2345.9 1932.4-2344.2 1929.1-2338.8zM1126.8-2616.2l44.3 10.5c8.6 2 8.6 14.3-0.1 16.3l-48.9 11.1 -10-19.1C1107-2607.4 1115.9-2618.8 1126.8-2616.2z"/><line class="st3" x1="1122.2" y1="-2578.3" x2="1145.7" y2="-2611.8"/><circle class="st3" cx="3191.9" cy="-2307.6" r="7.9"/><path class="st3" d="M3431.1-2270.2l-156.4-0.2c-5.1-1-9-5.5-9-10.9 0-6.2 5-11.2 11.2-11.2 1.3 0 2.6 0.2 3.8 0.7 6.1-12.9 20.1-20.8 34.9-18.4 4.5 0.7 8.6 2.3 12.2 4.6 3.4-5.3 7.6-10 12.5-13.9 0 0 15.3-13.6 37.9-12.3 3.8 0.2 16.7-0.1 32.5 12.2 6.7 5.3 18.5 20.7 20.4 34.4"/><circle class="st3" cx="3375.4" cy="-2275.4" r="56.5"/></g><g class="st0"><path class="st3" d="M3323.5-2040.7l87.9-3.3c3.3-0.1 6.4 2.2 7.2 5.4l15.3 61.2c0.6 2.3 0.1 4.7-1.3 6.5l-40.8 52.7c-1.7 2.1-4.2 3.4-7 3.3l-90-2.1c-4.1-0.1-7.5-3.5-7.6-7.6l-1.4-58.8L3323.5-2040.7zM3387.1-1921.3l-25.2-77.4 -74.4 12.9 74.4-12.9 56.4 43.5 -4.8 27.2c-0.4 2.5-2.1 4.6-4.5 5.5l-13.5 5.3C3392.1-1915.9 3388.2-1917.8 3387.1-1921.3zM1755.2-1547.6l-46.7 19.8c-1.8 0.8-3.9 0.1-5-1.5l-20.8-29.8c-0.8-1.1-1-2.5-0.6-3.8l11.2-36.8c0.5-1.5 1.6-2.7 3.1-3.2l48.9-17.3c2.2-0.8 4.8 0.3 5.7 2.6l12.8 31.4L1755.2-1547.6zM1696.5-1598.9l29.4 36.6 37.4-22.2 -37.4 22.2 -39.3-11.9 -3-15.6c-0.3-1.4 0.2-2.9 1.3-3.9l6.2-5.6C1692.7-1600.8 1695.2-1600.5 1696.5-1598.9z"/><circle class="st3" cx="991.2" cy="-2120.8" r="7.9"/><circle class="st3" cx="2806" cy="-2554.8" r="7.9"/><circle class="st3" cx="2034.9" cy="-2353.8" r="7.9"/><circle class="st3" cx="1628.8" cy="-2423.9" r="7.9"/><path class="st3" d="M3102.3-1674.7l70.9 105.5c0.1 0.2 0.2 0.3 0.3 0.5 3.2 5.8-4.6 11.7-9.3 6.7l-132-140.8c-2.9-3 0.5-7.7 4.3-6.1l51.1 22C3093.6-1684.3 3098.7-1680.1 3102.3-1674.7zM910.2-1816.5l73.3 1.3c2.7 0 5.2 2.2 5.8 4.9l10 51.6c0.4 1.9-0.1 3.9-1.4 5.3l-36.3 42c-1.4 1.7-3.6 2.6-5.9 2.5l-74.7-5.9c-3.5-0.3-6.1-3.3-6.1-6.6l1.6-48.9L910.2-1816.5zM957.6-1714.3l-17.5-65.5 -62.5 7.4 62.5-7.4L985-1741l-5.3 22.4c-0.4 2-2 3.8-4 4.3l-11.5 3.8C961.4-1709.7 958.4-1711.4 957.6-1714.3zM3071.6-1961.6l-94 49.6c-1.3 0.7-2.6-0.9-1.7-2l51.2-70.4 44.2 17.2C3073.8-1966.1 3073.9-1962.7 3071.6-1961.6z"/><line class="st3" x1="3026.9" y1="-1984.3" x2="3031.7" y2="-1940.5"/><path class="st3" d="M2593.4-1873.1l-64.6 34.1c-0.9 0.5-1.8-0.6-1.2-1.4l35.2-48.4 30.4 11.8C2594.9-1876.2 2595-1873.9 2593.4-1873.1z"/><line class="st3" x1="2562.7" y1="-1888.7" x2="2566" y2="-1858.6"/><path class="st3" d="M2724-2396.7c6.1-1.2 10.6-6.5 10.6-13 0-7.1-5.8-13-12.9-13.1 -1.7 0-3.2 0.2-4.7 0.8 -4.9-10.3-14.1-17.9-24.9-20.9 -3.4-1-7-1.5-10.6-1.5 -21.5 0-38.8 17.3-38.9 38.8 0 0.1 0 0.3 0 0.4 0 4.6 3.8 8.2 8.3 8.2L2724-2396.7zM2739.9-2409.1c6.1-1.2 10.6-6.5 10.6-13 0-7.1-5.8-13-12.9-13.1 -1.7 0-3.2 0.2-4.7 0.8 -4.9-10.3-14.1-17.9-24.9-20.9 -3.4-1-7-1.5-10.6-1.5 -21.5 0-38.8 17.3-38.9 38.8 0 0.1 0 0.3 0 0.4 0 4.6 3.8 8.2 8.3 8.2L2739.9-2409.1z"/><line class="st3" x1="2644.4" y1="-2400.7" x2="2660.3" y2="-2412.4"/><line class="st3" x1="2717" y1="-2422" x2="2732.9" y2="-2434.4"/><line class="st3" x1="2727.4" y1="-2397.8" x2="2747.4" y2="-2413.6"/></g><path class="st2" d="M1465.4-2395.7c0.6 0.7 1.3 1.4 2 1.8 -4.1 8.5-3.3 18.9 2.9 26.8 0 0.1 0.1 0.1 0.2 0.2 0.8 1 1.7 1.9 2.7 2.8 2.6 2.3 5.5 4.1 8.6 5.2h0.1c7.9 2.7 17 1.5 24-4.1 1.3-1 2.4-2.1 3.4-3.3l0.7-0.8c7.1-9 7.4-22 0-31.3 -7.5-9.4-20.3-12.1-30.7-7.1l-1.6-2c-3-2.6-7.6-2.8-10.8-0.2C1463.1-2404.8 1462.5-2399.4 1465.4-2395.7zM885-1899.9l-156.4-0.2c-5.1-1-9-5.5-9-10.9 0-6.2 5-11.2 11.2-11.2 1.3 0 2.6 0.2 3.8 0.7 6.1-12.9 20.1-20.8 34.9-18.4 4.5 0.7 8.6 2.3 12.2 4.6 3.4-5.3 7.6-10 12.5-13.9 0 0 15.3-13.6 37.9-12.3 3.8 0.2 16.7-0.1 32.5 12.2 6.7 5.3 18.5 20.7 20.4 34.4"/><circle class="st2" cx="829.3" cy="-1905.1" r="56.5"/><circle class="st2" cx="2237" cy="-1699.3" r="7.1"/><circle class="st2" cx="2219.7" cy="-1680.7" r="49.5"/><line class="st2" x1="2171.6" y1="-1671" x2="2268.3" y2="-1671"/><path class="st2" d="M1800-2149.4c4.1-0.8 7.2-4.4 7.1-8.7 0-4.8-3.9-8.8-8.7-8.8 -1.1 0-2.2 0.2-3.2 0.5 -3.3-7-9.5-12.1-16.8-14.1 -2.3-0.6-4.7-1-7.2-1 -14.5 0-26.2 11.7-26.2 26.2 0 0.1 0 0.2 0 0.3 0 3.1 2.6 5.5 5.6 5.6H1800zM1810.7-2157.8c4.1-0.8 7.2-4.4 7.1-8.7 0-4.8-3.9-8.8-8.7-8.8 -1.1 0-2.2 0.2-3.2 0.5 -3.3-7-9.5-12.1-16.8-14.1 -2.3-0.6-4.7-1-7.2-1 -14.5 0-26.2 11.7-26.2 26.2 0 0.1 0 0.2 0 0.3 0 3.1 2.6 5.5 5.6 5.6H1810.7z"/><line class="st2" x1="1746.2" y1="-2152.1" x2="1757" y2="-2160"/><line class="st2" x1="1795.2" y1="-2166.5" x2="1806" y2="-2174.9"/><line class="st2" x1="1802.3" y1="-2150.2" x2="1815.8" y2="-2160.9"/><circle class="st2" cx="3243.3" cy="-2553.3" r="12.3"/><path class="st2" d="M3317.9-2440.3l44.3 10.5c8.6 2 8.6 14.3-0.1 16.3l-48.9 11.1 -10-19.1C3298.1-2431.5 3307-2442.9 3317.9-2440.3z"/><line class="st2" x1="3313.3" y1="-2402.4" x2="3336.8" y2="-2435.9"/><circle class="st2" cx="3374.9" cy="-2460.7" r="7.9"/><g class="st0"><g class="st1"><path class="st2" d="M2913.3-1981.9l6.9-107.8 34.6-2.1c4.8 0 8.7-1.7 8.7-6.5 0-4.8-3.9-6.6-8.7-6.6l-34.1-2.2 -6-168.6c-0.1-4.2-1-7.6-5-8.4 -0.6-0.1-1.2-0.2-1.8-0.1 -4.8 0.1-6.5 4.1-6.4 8.9l1.6 168.2h-28l-2-140.2c0-4.8-1.7-8.7-6.5-8.7s-6.5 3.9-6.6 8.7l-2.4 140.1h-28.1l2.1-169.4c0.1-4.8-1.5-8.8-6.3-8.9 -4.8-0.1-6.7 3.7-6.8 8.5l-6.5 169.8 -34.1 2.1c-4.8 0-8.7 1.7-8.7 6.5 0 4.8 3.9 6.5 8.7 6.6l34.6 2.2 6 201.3c0.2 6.9 8.9 9.9 13.3 4.6L2913.3-1981.9zM2875.2-2089.8h19.4c4.4 0 7.8 3.7 7.5 8l-5.5 88.6 -13.5 20c-2.4 3.6-8.1 1.9-8.1-2.5L2875.2-2089.8zM2836.1-2089.9h21.7l-0.1 131.1c0 5.1-1.7 10.1-4.9 14.1l-7.7 9.8c-2.9 3.7-8.8 1.8-9-2.9l-5.7-146.3C2830.3-2087.2 2832.9-2089.9 2836.1-2089.9zM2835.3-1864.1l82.7-98.6c1.3-1.5 3.7-0.2 3.2 1.7l-20.3 103.4 -62.5 0.3C2834.9-1857.4 2833.1-1861.5 2835.3-1864.1zM2868.2-1844.6l33.8 0.1c1.7-0.2 3.1 1.2 3.1 2.9l3.7 44.6c0 1.6-1.9 2.3-2.9 1.1l-39.4-45C2865.6-1842.5 2866.5-1844.4 2868.2-1844.6zM2887.6-1665.7l-82.6-0.5c-0.1 0-0.3 0-0.4 0 -3.1 0.3-5.7-2.3-5.8-5.5l15.7-182.7c0.4-4.6 6.7-5.4 8.3-1.1l68.1 182.5 0 0c0.3 0.4 0.6 0.9 0.8 1.4 0.7 2.3-0.3 4.7-2.4 5.7C2888.8-1665.8 2888.2-1665.7 2887.6-1665.7zM2909-1771.9l14.6 102.4c0 0.2 0.1 0.5 0.1 0.7 0.8 8.1-10.7 10.8-13.6 3l-64.9-169.2c-1-2.6 2.4-4.7 4.3-2.6L2909-1771.9zM2926.9-1628.8c-1.5-4.7-7-6.8-11.3-4.4l-125.1 73.2c-5.6 3.2-3.2 11.8 3.3 11.7l142.7-13.4c6.2-0.5 10.3-6.6 8.3-12.5L2926.9-1628.8zM2803.9-1649.9c-2.3 0.1-4.2 1.7-4.5 3.9l-8.5 62.3c-1 2.2 0.9 4.4 3.1 4.2 0.4 0 0.8-0.2 1.2-0.4l98.4-59.5c5-3 2.9-10.7-3-10.7L2803.9-1649.9z"/></g></g></svg>