<?xml version="1.0" standalone="no"?>
<!DOCTYPE svg PUBLIC "-//W3C//DTD SVG 20010904//EN"
 "http://www.w3.org/TR/2001/REC-SVG-20010904/DTD/svg10.dtd">
<svg version="1.0" xmlns="http://www.w3.org/2000/svg"
 width="460.000000pt" height="460.000000pt" viewBox="0 0 460.000000 460.000000"
 preserveAspectRatio="xMidYMid meet">
<metadata>
Created by potrace 1.11, written by Peter Selinger 2001-2013
</metadata>
<g transform="translate(0.000000,460.000000) scale(0.100000,-0.100000)"
fill="#000000" stroke="none">
<path d="M0 2300 l0 -2300 2300 0 2300 0 0 2300 0 2300 -2300 0 -2300 0 0
-2300z m2262 965 c122 -30 221 -101 274 -197 27 -49 29 -61 29 -159 0 -104 -1
-107 -42 -191 -59 -119 -146 -226 -398 -493 l-217 -230 366 -3 366 -2 0 -115
0 -115 -535 0 -535 0 0 95 0 96 308 330 c320 344 391 433 418 525 41 143 -42
242 -215 252 -121 7 -249 -40 -380 -139 -29 -22 -57 -37 -61 -32 -4 4 -28 47
-53 96 l-46 87 72 51 c208 146 435 196 649 144z m1196 5 l462 0 0 -92 0 -93
-297 -650 c-163 -357 -301 -656 -306 -662 -7 -9 -47 -13 -138 -13 -71 0 -129
2 -129 5 0 3 131 291 290 639 160 349 290 637 290 640 0 8 -510 8 -548 0 l-31
-6 -3 -102 -3 -101 -112 -3 -113 -3 0 227 0 227 88 -6 c48 -4 295 -7 550 -7z
m-2238 -288 c0 -159 -3 -499 -7 -755 l-6 -467 -124 0 -123 0 0 645 0 645 -145
0 -145 0 0 110 0 110 275 0 275 0 0 -288z m1670 -1482 l0 -130 65 0 c51 0 65
-3 65 -15 0 -12 -16 -15 -80 -15 l-80 0 0 145 c0 122 2 145 15 145 13 0 15
-21 15 -130z m362 35 c22 -49 50 -114 63 -142 22 -48 22 -53 6 -53 -10 0 -24
15 -34 35 l-17 35 -80 0 -80 0 -17 -35 c-10 -20 -24 -35 -34 -35 -14 0 -5 27
49 145 80 178 85 180 144 50z m333 70 c30 -29 32 -66 5 -90 l-21 -19 26 -23
c35 -33 34 -84 -1 -112 -23 -18 -41 -21 -115 -21 l-89 0 0 145 0 145 85 0 c78
0 88 -2 110 -25z m259 15 c33 -12 36 -45 4 -36 -87 25 -131 14 -126 -32 3 -23
12 -30 59 -47 73 -26 99 -49 99 -90 0 -75 -114 -104 -196 -50 -37 24 -16 42
24 21 46 -24 107 -21 126 6 23 32 2 57 -65 80 -62 21 -89 48 -89 88 0 57 88
89 164 60z"/>
<path d="M3156 1519 c-14 -33 -26 -65 -26 -70 0 -5 27 -9 60 -9 33 0 60 4 60
9 0 17 -52 131 -60 131 -4 0 -19 -27 -34 -61z"/>
<path d="M3420 1550 l0 -50 49 0 c90 0 127 30 96 76 -14 21 -23 24 -80 24
l-65 0 0 -50z"/>
<path d="M3420 1420 l0 -50 68 0 c54 0 72 4 85 18 43 47 6 82 -86 82 l-67 0 0
-50z"/>
</g>
</svg>
