<?xml version="1.0" encoding="UTF-8" standalone="no"?>
<svg width="2780px" height="1144px" viewBox="0 0 2780 1144" version="1.1" xmlns="http://www.w3.org/2000/svg" xmlns:xlink="http://www.w3.org/1999/xlink">
    <!-- Generator: Sketch 39.1 (31720) - http://www.bohemiancoding.com/sketch -->
    <title>Artboard</title>
    <desc>Created with Sketch.</desc>
    <defs></defs>
    <g id="Page-1" stroke="none" stroke-width="1" fill="none" fill-rule="evenodd" opacity="0.3">
        <g id="Artboard" stroke="#92FFFF">
            <g id="parallax-header-4">
                <g id="Group">
                    <path d="M2203.3,668.1 L2210.2,560.3 L2244.8,558.2 C2249.6,558.2 2253.5,556.5 2253.5,551.7 C2253.5,546.9 2249.6,545.1 2244.8,545.1 L2210.7,542.9 L2204.7,374.3 C2204.6,370.1 2203.7,366.7 2199.7,365.9 C2199.1,365.8 2198.5,365.7 2197.9,365.8 C2193.1,365.9 2191.4,369.9 2191.5,374.7 L2193.1,542.9 L2165.1,542.9 L2163.1,402.7 C2163.1,397.9 2161.4,394 2156.6,394 C2151.8,394 2150.1,397.9 2150,402.7 L2147.6,542.8 L2119.5,542.8 L2121.6,373.4 C2121.7,368.6 2120.1,364.6 2115.3,364.5 C2110.5,364.4 2108.6,368.2 2108.5,373 L2102,542.8 L2067.9,544.9 C2063.1,544.9 2059.2,546.6 2059.2,551.4 C2059.2,556.2 2063.1,557.9 2067.9,558 L2102.5,560.2 L2108.5,761.5 C2108.7,768.4 2117.4,771.4 2121.8,766.1 L2203.3,668.1 L2203.3,668.1 Z M2165.2,560.2 L2184.6,560.2 C2189,560.2 2192.4,563.9 2192.1,568.2 L2186.6,656.8 L2173.1,676.8 C2170.7,680.4 2165,678.7 2165,674.3 L2165.2,560.2 L2165.2,560.2 Z M2126.1,560.1 L2147.8,560.1 L2147.7,691.2 C2147.7,696.3 2146,701.3 2142.8,705.3 L2135.1,715.1 C2132.2,718.8 2126.3,716.9 2126.1,712.2 L2120.4,565.9 C2120.3,562.8 2122.9,560.1 2126.1,560.1 L2126.1,560.1 Z M2125.3,785.9 L2208,687.3 C2209.3,685.8 2211.7,687.1 2211.2,689 L2190.9,792.4 L2128.4,792.7 C2124.9,792.6 2123.1,788.5 2125.3,785.9 L2125.3,785.9 Z M2158.2,805.4 L2192,805.5 C2193.7,805.3 2195.1,806.7 2195.1,808.4 L2198.8,853 C2198.8,854.6 2196.9,855.3 2195.9,854.1 L2156.5,809.1 C2155.6,807.5 2156.5,805.6 2158.2,805.4 L2158.2,805.4 Z M2177.6,984.3 L2095,983.8 L2094.6,983.8 C2091.5,984.1 2088.9,981.5 2088.8,978.3 L2104.5,795.6 C2104.9,791 2111.2,790.2 2112.8,794.5 L2180.9,977 L2180.9,977 C2181.2,977.4 2181.5,977.9 2181.7,978.4 C2182.4,980.7 2181.4,983.1 2179.3,984.1 C2178.8,984.2 2178.2,984.3 2177.6,984.3 L2177.6,984.3 Z M2199,878.1 L2213.6,980.5 C2213.6,980.7 2213.7,981 2213.7,981.2 C2214.5,989.3 2203,992 2200.1,984.2 L2135.2,815 C2134.2,812.4 2137.6,810.3 2139.5,812.4 L2199,878.1 L2199,878.1 Z M2216.9,1021.2 C2215.4,1016.5 2209.9,1014.4 2205.6,1016.8 L2080.5,1090 C2074.9,1093.2 2077.3,1101.8 2083.8,1101.7 L2226.5,1088.3 C2232.7,1087.8 2236.8,1081.7 2234.8,1075.8 L2216.9,1021.2 L2216.9,1021.2 Z M2093.9,1000.1 C2091.6,1000.2 2089.7,1001.8 2089.4,1004 L2080.9,1066.3 C2079.9,1068.5 2081.8,1070.7 2084,1070.5 C2084.4,1070.5 2084.8,1070.3 2085.2,1070.1 L2183.6,1010.6 C2188.6,1007.6 2186.5,999.9 2180.6,999.9 L2093.9,1000.1 L2093.9,1000.1 Z" id="Shape"></path>
                </g>
            </g>
        </g>
    </g>
</svg>