<?xml version="1.0" encoding="UTF-8" standalone="no"?>
<svg width="2780px" height="1144px" viewBox="0 0 2780 1144" version="1.1" xmlns="http://www.w3.org/2000/svg" xmlns:xlink="http://www.w3.org/1999/xlink">
    <!-- Generator: Sketch 39.1 (31720) - http://www.bohemiancoding.com/sketch -->
    <title>Artboard</title>
    <desc>Created with Sketch.</desc>
    <defs></defs>
    <g id="Page-1" stroke="none" stroke-width="1" fill="none" fill-rule="evenodd" opacity="0.3">
        <g id="Artboard" stroke="#92FFFF">
            <g id="parallax-header-1" transform="translate(9.000000, 8.000000)">
                <g id="Group">
                    <path d="M2604.5,601.3 L2692.4,598 C2695.7,597.9 2698.8,600.2 2699.6,603.4 L2714.9,664.6 C2715.5,666.9 2715,669.3 2713.6,671.1 L2672.8,723.8 C2671.1,725.9 2668.6,727.2 2665.8,727.1 L2575.8,725 C2571.7,724.9 2568.3,721.5 2568.2,717.4 L2566.8,658.6 L2604.5,601.3 L2604.5,601.3 Z M2668.1,720.7 L2642.9,643.3 L2568.5,656.2 L2642.9,643.3 L2699.3,686.8 L2694.5,714 C2694.1,716.5 2692.4,718.6 2690,719.5 L2676.5,724.8 C2673.1,726.1 2669.2,724.2 2668.1,720.7 L2668.1,720.7 Z M1036.2,1094.4 L989.5,1114.2 C987.7,1115 985.6,1114.3 984.5,1112.7 L963.7,1082.9 C962.9,1081.8 962.7,1080.4 963.1,1079.1 L974.3,1042.3 C974.8,1040.8 975.9,1039.6 977.4,1039.1 L1026.3,1021.8 C1028.5,1021 1031.1,1022.1 1032,1024.4 L1044.8,1055.8 L1036.2,1094.4 L1036.2,1094.4 Z M977.5,1043.1 L1006.9,1079.7 L1044.3,1057.5 L1006.9,1079.7 L967.6,1067.8 L964.6,1052.2 C964.3,1050.8 964.8,1049.3 965.9,1048.3 L972.1,1042.7 C973.7,1041.2 976.2,1041.5 977.5,1043.1 L977.5,1043.1 Z" id="Shape"></path>
                    <circle id="Oval" cx="272.2" cy="521.2" r="7.9"></circle>
                    <circle id="Oval" cx="2087" cy="87.2" r="7.9"></circle>
                    <circle id="Oval" cx="1315.9" cy="288.2" r="7.9"></circle>
                    <circle id="Oval" cx="909.8" cy="218.1" r="7.9"></circle>
                    <path d="M2383.3,967.3 L2454.2,1072.8 C2454.3,1073 2454.4,1073.1 2454.5,1073.3 C2457.7,1079.1 2449.9,1085 2445.2,1080 L2313.2,939.2 C2310.3,936.2 2313.7,931.5 2317.5,933.1 L2368.6,955.1 C2374.6,957.7 2379.7,961.9 2383.3,967.3 L2383.3,967.3 Z M191.2,825.5 L264.5,826.8 C267.2,826.8 269.7,829 270.3,831.7 L280.3,883.3 C280.7,885.2 280.2,887.2 278.9,888.6 L242.6,930.6 C241.2,932.3 239,933.2 236.7,933.1 L162,927.2 C158.5,926.9 155.9,923.9 155.9,920.6 L157.5,871.7 L191.2,825.5 L191.2,825.5 Z M238.6,927.7 L221.1,862.2 L158.6,869.6 L221.1,862.2 L266,901 L260.7,923.4 C260.3,925.4 258.7,927.2 256.7,927.7 L245.2,931.5 C242.4,932.3 239.4,930.6 238.6,927.7 L238.6,927.7 Z M2352.6,680.4 L2258.6,730 C2257.3,730.7 2256,729.1 2256.9,728 L2308.1,657.6 L2352.3,674.8 C2354.8,675.9 2354.9,679.3 2352.6,680.4 L2352.6,680.4 Z" id="Shape"></path>
                    <path d="M2307.9,657.7 L2312.7,701.5" id="Shape"></path>
                    <path d="M1874.4,768.9 L1809.8,803 C1808.9,803.5 1808,802.4 1808.6,801.6 L1843.8,753.2 L1874.2,765 C1875.9,765.8 1876,768.1 1874.4,768.9 L1874.4,768.9 Z" id="Shape"></path>
                    <path d="M1843.7,753.3 L1847,783.4" id="Shape"></path>
                    <path d="M2005,245.3 C2011.1,244.1 2015.6,238.8 2015.6,232.3 C2015.6,225.2 2009.8,219.3 2002.7,219.2 C2001,219.2 1999.5,219.4 1998,220 C1993.1,209.7 1983.9,202.1 1973.1,199.1 C1969.7,198.1 1966.1,197.6 1962.5,197.6 C1941,197.6 1923.7,214.9 1923.6,236.4 L1923.6,236.8 C1923.6,241.4 1927.4,245 1931.9,245 L2005,245.3 L2005,245.3 Z M2020.9,232.9 C2027,231.7 2031.5,226.4 2031.5,219.9 C2031.5,212.8 2025.7,206.9 2018.6,206.8 C2016.9,206.8 2015.4,207 2013.9,207.6 C2009,197.3 1999.8,189.7 1989,186.7 C1985.6,185.7 1982,185.2 1978.4,185.2 C1956.9,185.2 1939.6,202.5 1939.5,224 L1939.5,224.4 C1939.5,229 1943.3,232.6 1947.8,232.6 L2020.9,232.9 L2020.9,232.9 Z" id="Shape"></path>
                    <path d="M1925.4,241.3 L1941.3,229.6" id="Shape"></path>
                    <path d="M1998,220 L2013.9,207.6" id="Shape"></path>
                    <path d="M2008.4,244.2 L2028.4,228.4" id="Shape"></path>
                </g>
            </g>
        </g>
    </g>
</svg>