<?xml version="1.0" encoding="UTF-8" standalone="no"?>
<svg width="2780px" height="1144px" viewBox="0 0 2780 1144" version="1.1" xmlns="http://www.w3.org/2000/svg" xmlns:xlink="http://www.w3.org/1999/xlink">
    <!-- Generator: Sketch 39.1 (31720) - http://www.bohemiancoding.com/sketch -->
    <title>Artboard</title>
    <desc>Created with Sketch.</desc>
    <defs></defs>
    <g id="Page-1" stroke="none" stroke-width="1" fill="none" fill-rule="evenodd" opacity="0.3">
        <g id="Artboard" stroke="#92FFFF">
            <g id="parallax-header-2" transform="translate(9.000000, 8.000000)">
                <g id="Group">
                    <path d="M1812.6,458.6 L1730.2,489.5 C1727.1,490.7 1723.5,489.5 1721.7,486.6 L1687.9,433.4 C1686.6,431.4 1686.3,429 1687.1,426.8 L1709.2,363.9 C1710.1,361.3 1712.2,359.4 1714.8,358.6 L1800.9,332.3 C1804.9,331.1 1809.2,333.2 1810.5,337.1 L1830.3,392.5 L1812.6,458.6 L1812.6,458.6 Z M1714.6,365.4 L1762.9,430.9 L1829.4,395.2 L1762.9,430.9 L1695.6,407.4 L1691.6,380.1 C1691.2,377.6 1692.2,375.1 1694.1,373.5 L1705.3,364.2 C1708.2,361.8 1712.4,362.4 1714.6,365.4 L1714.6,365.4 Z" id="Shape"></path>
                    <circle id="Oval" cx="1667.7" cy="891.2" r="7.9"></circle>
                    <path d="M1125.5,730.5 C1130.9,729.4 1135,724.6 1135,718.9 C1135,712.5 1129.8,707.3 1123.4,707.1 C1121.9,707.1 1120.5,707.3 1119.2,707.8 C1114.8,698.5 1106.6,691.7 1096.8,689 C1093.8,688.1 1090.6,687.7 1087.2,687.7 C1067.9,687.7 1052.3,703.3 1052.3,722.5 L1052.3,722.9 C1052.3,727 1055.7,730.3 1059.8,730.3 L1125.5,730.5 L1125.5,730.5 Z M1818.8,931.1 C1824.2,930 1828.3,925.2 1828.3,919.5 C1828.3,913.1 1823.1,907.9 1816.7,907.7 C1815.2,907.7 1813.8,907.9 1812.5,908.4 C1808.1,899.1 1799.9,892.3 1790.1,889.6 C1787.1,888.7 1783.9,888.3 1780.5,888.3 C1761.2,888.3 1745.6,903.9 1745.6,923.1 L1745.6,923.5 C1745.6,927.6 1749,930.9 1753.1,930.9 L1818.8,931.1 L1818.8,931.1 Z M728.7,144.7 C738.1,142.8 745.2,134.5 745.2,124.6 C745.2,113.5 736.2,104.5 725.1,104.1 C722.5,104.1 720.1,104.4 717.8,105.3 C710.2,89.2 695.9,77.4 678.9,72.7 C673.7,71.1 668.1,70.4 662.2,70.4 C628.7,70.4 601.6,97.5 601.6,130.8 L601.6,131.5 C601.6,138.6 607.5,144.3 614.6,144.3 L728.7,144.7 L728.7,144.7 Z M1706.7,994.4 C1706,995.5 1705.6,996.6 1705.3,997.8 C1692.8,996.5 1680.1,1002.4 1673.1,1013.8 C1673,1013.9 1673,1014 1672.9,1014.1 C1672,1015.6 1671.2,1017.1 1670.6,1018.7 C1668.8,1023 1668,1027.5 1668.1,1031.8 L1668.2,1031.9 C1668.4,1043.1 1674.1,1053.9 1684.4,1060.1 C1686.3,1061.2 1688.2,1062.2 1690.1,1062.9 L1691.4,1063.4 C1705.9,1068.2 1722.4,1062.5 1730.7,1048.9 C1739,1035.2 1736.5,1017.9 1725.4,1007.2 L1727.2,1004.3 C1729,999.3 1727.1,993.5 1722.4,990.6 C1717,987.3 1710,989 1706.7,994.4 L1706.7,994.4 Z M2156.5,157 C2157.1,157.7 2157.8,158.4 2158.5,158.8 C2154.4,167.3 2155.2,177.7 2161.4,185.6 C2161.5,185.7 2161.5,185.7 2161.6,185.8 C2162.4,186.8 2163.3,187.7 2164.3,188.6 C2166.9,190.9 2169.8,192.7 2172.9,193.8 L2173,193.8 C2180.9,196.5 2190,195.3 2197,189.7 C2198.3,188.7 2199.4,187.6 2200.4,186.4 L2201.1,185.6 C2208.2,176.6 2208.5,163.6 2201.1,154.3 C2193.6,144.9 2180.8,142.2 2170.4,147.2 L2168.8,145.2 C2165.8,142.6 2161.2,142.4 2158,145 C2154.2,147.9 2153.5,153.3 2156.5,157 L2156.5,157 Z M969.2,894.5 C960.7,895.3 932.2,895.7 898.3,924.2 C883.8,936.4 860.1,971.6 855.9,1002 C855.5,1004.9 857.8,1007.5 860.8,1007.4 L860.8,1007.4 C863.1,1007.3 865,1005.6 865.3,1003.3 C867.7,985.7 874.1,969.2 883.8,954.7 C900.3,930.1 926,911.9 957.3,905.7 C1005.7,896.1 1053,918.3 1077.7,957.8 L1080.5,962.3 L1084.7,959 C1092.3,953 1101.4,948.7 1111.5,946.6 C1142.3,940.5 1172.4,958 1183,986.5 L1185,992 L1189.9,988.9 C1193.7,986.5 1198,984.7 1202.6,983.8 C1214,981.5 1224.9,985.2 1233.5,991.6 C1241.5,997.6 1246,990.3 1242,986.4 C1231.4,976.3 1216.2,971.4 1200.7,974.4 C1196.8,975.2 1193.1,976.4 1189.6,978.1 C1175.8,948.3 1143.1,930.7 1109.5,937.3 C1099.6,939.3 1090.6,943.1 1082.8,948.5 C1074.9,936.9 1065.1,926.9 1054.1,918.7 C1054.2,918.7 1019.3,889.8 969.2,894.5 L969.2,894.5 Z M135.6,504.3 L105.8,475.4 C103.1,472.8 103.1,468.5 105.6,465.8 L134.7,435.7 C137.1,433.2 141.1,433.1 143.6,435.6 L174.1,465.1 C176.6,467.5 176.6,471.4 174.2,473.9 L144.9,504.1 C142.5,506.8 138.2,506.9 135.6,504.3 L135.6,504.3 Z M99,490.1 L86.6,478.1 C83.9,475.5 83.8,471.2 86.4,468.5 L115.9,438.1 C118.3,435.6 122.4,435.5 124.9,438 L137.9,450.6 C140.4,453 140.4,457 138,459.4 L108.4,490 C105.9,492.6 101.7,492.7 99,490.1 L99,490.1 Z" id="Shape"></path>
                    <path d="M862.9,609.6 L960.2,632.9 C963.9,633.8 966.5,637.2 966.4,641.1 L964.4,712.8 C964.3,715.5 963.1,718 961,719.5 L900.1,764.7 C897.6,766.5 894.4,767.1 891.4,766.2 L793.5,736.3 C789,734.9 786.3,730.2 787.5,725.6 L804,660.8 L862.9,609.6 L862.9,609.6 Z M895.8,759.7 L892,667.2 L806.7,658.5 L892,667.2 L940.4,732.2 L926.8,760.5 C925.5,763.1 923.1,764.9 920.2,765.1 L903.8,766.7 C899.7,767.1 896,763.9 895.8,759.7 L895.8,759.7 Z M885.1,596.8 L966.2,630.3 C968.9,631.4 970.3,634.4 969.5,637.2 L940.4,732.3 L843.9,746.3 C840.5,746.8 837,745.6 834.5,743 L798.8,705.6 C795.8,702.4 794.6,697.9 795.6,693.7 L804,660.8 L876,598.3 C878.5,596 882,595.5 885.1,596.8 L885.1,596.8 Z" id="Shape"></path>
                    <polygon id="Shape" points="893.7 618.2 930.4 732.2 870.3 761.6 817.5 735.5 793.4 710.3 830.4 629.2"></polygon>
                    <circle id="Oval" cx="440.4" cy="980.6" r="84.8"></circle>
                    <polyline id="Shape" points="440.4 895.7 440.4 1065.4 418.9 1062.6 380.9 920"></polyline>
                    <polyline id="Shape" points="517.3 1016.4 440.4 952.6 406.3 902.9"></polyline>
                    <path d="M1915.6,466.1 L2024.9,466 C2028.4,465.3 2031,462.2 2031,458.5 C2031,454.3 2027.6,450.9 2023.4,450.9 C2022.5,450.9 2021.6,451 2020.8,451.4 C2016.6,442.5 2006.9,437.1 1996.8,438.7 C1993.7,439.2 1990.9,440.3 1988.4,441.8" id="Shape"></path>
                    <circle id="Oval" cx="1953.9" cy="459.3" r="38.8"></circle>
                    <path d="M1363.4,484 L1333.6,455.1 C1330.9,452.5 1330.9,448.2 1333.4,445.5 L1362.5,415.4 C1364.9,412.9 1368.9,412.8 1371.4,415.3 L1401.9,444.8 C1404.4,447.2 1404.4,451.1 1402,453.6 L1372.7,483.8 C1370.3,486.5 1366.1,486.5 1363.4,484 L1363.4,484 Z M1326.9,469.8 L1314.5,457.8 C1311.8,455.2 1311.7,450.9 1314.3,448.2 L1343.8,417.8 C1346.2,415.3 1350.3,415.2 1352.8,417.7 L1365.8,430.3 C1368.3,432.7 1368.3,436.7 1365.9,439.1 L1336.3,469.7 C1333.8,472.3 1329.5,472.4 1326.9,469.8 L1326.9,469.8 Z" id="Shape"></path>
                    <path d="M1787.8,243.1 L1758,214.2 C1755.3,211.6 1755.3,207.3 1757.8,204.6 L1786.9,174.5 C1789.3,172 1793.3,171.9 1795.8,174.4 L1826.3,203.9 C1828.8,206.3 1828.8,210.2 1826.4,212.7 L1797.1,242.9 C1794.7,245.5 1790.5,245.6 1787.8,243.1 L1787.8,243.1 Z M1751.3,228.9 L1738.9,216.9 C1736.2,214.3 1736.1,210 1738.7,207.3 L1768.2,176.9 C1770.6,174.4 1774.7,174.3 1777.2,176.8 L1790.2,189.4 C1792.7,191.8 1792.7,195.8 1790.3,198.2 L1760.7,228.8 C1758.2,231.4 1753.9,231.4 1751.3,228.9 L1751.3,228.9 Z" id="Shape"></path>
                    <path d="M2283,98.7 L2247,63.8 C2243.7,60.7 2243.7,55.5 2246.8,52.2 L2281.9,15.9 C2284.8,12.9 2289.6,12.8 2292.6,15.8 L2329.4,51.4 C2332.4,54.3 2332.4,59 2329.5,62 L2294.1,98.5 C2291.3,101.6 2286.2,101.8 2283,98.7 L2283,98.7 Z M2238.9,81.6 L2223.9,67.1 C2220.6,64 2220.5,58.8 2223.7,55.5 L2259.3,18.8 C2262.2,15.8 2267.1,15.7 2270.2,18.7 L2285.9,33.9 C2288.9,36.8 2288.9,41.6 2286,44.5 L2250.3,81.4 C2247.2,84.6 2242,84.6 2238.9,81.6 L2238.9,81.6 Z" id="Shape"></path>
                    <path d="M1899,1060.3 L1864.3,1026.6 C1861.2,1023.6 1861.2,1018.6 1864.1,1015.4 L1898,980.3 C1900.8,977.4 1905.5,977.3 1908.4,980.2 L1944,1014.6 C1946.9,1017.4 1946.9,1021.9 1944.1,1024.9 L1909.9,1060.1 C1907,1063.1 1902.1,1063.2 1899,1060.3 L1899,1060.3 Z M1856.4,1043.7 L1841.9,1029.7 C1838.8,1026.7 1838.6,1021.7 1841.7,1018.5 L1876.1,983.1 C1878.9,980.2 1883.7,980.1 1886.6,983 L1901.8,997.7 C1904.7,1000.5 1904.7,1005.2 1901.9,1008 L1867.4,1043.7 C1864.4,1046.7 1859.4,1046.7 1856.4,1043.7 L1856.4,1043.7 Z" id="Shape"></path>
                    <path d="M403.8,751.4 L431.5,720.5 C434,717.7 438.3,717.5 441.1,720 L472.3,747.9 C474.9,750.2 475.1,754.2 472.8,756.8 L444.4,788.4 C442.1,790.9 438.2,791.2 435.6,788.9 L404.3,760.8 C401.6,758.3 401.3,754.1 403.8,751.4 L403.8,751.4 Z M416.6,714.3 L428.1,701.5 C430.6,698.7 434.9,698.5 437.7,701 L469.2,729.3 C471.8,731.6 472,735.7 469.7,738.3 L457.6,751.8 C455.3,754.4 451.3,754.6 448.8,752.3 L417.1,723.9 C414.3,721.3 414.1,717 416.6,714.3 L416.6,714.3 Z" id="Shape"></path>
                    <circle id="Oval" cx="1609.4" cy="85.2" r="84.8"></circle>
                    <polyline id="Shape" points="1608.4 0.3 1608.4 170 1586.9 167.2 1548.9 24.6"></polyline>
                    <polyline id="Shape" points="1686.3 121 1609.4 57.2 1575.3 7.5"></polyline>
                    <circle id="Oval" cx="1576.6" cy="795.6" r="6.1"></circle>
                    <path d="M1834.7,103.5 L1804.5,41.3 C1804.1,40.4 1805.1,39.6 1805.9,40.2 L1850.5,75 L1838.3,103.4 C1837.6,104.9 1835.4,105 1834.7,103.5 L1834.7,103.5 Z" id="Shape"></path>
                    <path d="M1850.5,75 L1821.9,77.1" id="Shape"></path>
                    <path d="M1217.9,854.4 C1218.5,855.1 1219.2,855.8 1219.9,856.2 C1215.8,864.7 1216.6,875.1 1222.8,883 C1222.8,883.1 1222.9,883.1 1223,883.2 C1223.8,884.2 1224.7,885.1 1225.7,886 C1228.3,888.3 1231.2,890.1 1234.3,891.2 L1234.4,891.2 C1242.3,893.9 1251.4,892.7 1258.4,887.1 C1259.7,886.1 1260.8,885 1261.8,883.8 L1262.5,883 C1269.6,874 1269.9,861 1262.5,851.7 C1255,842.3 1242.2,839.6 1231.8,844.6 L1230.2,842.6 C1227.2,840 1222.6,839.8 1219.4,842.4 C1215.5,845.3 1214.9,850.7 1217.9,854.4 L1217.9,854.4 Z M254.5,107.6 L316,158.4 C316.8,159.1 316.2,160.5 315.1,160.2 L251.6,145.1 L250.8,109.5 C250.6,107.5 252.9,106.3 254.5,107.6 L254.5,107.6 Z" id="Shape"></path>
                    <path d="M255.5,146.1 L284.5,130.2" id="Shape"></path>
                    <path d="M1210.1,303.2 C1209.4,304.3 1209,305.4 1208.7,306.6 C1196.2,305.3 1183.5,311.2 1176.5,322.6 C1176.4,322.7 1176.4,322.8 1176.3,322.9 C1175.4,324.4 1174.6,325.9 1174,327.5 C1172.2,331.8 1171.4,336.3 1171.5,340.6 L1171.6,340.7 C1171.8,351.9 1177.5,362.7 1187.8,368.9 C1189.7,370 1191.6,371 1193.5,371.7 L1194.8,372.2 C1209.3,377 1225.8,371.3 1234.1,357.7 C1242.4,344 1239.9,326.7 1228.8,316 L1230.6,313.1 C1232.4,308.1 1230.5,302.3 1225.8,299.4 C1220.4,296.1 1213.4,297.8 1210.1,303.2 L1210.1,303.2 Z M407.8,25.8 L452.1,36.3 C460.7,38.3 460.7,50.6 452,52.6 L403.1,63.7 L393.1,44.6 C388,34.6 396.9,23.2 407.8,25.8 L407.8,25.8 Z" id="Shape"></path>
                    <path d="M403.2,63.7 L426.7,30.2" id="Shape"></path>
                    <circle id="Oval" cx="2472.9" cy="334.4" r="7.9"></circle>
                    <path d="M2712.1,371.8 L2555.7,371.6 C2550.6,370.6 2546.7,366.1 2546.7,360.7 C2546.7,354.5 2551.7,349.5 2557.9,349.5 C2559.2,349.5 2560.5,349.7 2561.7,350.2 C2567.8,337.3 2581.8,329.4 2596.6,331.8 C2601.1,332.5 2605.2,334.1 2608.8,336.4 C2612.2,331.1 2616.4,326.4 2621.3,322.5 C2621.3,322.5 2636.6,308.9 2659.2,310.2 C2663,310.4 2675.9,310.1 2691.7,322.4 C2698.4,327.7 2710.2,343.1 2712.1,356.8" id="Shape"></path>
                    <circle id="Oval" cx="2656.4" cy="366.6" r="56.5"></circle>
                </g>
            </g>
        </g>
    </g>
</svg>