<?xml version="1.0" encoding="UTF-8" standalone="no"?>
<svg width="2780px" height="1144px" viewBox="0 0 2780 1144" version="1.1" xmlns="http://www.w3.org/2000/svg" xmlns:xlink="http://www.w3.org/1999/xlink">
    <!-- Generator: Sketch 39.1 (31720) - http://www.bohemiancoding.com/sketch -->
    <title>Artboard</title>
    <desc>Created with Sketch.</desc>
    <defs></defs>
    <g id="Page-1" stroke="none" stroke-width="1" fill="none" fill-rule="evenodd" opacity="0.3">
        <g id="Artboard" stroke="#92FFFF">
            <g id="parallax-header-3" transform="translate(9.000000, 8.000000)">
                <g id="Group">
                    <path d="M2362.4,144.6 L2448.3,165.2 C2451.6,166 2453.9,169 2453.8,172.4 L2452,235.7 C2451.9,238.1 2450.8,240.3 2449,241.6 L2395.3,281.5 C2393.1,283.1 2390.3,283.6 2387.7,282.8 L2301.3,256.4 C2297.3,255.2 2295,251 2296,247 L2310.6,189.8 L2362.4,144.6 L2362.4,144.6 Z M2391.4,277.1 L2388,195.5 L2312.7,187.8 L2388,195.5 L2430.7,252.8 L2418.7,277.8 C2417.6,280.1 2415.4,281.6 2412.9,281.9 L2398.4,283.3 C2394.8,283.7 2391.6,280.8 2391.4,277.1 L2391.4,277.1 Z M2382,133.2 L2453.6,162.7 C2456,163.7 2457.2,166.3 2456.5,168.8 L2430.8,252.8 L2345.7,265.1 C2342.7,265.5 2339.6,264.4 2337.4,262.2 L2305.9,229.2 C2303.2,226.4 2302.2,222.4 2303.1,218.7 L2310.5,189.7 L2374,134.5 C2376.2,132.6 2379.2,132.1 2382,133.2 L2382,133.2 Z" id="Shape"></path>
                    <polygon id="Shape" points="2398.4 152.1 2430.8 252.8 2377.8 278.8 2331.2 255.8 2309.9 233.5 2342.5 161.8"></polygon>
                    <circle id="Oval" cx="2450.9" cy="749.3" r="51.5"></circle>
                    <polyline id="Shape" points="2450.9 697.7 2450.9 800.8 2437.9 799.1 2414.8 712.5"></polyline>
                    <polyline id="Shape" points="2497.6 771 2450.9 732.3 2430.2 702.1"></polyline>
                    <circle id="Oval" cx="1357.8" cy="649.9" r="6.1"></circle>
                    <circle id="Oval" cx="683.4" cy="627.5" r="10.7"></circle>
                    <circle id="Oval" cx="720.8" cy="876.5" r="4.5"></circle>
                    <circle id="Oval" cx="347.8" cy="672.3" r="7.9"></circle>
                    <circle id="Oval" cx="535.8" cy="636.3" r="7.9"></circle>
                    <circle id="Oval" cx="2345" cy="498.3" r="7.9"></circle>
                    <circle id="Oval" cx="2327" cy="840.3" r="7.9"></circle>
                    <circle id="Oval" cx="2667" cy="813.3" r="7.9"></circle>
                    <circle id="Oval" cx="2499.9" cy="872.2" r="7.9"></circle>
                    <circle id="Oval" cx="1889" cy="855.3" r="7.9"></circle>
                    <circle id="Oval" cx="1901" cy="342.2" r="7.9"></circle>
                    <path d="M1762.3,683.5 L1831.1,683.4 C1838.5,681.9 1844.1,675.4 1844.1,667.5 C1844.1,658.8 1837,651.6 1828.3,651.4 C1826.3,651.4 1824.3,651.7 1822.5,652.3 C1813.7,633.6 1793.4,622.2 1772,625.6 C1765.6,626.6 1759.6,628.9 1754.4,632.2 C1741.1,606.3 1714.3,588.4 1683.3,587.8 C1637.7,586.9 1600.3,623.2 1599.9,668.8 C1599.9,672.8 1600.1,676.7 1600.6,680.5 C1600.8,682.3 1602.4,683.7 1604.2,683.7 L1762.3,683.5 L1762.3,683.5 Z M1448.7,1123.2 L1517.5,1123.1 C1524.9,1121.6 1530.5,1115.1 1530.5,1107.2 C1530.5,1098.5 1523.4,1091.3 1514.7,1091.1 C1512.7,1091.1 1510.7,1091.4 1508.9,1092 C1500.1,1073.3 1479.8,1061.9 1458.4,1065.3 C1452,1066.3 1446,1068.6 1440.8,1071.9 C1427.5,1046 1400.7,1028.1 1369.7,1027.5 C1324.1,1026.6 1286.7,1062.9 1286.3,1108.5 C1286.3,1112.5 1286.5,1116.4 1287,1120.2 C1287.2,1122 1288.8,1123.4 1290.6,1123.4 L1448.7,1123.2 L1448.7,1123.2 Z M716.1,542.2 L784.9,542.1 C792.3,540.6 797.9,534.1 797.9,526.2 C797.9,517.5 790.8,510.3 782.1,510.1 C780.1,510.1 778.1,510.4 776.3,511 C767.5,492.3 747.2,480.9 725.8,484.3 C719.4,485.3 713.4,487.6 708.2,490.9 C694.9,465 668.1,447.1 637.1,446.5 C591.5,445.6 554.1,481.9 553.7,527.5 C553.7,531.5 553.9,535.4 554.4,539.2 C554.6,541 556.2,542.4 558,542.4 L716.1,542.2 L716.1,542.2 Z M193.5,591.3 C193,592.1 192.7,593 192.5,593.8 C183.1,592.9 173.6,597.2 168.4,605.8 C168.4,605.9 168.3,605.9 168.3,606 C167.6,607.1 167.1,608.3 166.6,609.5 C165.3,612.7 164.7,616.1 164.7,619.3 L164.8,619.4 C165,627.8 169.3,635.8 176.9,640.5 C178.3,641.3 179.7,642 181.2,642.6 L182.2,642.9 C193.1,646.5 205.4,642.2 211.6,632 C217.8,621.7 215.9,608.8 207.6,600.8 L208.9,598.6 C210.3,594.8 208.9,590.5 205.3,588.4 C201.2,586 195.9,587.3 193.5,591.3 L193.5,591.3 Z M1292.1,691.2 C1291.4,692.3 1291,693.4 1290.7,694.6 C1278.2,693.3 1265.5,699.2 1258.5,710.6 C1258.4,710.7 1258.4,710.8 1258.3,710.9 C1257.4,712.4 1256.6,713.9 1256,715.5 C1254.2,719.8 1253.4,724.3 1253.5,728.6 L1253.6,728.7 C1253.8,739.9 1259.5,750.7 1269.8,756.9 C1271.7,758 1273.6,759 1275.5,759.7 L1276.8,760.2 C1291.3,765 1307.8,759.3 1316.1,745.7 C1324.4,732 1321.9,714.7 1310.8,704 L1312.6,701.1 C1314.4,696.1 1312.5,690.3 1307.8,687.4 C1302.4,684.1 1295.4,685.8 1292.1,691.2 L1292.1,691.2 Z M1496.8,535.6 L1508.2,614.5 C1508.4,615.6 1506.9,616.1 1506.3,615.2 L1469.4,561.3 L1492.7,534.3 C1494.1,532.9 1496.5,533.6 1496.8,535.6 L1496.8,535.6 Z" id="Shape"></path>
                    <path d="M1469.5,561.4 L1501.6,569.1" id="Shape"></path>
                    <path d="M1039.9,241.2 L1066,316.6 C1066.4,317.6 1065.1,318.4 1064.3,317.7 L1017.9,271.7 L1035.7,240.8 C1036.7,239.1 1039.2,239.3 1039.9,241.2 L1039.9,241.2 Z" id="Shape"></path>
                    <path d="M1017.9,271.7 L1050.8,273.2" id="Shape"></path>
                    <path d="M1454.7,731.5 L1395.6,818.7 C1395.5,818.8 1395.4,819 1395.4,819.1 C1392.8,823.9 1399.4,828.6 1403.3,824.5 L1513.7,707.7 C1516.1,705.2 1513.3,701.4 1510.1,702.8 L1467.1,721.4 C1462,723.5 1457.7,727 1454.7,731.5 L1454.7,731.5 Z M1974.3,694.9 L1947,656.8 C1945,654 1940.6,655.8 1941.4,659.1 L1975.9,816.1 C1977.1,821.6 1985.2,821 1985.5,815.5 C1985.6,815.4 1985.6,815.2 1985.5,815.1 L1979.7,709.9 C1979.5,704.6 1977.6,699.3 1974.3,694.9 L1974.3,694.9 Z M642.9,983.8 L583.8,1071 C583.7,1071.1 583.6,1071.3 583.6,1071.4 C581,1076.2 587.6,1080.9 591.5,1076.8 L701.9,960 C704.3,957.5 701.5,953.7 698.3,955.1 L655.3,973.7 C650.2,975.8 646,979.4 642.9,983.8 L642.9,983.8 Z M435.3,490.5 L376.3,577.6 C376.2,577.7 376.1,577.9 376.1,578 C373.5,582.8 380.1,587.5 384,583.4 L494.3,466.6 C496.7,464.1 493.9,460.3 490.7,461.7 L447.7,480.3 C442.6,482.5 438.4,486 435.3,490.5 L435.3,490.5 Z M2498,1027.5 L2737.1,1027.2 C2744.8,1025.7 2750.6,1018.9 2750.6,1010.7 C2750.6,1001.4 2743.1,993.9 2733.8,993.9 C2731.8,993.9 2729.9,994.2 2728.1,994.9 C2719,975.5 2697.8,963.6 2675.6,967.2 C2668.9,968.3 2662.6,970.7 2657.2,974.1 L2498,1027.5 Z" id="Shape"></path>
                    <circle id="Oval" cx="2581.8" cy="1012.8" r="85"></circle>
                    <path d="M288.9,225.6 C280.5,229.4 251.7,239.9 227.4,280.9 C217,298.4 205.3,342.6 211.9,375 C212.5,378.1 215.8,379.9 218.8,378.8 L218.8,378.8 C221.1,377.9 222.4,375.5 221.9,373 C218.1,354.3 218.8,335.2 223.5,317.1 C231.5,286.3 251.2,258.6 280.9,241.2 C326.7,214.3 382.6,220.1 421.6,251.5 L426,255.1 L429.1,250.3 C434.7,241.5 442.4,233.9 452,228.2 C481.2,211.1 517.9,218.2 538.8,243.4 L542.8,248.3 L546.7,243.4 C549.7,239.6 553.4,236.3 557.8,233.7 C568.6,227.4 580.9,227.2 592,230.7 C602.3,233.9 604.3,224.9 598.8,222.4 C584.5,215.9 567.3,216.3 552.6,224.9 C548.9,227.1 545.6,229.7 542.6,232.6 C518.1,207.2 478.5,200.9 446.7,219.5 C437.4,225 429.6,232.1 423.5,240.3 C411.4,231.3 397.9,224.6 383.7,220.2 C383.9,220.1 338.1,203 288.9,225.6 L288.9,225.6 Z M1381.8,121.9 C1372.9,119.8 1343.7,110.4 1299.3,127.7 C1280.3,135.1 1244,162.8 1229.2,192.3 C1227.8,195.2 1229.2,198.6 1232.3,199.5 L1232.3,199.5 C1234.7,200.2 1237.2,199.1 1238.3,196.9 C1246.8,179.8 1259.1,165.2 1273.9,153.8 C1299.2,134.4 1331.8,124.7 1365.8,129.2 C1418.4,136.2 1458.9,175.1 1470.5,223.9 L1471.8,229.5 L1477.2,227.6 C1487,224.1 1497.8,222.8 1508.8,224.3 C1542.3,228.7 1566.9,256.9 1567.9,289.6 L1568.1,295.9 L1574.2,294.4 C1578.9,293.3 1583.9,292.9 1589,293.6 C1601.4,295.2 1611.2,302.7 1617.8,312.2 C1623.9,321.1 1631,315.2 1628.2,309.9 C1620.9,295.9 1607.1,285.7 1590.3,283.4 C1586,282.8 1581.8,282.8 1577.7,283.3 C1574,248.2 1546.7,218.9 1510.1,214 C1499.4,212.6 1488.9,213.4 1479,216.1 C1474.9,201.6 1468.5,188 1460,175.8 C1460.1,176 1434.5,134.4 1381.8,121.9 L1381.8,121.9 Z M1187.2,526.1 L1238,527 C1239.9,527 1241.6,528.5 1242,530.4 L1248.9,566.2 C1249.2,567.5 1248.8,568.9 1247.9,569.9 L1222.7,599 C1221.7,600.2 1220.2,600.8 1218.6,600.7 L1166.8,596.6 C1164.4,596.4 1162.6,594.3 1162.6,592 L1163.7,558.1 L1187.2,526.1 L1187.2,526.1 Z M1220.1,596.9 L1208,551.5 L1164.7,556.6 L1208,551.5 L1239.1,578.4 L1235.4,593.9 C1235.1,595.3 1234,596.5 1232.6,596.9 L1224.6,599.5 C1222.8,600.2 1220.6,598.9 1220.1,596.9 L1220.1,596.9 Z M878.8,25.8 L952.1,27.1 C954.8,27.1 957.3,29.3 957.9,32 L967.9,83.6 C968.3,85.5 967.8,87.5 966.5,88.9 L930.2,130.9 C928.8,132.6 926.6,133.5 924.3,133.4 L849.6,127.5 C846.1,127.2 843.5,124.2 843.5,120.9 L845.1,72 L878.8,25.8 L878.8,25.8 Z M926.3,127.9 L908.8,62.4 L846.3,69.8 L908.8,62.4 L953.7,101.2 L948.4,123.6 C948,125.6 946.4,127.4 944.4,127.9 L932.9,131.7 C930.2,132.7 927,130.8 926.3,127.9 L926.3,127.9 Z" id="Shape"></path>
                    <circle id="Oval" cx="622.4" cy="789.9" r="7.1"></circle>
                    <circle id="Oval" cx="605.1" cy="808.6" r="49.5"></circle>
                    <path d="M557,818.3 L653.7,818.3" id="Shape"></path>
                    <circle id="Oval" cx="155.2" cy="1054.7" r="7.1"></circle>
                    <circle id="Oval" cx="138" cy="1073.2" r="49.5"></circle>
                    <path d="M89.8,1083.1 L186.5,1083.1" id="Shape"></path>
                    <path d="M693.3,1074.6 C688.8,1073.7 685.4,1069.7 685.4,1065 C685.4,1059.7 689.7,1055.4 695,1055.3 C696.2,1055.3 697.4,1055.5 698.5,1055.9 C702.1,1048.2 708.9,1042.6 717,1040.4 C719.5,1039.7 722.2,1039.3 724.9,1039.3 C740.8,1039.3 753.7,1052.2 753.8,1068.1 L753.8,1068.4 C753.8,1071.8 751,1074.5 747.6,1074.5 L693.3,1074.6 L693.3,1074.6 Z M1942.2,116.9 C1937.7,116 1934.3,112 1934.3,107.3 C1934.3,102 1938.6,97.7 1943.9,97.6 C1945.1,97.6 1946.3,97.8 1947.4,98.2 C1951,90.5 1957.8,84.9 1965.9,82.7 C1968.4,82 1971.1,81.6 1973.8,81.6 C1989.7,81.6 2002.6,94.5 2002.7,110.4 L2002.7,110.7 C2002.7,114.1 1999.9,116.8 1996.5,116.8 L1942.2,116.9 L1942.2,116.9 Z M2298.2,608 C2293.7,607.1 2290.3,603.1 2290.3,598.4 C2290.3,593.1 2294.6,588.8 2299.9,588.7 C2301.1,588.7 2302.3,588.9 2303.4,589.3 C2307,581.6 2313.8,576 2321.9,573.8 C2324.4,573.1 2327.1,572.7 2329.8,572.7 C2345.7,572.7 2358.6,585.6 2358.7,601.5 L2358.7,601.8 C2358.7,605.2 2355.9,607.9 2352.5,607.9 L2298.2,608 L2298.2,608 Z M122.6,308.8 L58,342.9 C57.1,343.4 56.2,342.3 56.8,341.5 L91.9,293.1 L122.3,304.9 C124,305.6 124.2,307.9 122.6,308.8 L122.6,308.8 Z" id="Shape"></path>
                    <path d="M91.9,293.1 L95.2,323.2" id="Shape"></path>
                    <circle id="Oval" cx="870.5" cy="352.7" r="5"></circle>
                    <circle id="Oval" cx="386.9" cy="353.4" r="5"></circle>
                    <circle id="Oval" cx="325.4" cy="100.1" r="5"></circle>
                    <circle id="Oval" cx="816.9" cy="410.3" r="31.6"></circle>
                    <path d="M786.8,417.5 L850.9,417.3 C855.8,416.3 859.5,412 859.5,406.8 C859.5,400.9 854.7,396.1 848.8,396.1 C847.5,396.1 846.3,396.3 845.2,396.7 C839.4,384.3 825.9,376.8 811.7,379 C807.4,379.7 803.4,381.2 800,383.4" id="Shape"></path>
                    <circle id="Oval" cx="117.9" cy="126.1" r="31.6"></circle>
                    <path d="M87.8,133.4 L151.9,133.1 C156.8,132.1 160.5,127.8 160.5,122.6 C160.5,116.7 155.7,111.9 149.8,111.9 C148.5,111.9 147.3,112.1 146.2,112.5 C140.4,100.2 126.9,92.6 112.7,94.9 C108.4,95.6 104.4,97.1 101,99.3 L87.8,133.4 Z M1595.7,468.8 C1599.8,468 1602.9,464.4 1602.8,460.1 C1602.8,455.3 1598.9,451.3 1594.1,451.3 C1593,451.3 1591.9,451.5 1590.9,451.8 C1587.6,444.8 1581.4,439.7 1574.1,437.7 C1571.8,437.1 1569.4,436.7 1566.9,436.7 C1552.4,436.7 1540.7,448.4 1540.7,462.9 L1540.7,463.2 C1540.7,466.3 1543.3,468.7 1546.3,468.8 L1595.7,468.8 L1595.7,468.8 Z M1606.5,460.4 C1610.6,459.6 1613.7,456 1613.6,451.7 C1613.6,446.9 1609.7,442.9 1604.9,442.9 C1603.8,442.9 1602.7,443.1 1601.7,443.4 C1598.4,436.4 1592.2,431.3 1584.9,429.3 C1582.6,428.7 1580.2,428.3 1577.7,428.3 C1563.2,428.3 1551.5,440 1551.5,454.5 L1551.5,454.8 C1551.5,457.9 1554.1,460.3 1557.1,460.4 L1606.5,460.4 L1606.5,460.4 Z" id="Shape"></path>
                    <path d="M1542,466.1 L1552.7,458.2" id="Shape"></path>
                    <path d="M1152.1,139.4 C1158,138.2 1162.4,133.1 1162.3,126.9 C1162.3,120 1156.7,114.3 1149.8,114.3 C1148.2,114.3 1146.6,114.6 1145.2,115 C1140.5,104.9 1131.5,97.6 1121,94.7 C1117.7,93.8 1114.2,93.3 1110.7,93.3 C1089.9,93.3 1073,110.1 1073,131 L1073,131.4 C1073,135.9 1076.7,139.3 1081.1,139.5 L1152.1,139.5 L1152.1,139.4 Z M1167.6,127.3 C1173.5,126.2 1177.9,121 1177.8,114.8 C1177.8,107.9 1172.2,102.1 1165.3,102.1 C1163.7,102.1 1162.1,102.4 1160.7,102.8 C1156,92.7 1147,85.4 1136.5,82.5 C1133.2,81.6 1129.7,81.1 1126.2,81.1 C1105.4,81.1 1088.5,97.9 1088.5,118.8 L1088.5,119.2 C1088.5,123.7 1092.2,127.1 1096.6,127.2 L1167.6,127.2 L1167.6,127.3 Z" id="Shape"></path>
                    <path d="M1074.9,135.5 L1090.3,124.1" id="Shape"></path>
                    <path d="M1591,451.7 L1601.7,443.3" id="Shape"></path>
                    <path d="M1598,468 L1611.6,457.3" id="Shape"></path>
                    <path d="M2324.5,386.7 C2330.2,385.6 2334.5,380.6 2334.4,374.6 C2334.4,367.9 2329,362.3 2322.3,362.3 C2320.8,362.3 2319.2,362.6 2317.8,363 C2313.2,353.2 2304.5,346.1 2294.4,343.3 C2291.2,342.5 2287.8,341.9 2284.4,341.9 C2264.2,341.9 2247.8,358.2 2247.8,378.5 L2247.8,378.9 C2247.8,383.2 2251.4,386.6 2255.6,386.7 L2324.5,386.7 L2324.5,386.7 Z M2339.6,375 C2345.3,373.9 2349.6,368.9 2349.5,362.9 C2349.5,356.2 2344.1,350.6 2337.4,350.6 C2335.9,350.6 2334.3,350.9 2332.9,351.3 C2328.3,341.5 2319.6,334.4 2309.5,331.6 C2306.3,330.8 2302.9,330.2 2299.5,330.2 C2279.3,330.2 2262.9,346.5 2262.9,366.8 L2262.9,367.2 C2262.9,371.5 2266.5,374.9 2270.7,375 L2339.6,375 L2339.6,375 Z" id="Shape"></path>
                    <path d="M2249.6,382.9 L2264.5,371.9" id="Shape"></path>
                    <path d="M2318,362.8 L2332.9,351.1" id="Shape"></path>
                    <path d="M2330.5,384.8 L2344.1,374.1" id="Shape"></path>
                    <path d="M2497.5,525.2 L2451.9,481 C2449.2,478.4 2449.2,474.1 2451.7,471.4 L2496.1,425.5 C2498.5,423 2502.5,422.9 2505,425.4 L2551.3,470.2 C2553.8,472.6 2553.8,476.5 2551.4,479 L2506.8,525 C2504.3,527.7 2500.1,527.8 2497.5,525.2 L2497.5,525.2 Z M2446.3,505.4 L2425.1,484.8 C2422.4,482.2 2422.3,477.9 2424.9,475.2 L2469.8,428.8 C2472.2,426.3 2476.3,426.2 2478.8,428.7 L2500.7,449.9 C2503.2,452.3 2503.2,456.3 2500.8,458.7 L2455.7,505.3 C2453.2,507.9 2448.9,507.9 2446.3,505.4 L2446.3,505.4 Z" id="Shape"></path>
                    <circle id="Oval" cx="535.8" cy="42.2" r="7.9"></circle>
                </g>
            </g>
        </g>
    </g>
</svg>